<?xml version="1.0" encoding="utf-8" standalone="no"?>
<!DOCTYPE svg PUBLIC "-//W3C//DTD SVG 1.1//EN"
  "http://www.w3.org/Graphics/SVG/1.1/DTD/svg11.dtd">
<svg xmlns:xlink="http://www.w3.org/1999/xlink" width="460.8pt" height="345.6pt" viewBox="0 0 460.8 345.6" xmlns="http://www.w3.org/2000/svg" version="1.1">
 <metadata>
  <rdf:RDF xmlns:dc="http://purl.org/dc/elements/1.1/" xmlns:cc="http://creativecommons.org/ns#" xmlns:rdf="http://www.w3.org/1999/02/22-rdf-syntax-ns#">
   <cc:Work>
    <dc:type rdf:resource="http://purl.org/dc/dcmitype/StillImage"/>
    <dc:date>2023-11-22T12:20:51.890493</dc:date>
    <dc:format>image/svg+xml</dc:format>
    <dc:creator>
     <cc:Agent>
      <dc:title>Matplotlib v3.7.1, https://matplotlib.org/</dc:title>
     </cc:Agent>
    </dc:creator>
   </cc:Work>
  </rdf:RDF>
 </metadata>
 <defs>
  <style type="text/css">*{stroke-linejoin: round; stroke-linecap: butt}</style>
 </defs>
 <g id="figure_1">
  <g id="patch_1">
   <path d="M 0 345.6 
L 460.8 345.6 
L 460.8 0 
L 0 0 
z
" style="fill: #ffffff"/>
  </g>
  <g id="axes_1">
   <g id="patch_2">
    <path d="M 57.6 307.584 
L 414.72 307.584 
L 414.72 41.472 
L 57.6 41.472 
z
" style="fill: #ffffff"/>
   </g>
   <g id="GridlinesCollection_1">
    <path clip-path="url(#p82e355a01e)" style="fill: none; stroke: #b0b0b0; stroke-width: 0.8"/>
    <path d="M 57.6 307.584 
L 57.6 41.472 
" clip-path="url(#p82e355a01e)" style="fill: none; stroke: #b0b0b0; stroke-width: 0.8"/>
    <path d="M 176.64 307.584 
L 176.64 41.472 
" clip-path="url(#p82e355a01e)" style="fill: none; stroke: #b0b0b0; stroke-width: 0.8"/>
    <path d="M 295.68 307.584 
L 295.68 41.472 
" clip-path="url(#p82e355a01e)" style="fill: none; stroke: #b0b0b0; stroke-width: 0.8"/>
    <path d="M 414.72 307.584 
L 414.72 41.472 
" clip-path="url(#p82e355a01e)" style="fill: none; stroke: #b0b0b0; stroke-width: 0.8"/>
    <path clip-path="url(#p82e355a01e)" style="fill: none; stroke: #b0b0b0; stroke-width: 0.8"/>
    <path clip-path="url(#p82e355a01e)" style="fill: none; stroke: #b0b0b0; stroke-width: 0.8"/>
    <path clip-path="url(#p82e355a01e)" style="fill: none; stroke: #b0b0b0; stroke-width: 0.8"/>
    <path d="M 10.229221 307.584 
L 10.229221 41.472 
" clip-path="url(#p82e355a01e)" style="fill: none; stroke: #b0b0b0; stroke-width: 0.8"/>
    <path d="M 21.765389 307.584 
L 21.765389 41.472 
" clip-path="url(#p82e355a01e)" style="fill: none; stroke: #b0b0b0; stroke-width: 0.8"/>
    <path d="M 31.191125 307.584 
L 31.191125 41.472 
" clip-path="url(#p82e355a01e)" style="fill: none; stroke: #b0b0b0; stroke-width: 0.8"/>
    <path d="M 39.160471 307.584 
L 39.160471 41.472 
" clip-path="url(#p82e355a01e)" style="fill: none; stroke: #b0b0b0; stroke-width: 0.8"/>
    <path d="M 46.063832 307.584 
L 46.063832 41.472 
" clip-path="url(#p82e355a01e)" style="fill: none; stroke: #b0b0b0; stroke-width: 0.8"/>
    <path d="M 52.153028 307.584 
L 52.153028 41.472 
" clip-path="url(#p82e355a01e)" style="fill: none; stroke: #b0b0b0; stroke-width: 0.8"/>
    <path d="M 93.434611 307.584 
L 93.434611 41.472 
" clip-path="url(#p82e355a01e)" style="fill: none; stroke: #b0b0b0; stroke-width: 0.8"/>
    <path d="M 114.396514 307.584 
L 114.396514 41.472 
" clip-path="url(#p82e355a01e)" style="fill: none; stroke: #b0b0b0; stroke-width: 0.8"/>
    <path d="M 129.269221 307.584 
L 129.269221 41.472 
" clip-path="url(#p82e355a01e)" style="fill: none; stroke: #b0b0b0; stroke-width: 0.8"/>
    <path d="M 140.805389 307.584 
L 140.805389 41.472 
" clip-path="url(#p82e355a01e)" style="fill: none; stroke: #b0b0b0; stroke-width: 0.8"/>
    <path d="M 150.231125 307.584 
L 150.231125 41.472 
" clip-path="url(#p82e355a01e)" style="fill: none; stroke: #b0b0b0; stroke-width: 0.8"/>
    <path d="M 158.200471 307.584 
L 158.200471 41.472 
" clip-path="url(#p82e355a01e)" style="fill: none; stroke: #b0b0b0; stroke-width: 0.8"/>
    <path d="M 165.103832 307.584 
L 165.103832 41.472 
" clip-path="url(#p82e355a01e)" style="fill: none; stroke: #b0b0b0; stroke-width: 0.8"/>
    <path d="M 171.193028 307.584 
L 171.193028 41.472 
" clip-path="url(#p82e355a01e)" style="fill: none; stroke: #b0b0b0; stroke-width: 0.8"/>
    <path d="M 212.474611 307.584 
L 212.474611 41.472 
" clip-path="url(#p82e355a01e)" style="fill: none; stroke: #b0b0b0; stroke-width: 0.8"/>
    <path d="M 233.436514 307.584 
L 233.436514 41.472 
" clip-path="url(#p82e355a01e)" style="fill: none; stroke: #b0b0b0; stroke-width: 0.8"/>
    <path d="M 248.309221 307.584 
L 248.309221 41.472 
" clip-path="url(#p82e355a01e)" style="fill: none; stroke: #b0b0b0; stroke-width: 0.8"/>
    <path d="M 259.845389 307.584 
L 259.845389 41.472 
" clip-path="url(#p82e355a01e)" style="fill: none; stroke: #b0b0b0; stroke-width: 0.8"/>
    <path d="M 269.271125 307.584 
L 269.271125 41.472 
" clip-path="url(#p82e355a01e)" style="fill: none; stroke: #b0b0b0; stroke-width: 0.8"/>
    <path d="M 277.240471 307.584 
L 277.240471 41.472 
" clip-path="url(#p82e355a01e)" style="fill: none; stroke: #b0b0b0; stroke-width: 0.8"/>
    <path d="M 284.143832 307.584 
L 284.143832 41.472 
" clip-path="url(#p82e355a01e)" style="fill: none; stroke: #b0b0b0; stroke-width: 0.8"/>
    <path d="M 290.233028 307.584 
L 290.233028 41.472 
" clip-path="url(#p82e355a01e)" style="fill: none; stroke: #b0b0b0; stroke-width: 0.8"/>
    <path d="M 331.514611 307.584 
L 331.514611 41.472 
" clip-path="url(#p82e355a01e)" style="fill: none; stroke: #b0b0b0; stroke-width: 0.8"/>
    <path d="M 352.476514 307.584 
L 352.476514 41.472 
" clip-path="url(#p82e355a01e)" style="fill: none; stroke: #b0b0b0; stroke-width: 0.8"/>
    <path d="M 367.349221 307.584 
L 367.349221 41.472 
" clip-path="url(#p82e355a01e)" style="fill: none; stroke: #b0b0b0; stroke-width: 0.8"/>
    <path d="M 378.885389 307.584 
L 378.885389 41.472 
" clip-path="url(#p82e355a01e)" style="fill: none; stroke: #b0b0b0; stroke-width: 0.8"/>
    <path d="M 388.311125 307.584 
L 388.311125 41.472 
" clip-path="url(#p82e355a01e)" style="fill: none; stroke: #b0b0b0; stroke-width: 0.8"/>
    <path d="M 396.280471 307.584 
L 396.280471 41.472 
" clip-path="url(#p82e355a01e)" style="fill: none; stroke: #b0b0b0; stroke-width: 0.8"/>
    <path d="M 403.183832 307.584 
L 403.183832 41.472 
" clip-path="url(#p82e355a01e)" style="fill: none; stroke: #b0b0b0; stroke-width: 0.8"/>
    <path d="M 409.273028 307.584 
L 409.273028 41.472 
" clip-path="url(#p82e355a01e)" style="fill: none; stroke: #b0b0b0; stroke-width: 0.8"/>
    <path d="M 450.554611 307.584 
L 450.554611 41.472 
" clip-path="url(#p82e355a01e)" style="fill: none; stroke: #b0b0b0; stroke-width: 0.8"/>
    <path clip-path="url(#p82e355a01e)" style="fill: none; stroke: #b0b0b0; stroke-width: 0.8"/>
    <path clip-path="url(#p82e355a01e)" style="fill: none; stroke: #b0b0b0; stroke-width: 0.8"/>
    <path clip-path="url(#p82e355a01e)" style="fill: none; stroke: #b0b0b0; stroke-width: 0.8"/>
    <path clip-path="url(#p82e355a01e)" style="fill: none; stroke: #b0b0b0; stroke-width: 0.8"/>
    <path clip-path="url(#p82e355a01e)" style="fill: none; stroke: #b0b0b0; stroke-width: 0.8"/>
    <path clip-path="url(#p82e355a01e)" style="fill: none; stroke: #b0b0b0; stroke-width: 0.8"/>
    <path clip-path="url(#p82e355a01e)" style="fill: none; stroke: #b0b0b0; stroke-width: 0.8"/>
    <path clip-path="url(#p82e355a01e)" style="fill: none; stroke: #b0b0b0; stroke-width: 0.8"/>
    <path clip-path="url(#p82e355a01e)" style="fill: none; stroke: #b0b0b0; stroke-width: 0.8"/>
    <path clip-path="url(#p82e355a01e)" style="fill: none; stroke: #b0b0b0; stroke-width: 0.8"/>
    <path clip-path="url(#p82e355a01e)" style="fill: none; stroke: #b0b0b0; stroke-width: 0.8"/>
    <path clip-path="url(#p82e355a01e)" style="fill: none; stroke: #b0b0b0; stroke-width: 0.8"/>
    <path clip-path="url(#p82e355a01e)" style="fill: none; stroke: #b0b0b0; stroke-width: 0.8"/>
    <path clip-path="url(#p82e355a01e)" style="fill: none; stroke: #b0b0b0; stroke-width: 0.8"/>
    <path clip-path="url(#p82e355a01e)" style="fill: none; stroke: #b0b0b0; stroke-width: 0.8"/>
    <path d="M 57.6 307.584 
L 414.72 307.584 
" clip-path="url(#p82e355a01e)" style="fill: none; stroke: #b0b0b0; stroke-width: 0.8"/>
    <path d="M 57.6 254.3616 
L 414.72 254.3616 
" clip-path="url(#p82e355a01e)" style="fill: none; stroke: #b0b0b0; stroke-width: 0.8"/>
    <path d="M 57.6 201.1392 
L 414.72 201.1392 
" clip-path="url(#p82e355a01e)" style="fill: none; stroke: #b0b0b0; stroke-width: 0.8"/>
    <path d="M 57.6 147.9168 
L 414.72 147.9168 
" clip-path="url(#p82e355a01e)" style="fill: none; stroke: #b0b0b0; stroke-width: 0.8"/>
    <path d="M 57.6 94.6944 
L 414.72 94.6944 
" clip-path="url(#p82e355a01e)" style="fill: none; stroke: #b0b0b0; stroke-width: 0.8"/>
    <path d="M 57.6 41.472 
L 414.72 41.472 
" clip-path="url(#p82e355a01e)" style="fill: none; stroke: #b0b0b0; stroke-width: 0.8"/>
   </g>
   <g id="line2d_1">
    <path d="M 57.6 296.994516 
L 60.907111 296.721502 
L 64.214222 296.43724 
L 67.521334 296.141432 
L 70.828445 295.833764 
L 74.135556 295.513914 
L 77.442667 295.181542 
L 80.749779 294.836297 
L 84.05689 294.477813 
L 87.364001 294.105712 
L 90.671112 293.719598 
L 93.978224 293.319062 
L 97.285335 292.903678 
L 100.592446 292.473005 
L 103.899557 292.026583 
L 107.206669 291.563939 
L 110.51378 291.084576 
L 113.820891 290.587985 
L 117.128002 290.073633 
L 120.435114 289.54097 
L 123.742225 288.989425 
L 127.049336 288.418405 
L 130.356447 287.827297 
L 133.663559 287.215463 
L 136.97067 286.582245 
L 140.277781 285.926959 
L 143.584892 285.248894 
L 146.892004 284.547318 
L 150.199115 283.821468 
L 153.506226 283.070555 
L 156.813337 282.293762 
L 160.120449 281.49024 
L 163.42756 280.659112 
L 166.734671 279.799466 
L 170.041782 278.910359 
L 173.348894 277.990814 
L 176.656005 277.039815 
L 179.963116 276.056314 
L 183.270227 275.039221 
L 186.577339 273.987407 
L 189.88445 272.899701 
L 193.191561 271.774891 
L 196.498672 270.61172 
L 199.805784 269.408882 
L 203.112895 268.165026 
L 206.420006 266.878749 
L 209.727117 265.548598 
L 213.034229 264.173064 
L 216.34134 262.750584 
L 219.648451 261.279534 
L 222.955562 259.758231 
L 226.262674 258.184929 
L 229.569785 256.557814 
L 232.876896 254.875007 
L 236.184007 253.134555 
L 239.491119 251.334432 
L 242.79823 249.472534 
L 246.105341 247.546677 
L 249.412452 245.554594 
L 252.719564 243.493929 
L 256.026675 241.362235 
L 259.333786 239.156972 
L 262.640897 236.875498 
L 265.948009 234.515069 
L 269.25512 232.072835 
L 272.562231 229.54583 
L 275.869342 226.930972 
L 279.176454 224.225058 
L 282.483565 221.424755 
L 285.790676 218.526595 
L 289.097787 215.526974 
L 292.404899 212.422138 
L 295.71201 209.208183 
L 299.019121 205.881042 
L 302.326232 202.436485 
L 305.633344 198.870104 
L 308.940455 195.177309 
L 312.247566 191.353318 
L 315.554677 187.393151 
L 318.861789 183.291614 
L 322.1689 179.043296 
L 325.476011 174.642555 
L 328.783122 170.083506 
L 332.090234 165.360013 
L 335.397345 160.465673 
L 338.704456 155.393805 
L 342.011567 150.137435 
L 345.318679 144.689283 
L 348.62579 139.041748 
L 351.932901 133.186889 
L 355.240012 127.116412 
L 358.547124 120.821649 
L 361.854235 114.293541 
L 365.161346 107.522617 
L 368.468457 100.498973 
L 371.775569 93.212249 
L 375.08268 85.651608 
L 378.389791 77.805707 
L 381.696902 69.662676 
L 385.004014 61.210084 
L 388.311125 52.434914 
" clip-path="url(#p82e355a01e)" style="fill: none; stroke: #1f77b4; stroke-width: 1.5; stroke-linecap: square"/>
   </g>
   <g id="mpl_toolkits.axisartist.axis_artist_1">
    <defs>
     <path id="m8c7d25c447" d="M 0 0 
L 0 -3.5 
" style="stroke: #000000; stroke-width: 0.8"/>
    </defs>
    <g>
     <use xlink:href="#m8c7d25c447" x="57.6" y="307.584" style="fill: none; stroke: #000000; stroke-width: 0.8"/>
    </g>
    <g>
     <use xlink:href="#m8c7d25c447" x="176.64" y="307.584" style="fill: none; stroke: #000000; stroke-width: 0.8"/>
    </g>
    <g>
     <use xlink:href="#m8c7d25c447" x="295.68" y="307.584" style="fill: none; stroke: #000000; stroke-width: 0.8"/>
    </g>
    <g>
     <use xlink:href="#m8c7d25c447" x="414.72" y="307.584" style="fill: none; stroke: #000000; stroke-width: 0.8"/>
    </g>
    <g id="text_1">
     <!-- 1 -->
     <g transform="translate(54.41875 318.505875) scale(0.1 -0.1)">
      <defs>
       <path id="DejaVuSans-31" d="M 794 531 
L 1825 531 
L 1825 4091 
L 703 3866 
L 703 4441 
L 1819 4666 
L 2450 4666 
L 2450 531 
L 3481 531 
L 3481 0 
L 794 0 
L 794 531 
z
" transform="scale(0.015625)"/>
      </defs>
      <use xlink:href="#DejaVuSans-31"/>
     </g>
    </g>
    <g id="text_2">
     <!-- 10 -->
     <g transform="translate(170.2775 318.505875) scale(0.1 -0.1)">
      <defs>
       <path id="DejaVuSans-30" d="M 2034 4250 
Q 1547 4250 1301 3770 
Q 1056 3291 1056 2328 
Q 1056 1369 1301 889 
Q 1547 409 2034 409 
Q 2525 409 2770 889 
Q 3016 1369 3016 2328 
Q 3016 3291 2770 3770 
Q 2525 4250 2034 4250 
z
M 2034 4750 
Q 2819 4750 3233 4129 
Q 3647 3509 3647 2328 
Q 3647 1150 3233 529 
Q 2819 -91 2034 -91 
Q 1250 -91 836 529 
Q 422 1150 422 2328 
Q 422 3509 836 4129 
Q 1250 4750 2034 4750 
z
" transform="scale(0.015625)"/>
      </defs>
      <use xlink:href="#DejaVuSans-31"/>
      <use xlink:href="#DejaVuSans-30" x="63.623047"/>
     </g>
    </g>
    <g id="text_3">
     <!-- 100 -->
     <g transform="translate(286.13625 318.505875) scale(0.1 -0.1)">
      <use xlink:href="#DejaVuSans-31"/>
      <use xlink:href="#DejaVuSans-30" x="63.623047"/>
      <use xlink:href="#DejaVuSans-30" x="127.246094"/>
     </g>
    </g>
    <g id="text_4">
     <!-- 1000 -->
     <g transform="translate(401.995 318.505875) scale(0.1 -0.1)">
      <use xlink:href="#DejaVuSans-31"/>
      <use xlink:href="#DejaVuSans-30" x="63.623047"/>
      <use xlink:href="#DejaVuSans-30" x="127.246094"/>
      <use xlink:href="#DejaVuSans-30" x="190.869141"/>
     </g>
    </g>
    <defs>
     <path id="mf4a3e5adbd" d="M 0 0 
L 0 -2 
" style="stroke: #000000; stroke-width: 0.8"/>
    </defs>
    <g>
     <use xlink:href="#mf4a3e5adbd" x="93.434611" y="307.584" style="fill: none; stroke: #000000; stroke-width: 0.8"/>
    </g>
    <g>
     <use xlink:href="#mf4a3e5adbd" x="114.396514" y="307.584" style="fill: none; stroke: #000000; stroke-width: 0.8"/>
    </g>
    <g>
     <use xlink:href="#mf4a3e5adbd" x="129.269221" y="307.584" style="fill: none; stroke: #000000; stroke-width: 0.8"/>
    </g>
    <g>
     <use xlink:href="#mf4a3e5adbd" x="140.805389" y="307.584" style="fill: none; stroke: #000000; stroke-width: 0.8"/>
    </g>
    <g>
     <use xlink:href="#mf4a3e5adbd" x="150.231125" y="307.584" style="fill: none; stroke: #000000; stroke-width: 0.8"/>
    </g>
    <g>
     <use xlink:href="#mf4a3e5adbd" x="158.200471" y="307.584" style="fill: none; stroke: #000000; stroke-width: 0.8"/>
    </g>
    <g>
     <use xlink:href="#mf4a3e5adbd" x="165.103832" y="307.584" style="fill: none; stroke: #000000; stroke-width: 0.8"/>
    </g>
    <g>
     <use xlink:href="#mf4a3e5adbd" x="171.193028" y="307.584" style="fill: none; stroke: #000000; stroke-width: 0.8"/>
    </g>
    <g>
     <use xlink:href="#mf4a3e5adbd" x="212.474611" y="307.584" style="fill: none; stroke: #000000; stroke-width: 0.8"/>
    </g>
    <g>
     <use xlink:href="#mf4a3e5adbd" x="233.436514" y="307.584" style="fill: none; stroke: #000000; stroke-width: 0.8"/>
    </g>
    <g>
     <use xlink:href="#mf4a3e5adbd" x="248.309221" y="307.584" style="fill: none; stroke: #000000; stroke-width: 0.8"/>
    </g>
    <g>
     <use xlink:href="#mf4a3e5adbd" x="259.845389" y="307.584" style="fill: none; stroke: #000000; stroke-width: 0.8"/>
    </g>
    <g>
     <use xlink:href="#mf4a3e5adbd" x="269.271125" y="307.584" style="fill: none; stroke: #000000; stroke-width: 0.8"/>
    </g>
    <g>
     <use xlink:href="#mf4a3e5adbd" x="277.240471" y="307.584" style="fill: none; stroke: #000000; stroke-width: 0.8"/>
    </g>
    <g>
     <use xlink:href="#mf4a3e5adbd" x="284.143832" y="307.584" style="fill: none; stroke: #000000; stroke-width: 0.8"/>
    </g>
    <g>
     <use xlink:href="#mf4a3e5adbd" x="290.233028" y="307.584" style="fill: none; stroke: #000000; stroke-width: 0.8"/>
    </g>
    <g>
     <use xlink:href="#mf4a3e5adbd" x="331.514611" y="307.584" style="fill: none; stroke: #000000; stroke-width: 0.8"/>
    </g>
    <g>
     <use xlink:href="#mf4a3e5adbd" x="352.476514" y="307.584" style="fill: none; stroke: #000000; stroke-width: 0.8"/>
    </g>
    <g>
     <use xlink:href="#mf4a3e5adbd" x="367.349221" y="307.584" style="fill: none; stroke: #000000; stroke-width: 0.8"/>
    </g>
    <g>
     <use xlink:href="#mf4a3e5adbd" x="378.885389" y="307.584" style="fill: none; stroke: #000000; stroke-width: 0.8"/>
    </g>
    <g>
     <use xlink:href="#mf4a3e5adbd" x="388.311125" y="307.584" style="fill: none; stroke: #000000; stroke-width: 0.8"/>
    </g>
    <g>
     <use xlink:href="#mf4a3e5adbd" x="396.280471" y="307.584" style="fill: none; stroke: #000000; stroke-width: 0.8"/>
    </g>
    <g>
     <use xlink:href="#mf4a3e5adbd" x="403.183832" y="307.584" style="fill: none; stroke: #000000; stroke-width: 0.8"/>
    </g>
    <g>
     <use xlink:href="#mf4a3e5adbd" x="409.273028" y="307.584" style="fill: none; stroke: #000000; stroke-width: 0.8"/>
    </g>
    <g id="patch_3">
     <path d="M 57.6 307.584 
L 414.72 307.584 
L 423.601966 307.584 
" style="fill: none; stroke: #000000; stroke-linecap: round"/>
     <path d="M 419.601966 305.584 
L 423.601966 307.584 
L 419.601966 309.584 
z
" style="stroke: #000000; stroke-linecap: round"/>
    </g>
    <g id="text_5">
     <!-- F (MHz) -->
     <g transform="translate(217.095156 331.2465) scale(0.1 -0.1)">
      <defs>
       <path id="DejaVuSans-46" d="M 628 4666 
L 3309 4666 
L 3309 4134 
L 1259 4134 
L 1259 2759 
L 3109 2759 
L 3109 2228 
L 1259 2228 
L 1259 0 
L 628 0 
L 628 4666 
z
" transform="scale(0.015625)"/>
       <path id="DejaVuSans-20" transform="scale(0.015625)"/>
       <path id="DejaVuSans-28" d="M 1984 4856 
Q 1566 4138 1362 3434 
Q 1159 2731 1159 2009 
Q 1159 1288 1364 580 
Q 1569 -128 1984 -844 
L 1484 -844 
Q 1016 -109 783 600 
Q 550 1309 550 2009 
Q 550 2706 781 3412 
Q 1013 4119 1484 4856 
L 1984 4856 
z
" transform="scale(0.015625)"/>
       <path id="DejaVuSans-4d" d="M 628 4666 
L 1569 4666 
L 2759 1491 
L 3956 4666 
L 4897 4666 
L 4897 0 
L 4281 0 
L 4281 4097 
L 3078 897 
L 2444 897 
L 1241 4097 
L 1241 0 
L 628 0 
L 628 4666 
z
" transform="scale(0.015625)"/>
       <path id="DejaVuSans-48" d="M 628 4666 
L 1259 4666 
L 1259 2753 
L 3553 2753 
L 3553 4666 
L 4184 4666 
L 4184 0 
L 3553 0 
L 3553 2222 
L 1259 2222 
L 1259 0 
L 628 0 
L 628 4666 
z
" transform="scale(0.015625)"/>
       <path id="DejaVuSans-7a" d="M 353 3500 
L 3084 3500 
L 3084 2975 
L 922 459 
L 3084 459 
L 3084 0 
L 275 0 
L 275 525 
L 2438 3041 
L 353 3041 
L 353 3500 
z
" transform="scale(0.015625)"/>
       <path id="DejaVuSans-29" d="M 513 4856 
L 1013 4856 
Q 1481 4119 1714 3412 
Q 1947 2706 1947 2009 
Q 1947 1309 1714 600 
Q 1481 -109 1013 -844 
L 513 -844 
Q 928 -128 1133 580 
Q 1338 1288 1338 2009 
Q 1338 2731 1133 3434 
Q 928 4138 513 4856 
z
" transform="scale(0.015625)"/>
      </defs>
      <use xlink:href="#DejaVuSans-46"/>
      <use xlink:href="#DejaVuSans-20" x="57.519531"/>
      <use xlink:href="#DejaVuSans-28" x="89.306641"/>
      <use xlink:href="#DejaVuSans-4d" x="128.320312"/>
      <use xlink:href="#DejaVuSans-48" x="214.599609"/>
      <use xlink:href="#DejaVuSans-7a" x="289.794922"/>
      <use xlink:href="#DejaVuSans-29" x="342.285156"/>
     </g>
    </g>
   </g>
   <g id="mpl_toolkits.axisartist.axis_artist_2">
    <defs>
     <path id="mf4e7406565" d="M 0 0 
L 3.5 0 
" style="stroke: #000000; stroke-width: 0.8"/>
    </defs>
    <g>
     <use xlink:href="#mf4e7406565" x="57.6" y="307.584" style="fill: none; stroke: #000000; stroke-width: 0.8"/>
    </g>
    <g>
     <use xlink:href="#mf4e7406565" x="57.6" y="254.3616" style="fill: none; stroke: #000000; stroke-width: 0.8"/>
    </g>
    <g>
     <use xlink:href="#mf4e7406565" x="57.6" y="201.1392" style="fill: none; stroke: #000000; stroke-width: 0.8"/>
    </g>
    <g>
     <use xlink:href="#mf4e7406565" x="57.6" y="147.9168" style="fill: none; stroke: #000000; stroke-width: 0.8"/>
    </g>
    <g>
     <use xlink:href="#mf4e7406565" x="57.6" y="94.6944" style="fill: none; stroke: #000000; stroke-width: 0.8"/>
    </g>
    <g>
     <use xlink:href="#mf4e7406565" x="57.6" y="41.472" style="fill: none; stroke: #000000; stroke-width: 0.8"/>
    </g>
    <g id="text_6">
     <!-- 0.0 -->
     <g transform="translate(38.196875 310.343375) scale(0.1 -0.1)">
      <defs>
       <path id="DejaVuSans-2e" d="M 684 794 
L 1344 794 
L 1344 0 
L 684 0 
L 684 794 
z
" transform="scale(0.015625)"/>
      </defs>
      <use xlink:href="#DejaVuSans-30"/>
      <use xlink:href="#DejaVuSans-2e" x="63.623047"/>
      <use xlink:href="#DejaVuSans-30" x="95.410156"/>
     </g>
    </g>
    <g id="text_7">
     <!-- 0.2 -->
     <g transform="translate(38.196875 257.120975) scale(0.1 -0.1)">
      <defs>
       <path id="DejaVuSans-32" d="M 1228 531 
L 3431 531 
L 3431 0 
L 469 0 
L 469 531 
Q 828 903 1448 1529 
Q 2069 2156 2228 2338 
Q 2531 2678 2651 2914 
Q 2772 3150 2772 3378 
Q 2772 3750 2511 3984 
Q 2250 4219 1831 4219 
Q 1534 4219 1204 4116 
Q 875 4013 500 3803 
L 500 4441 
Q 881 4594 1212 4672 
Q 1544 4750 1819 4750 
Q 2544 4750 2975 4387 
Q 3406 4025 3406 3419 
Q 3406 3131 3298 2873 
Q 3191 2616 2906 2266 
Q 2828 2175 2409 1742 
Q 1991 1309 1228 531 
z
" transform="scale(0.015625)"/>
      </defs>
      <use xlink:href="#DejaVuSans-30"/>
      <use xlink:href="#DejaVuSans-2e" x="63.623047"/>
      <use xlink:href="#DejaVuSans-32" x="95.410156"/>
     </g>
    </g>
    <g id="text_8">
     <!-- 0.4 -->
     <g transform="translate(38.196875 203.898575) scale(0.1 -0.1)">
      <defs>
       <path id="DejaVuSans-34" d="M 2419 4116 
L 825 1625 
L 2419 1625 
L 2419 4116 
z
M 2253 4666 
L 3047 4666 
L 3047 1625 
L 3713 1625 
L 3713 1100 
L 3047 1100 
L 3047 0 
L 2419 0 
L 2419 1100 
L 313 1100 
L 313 1709 
L 2253 4666 
z
" transform="scale(0.015625)"/>
      </defs>
      <use xlink:href="#DejaVuSans-30"/>
      <use xlink:href="#DejaVuSans-2e" x="63.623047"/>
      <use xlink:href="#DejaVuSans-34" x="95.410156"/>
     </g>
    </g>
    <g id="text_9">
     <!-- 0.6 -->
     <g transform="translate(38.196875 150.676175) scale(0.1 -0.1)">
      <defs>
       <path id="DejaVuSans-36" d="M 2113 2584 
Q 1688 2584 1439 2293 
Q 1191 2003 1191 1497 
Q 1191 994 1439 701 
Q 1688 409 2113 409 
Q 2538 409 2786 701 
Q 3034 994 3034 1497 
Q 3034 2003 2786 2293 
Q 2538 2584 2113 2584 
z
M 3366 4563 
L 3366 3988 
Q 3128 4100 2886 4159 
Q 2644 4219 2406 4219 
Q 1781 4219 1451 3797 
Q 1122 3375 1075 2522 
Q 1259 2794 1537 2939 
Q 1816 3084 2150 3084 
Q 2853 3084 3261 2657 
Q 3669 2231 3669 1497 
Q 3669 778 3244 343 
Q 2819 -91 2113 -91 
Q 1303 -91 875 529 
Q 447 1150 447 2328 
Q 447 3434 972 4092 
Q 1497 4750 2381 4750 
Q 2619 4750 2861 4703 
Q 3103 4656 3366 4563 
z
" transform="scale(0.015625)"/>
      </defs>
      <use xlink:href="#DejaVuSans-30"/>
      <use xlink:href="#DejaVuSans-2e" x="63.623047"/>
      <use xlink:href="#DejaVuSans-36" x="95.410156"/>
     </g>
    </g>
    <g id="text_10">
     <!-- 0.8 -->
     <g transform="translate(38.196875 97.453775) scale(0.1 -0.1)">
      <defs>
       <path id="DejaVuSans-38" d="M 2034 2216 
Q 1584 2216 1326 1975 
Q 1069 1734 1069 1313 
Q 1069 891 1326 650 
Q 1584 409 2034 409 
Q 2484 409 2743 651 
Q 3003 894 3003 1313 
Q 3003 1734 2745 1975 
Q 2488 2216 2034 2216 
z
M 1403 2484 
Q 997 2584 770 2862 
Q 544 3141 544 3541 
Q 544 4100 942 4425 
Q 1341 4750 2034 4750 
Q 2731 4750 3128 4425 
Q 3525 4100 3525 3541 
Q 3525 3141 3298 2862 
Q 3072 2584 2669 2484 
Q 3125 2378 3379 2068 
Q 3634 1759 3634 1313 
Q 3634 634 3220 271 
Q 2806 -91 2034 -91 
Q 1263 -91 848 271 
Q 434 634 434 1313 
Q 434 1759 690 2068 
Q 947 2378 1403 2484 
z
M 1172 3481 
Q 1172 3119 1398 2916 
Q 1625 2713 2034 2713 
Q 2441 2713 2670 2916 
Q 2900 3119 2900 3481 
Q 2900 3844 2670 4047 
Q 2441 4250 2034 4250 
Q 1625 4250 1398 4047 
Q 1172 3844 1172 3481 
z
" transform="scale(0.015625)"/>
      </defs>
      <use xlink:href="#DejaVuSans-30"/>
      <use xlink:href="#DejaVuSans-2e" x="63.623047"/>
      <use xlink:href="#DejaVuSans-38" x="95.410156"/>
     </g>
    </g>
    <g id="text_11">
     <!-- 1.0 -->
     <g transform="translate(38.196875 44.231375) scale(0.1 -0.1)">
      <use xlink:href="#DejaVuSans-31"/>
      <use xlink:href="#DejaVuSans-2e" x="63.623047"/>
      <use xlink:href="#DejaVuSans-30" x="95.410156"/>
     </g>
    </g>
    <g id="patch_4">
     <path d="M 57.6 307.584 
L 57.6 41.472 
L 57.6 32.590034 
" style="fill: none; stroke: #000000; stroke-linecap: round"/>
     <path d="M 55.6 36.590034 
L 57.6 32.590034 
L 59.6 36.590034 
z
" style="stroke: #000000; stroke-linecap: round"/>
    </g>
    <g id="text_12">
     <!-- Y (dB/m) -->
     <g transform="translate(31.117187 196.231906) rotate(-90) scale(0.1 -0.1)">
      <defs>
       <path id="DejaVuSans-59" d="M -13 4666 
L 666 4666 
L 1959 2747 
L 3244 4666 
L 3922 4666 
L 2272 2222 
L 2272 0 
L 1638 0 
L 1638 2222 
L -13 4666 
z
" transform="scale(0.015625)"/>
       <path id="DejaVuSans-64" d="M 2906 2969 
L 2906 4863 
L 3481 4863 
L 3481 0 
L 2906 0 
L 2906 525 
Q 2725 213 2448 61 
Q 2172 -91 1784 -91 
Q 1150 -91 751 415 
Q 353 922 353 1747 
Q 353 2572 751 3078 
Q 1150 3584 1784 3584 
Q 2172 3584 2448 3432 
Q 2725 3281 2906 2969 
z
M 947 1747 
Q 947 1113 1208 752 
Q 1469 391 1925 391 
Q 2381 391 2643 752 
Q 2906 1113 2906 1747 
Q 2906 2381 2643 2742 
Q 2381 3103 1925 3103 
Q 1469 3103 1208 2742 
Q 947 2381 947 1747 
z
" transform="scale(0.015625)"/>
       <path id="DejaVuSans-42" d="M 1259 2228 
L 1259 519 
L 2272 519 
Q 2781 519 3026 730 
Q 3272 941 3272 1375 
Q 3272 1813 3026 2020 
Q 2781 2228 2272 2228 
L 1259 2228 
z
M 1259 4147 
L 1259 2741 
L 2194 2741 
Q 2656 2741 2882 2914 
Q 3109 3088 3109 3444 
Q 3109 3797 2882 3972 
Q 2656 4147 2194 4147 
L 1259 4147 
z
M 628 4666 
L 2241 4666 
Q 2963 4666 3353 4366 
Q 3744 4066 3744 3513 
Q 3744 3084 3544 2831 
Q 3344 2578 2956 2516 
Q 3422 2416 3680 2098 
Q 3938 1781 3938 1306 
Q 3938 681 3513 340 
Q 3088 0 2303 0 
L 628 0 
L 628 4666 
z
" transform="scale(0.015625)"/>
       <path id="DejaVuSans-2f" d="M 1625 4666 
L 2156 4666 
L 531 -594 
L 0 -594 
L 1625 4666 
z
" transform="scale(0.015625)"/>
       <path id="DejaVuSans-6d" d="M 3328 2828 
Q 3544 3216 3844 3400 
Q 4144 3584 4550 3584 
Q 5097 3584 5394 3201 
Q 5691 2819 5691 2113 
L 5691 0 
L 5113 0 
L 5113 2094 
Q 5113 2597 4934 2840 
Q 4756 3084 4391 3084 
Q 3944 3084 3684 2787 
Q 3425 2491 3425 1978 
L 3425 0 
L 2847 0 
L 2847 2094 
Q 2847 2600 2669 2842 
Q 2491 3084 2119 3084 
Q 1678 3084 1418 2786 
Q 1159 2488 1159 1978 
L 1159 0 
L 581 0 
L 581 3500 
L 1159 3500 
L 1159 2956 
Q 1356 3278 1631 3431 
Q 1906 3584 2284 3584 
Q 2666 3584 2933 3390 
Q 3200 3197 3328 2828 
z
" transform="scale(0.015625)"/>
      </defs>
      <use xlink:href="#DejaVuSans-59"/>
      <use xlink:href="#DejaVuSans-20" x="61.083984"/>
      <use xlink:href="#DejaVuSans-28" x="92.871094"/>
      <use xlink:href="#DejaVuSans-64" x="131.884766"/>
      <use xlink:href="#DejaVuSans-42" x="195.361328"/>
      <use xlink:href="#DejaVuSans-2f" x="263.964844"/>
      <use xlink:href="#DejaVuSans-6d" x="297.65625"/>
      <use xlink:href="#DejaVuSans-29" x="395.068359"/>
     </g>
    </g>
   </g>
   <g id="text_13">
    <!-- (1) -->
    <g style="fill: #808080" transform="translate(303.763153 245.471) scale(0.16 -0.16)">
     <defs>
      <path id="DejaVuSans-Bold-28" d="M 2413 -844 
L 1484 -844 
Q 1006 -72 778 623 
Q 550 1319 550 2003 
Q 550 2688 779 3389 
Q 1009 4091 1484 4856 
L 2413 4856 
Q 2013 4116 1813 3408 
Q 1613 2700 1613 2009 
Q 1613 1319 1811 609 
Q 2009 -100 2413 -844 
z
" transform="scale(0.015625)"/>
      <path id="DejaVuSans-Bold-31" d="M 750 831 
L 1813 831 
L 1813 3847 
L 722 3622 
L 722 4441 
L 1806 4666 
L 2950 4666 
L 2950 831 
L 4013 831 
L 4013 0 
L 750 0 
L 750 831 
z
" transform="scale(0.015625)"/>
      <path id="DejaVuSans-Bold-29" d="M 513 -844 
Q 913 -100 1113 609 
Q 1313 1319 1313 2009 
Q 1313 2700 1113 3408 
Q 913 4116 513 4856 
L 1441 4856 
Q 1916 4091 2145 3389 
Q 2375 2688 2375 2003 
Q 2375 1319 2147 623 
Q 1919 -72 1441 -844 
L 513 -844 
z
" transform="scale(0.015625)"/>
     </defs>
     <use xlink:href="#DejaVuSans-Bold-28"/>
     <use xlink:href="#DejaVuSans-Bold-31" x="45.703125"/>
     <use xlink:href="#DejaVuSans-Bold-29" x="115.283203"/>
    </g>
   </g>
   <g id="text_14">
    <!-- (2) -->
    <g style="fill: #808080" transform="translate(246.966639 205.5542) scale(0.16 -0.16)">
     <defs>
      <path id="DejaVuSans-Bold-32" d="M 1844 884 
L 3897 884 
L 3897 0 
L 506 0 
L 506 884 
L 2209 2388 
Q 2438 2594 2547 2791 
Q 2656 2988 2656 3200 
Q 2656 3528 2436 3728 
Q 2216 3928 1850 3928 
Q 1569 3928 1234 3808 
Q 900 3688 519 3450 
L 519 4475 
Q 925 4609 1322 4679 
Q 1719 4750 2100 4750 
Q 2938 4750 3402 4381 
Q 3866 4013 3866 3353 
Q 3866 2972 3669 2642 
Q 3472 2313 2841 1759 
L 1844 884 
z
" transform="scale(0.015625)"/>
     </defs>
     <use xlink:href="#DejaVuSans-Bold-28"/>
     <use xlink:href="#DejaVuSans-Bold-32" x="45.703125"/>
     <use xlink:href="#DejaVuSans-Bold-29" x="115.283203"/>
    </g>
   </g>
  </g>
 </g>
 <defs>
  <clipPath id="p82e355a01e">
   <rect x="57.6" y="41.472" width="357.12" height="266.112"/>
  </clipPath>
 </defs>
</svg>
