<?xml version="1.0" encoding="utf-8" standalone="no"?>
<!DOCTYPE svg PUBLIC "-//W3C//DTD SVG 1.1//EN"
  "http://www.w3.org/Graphics/SVG/1.1/DTD/svg11.dtd">
<svg xmlns:xlink="http://www.w3.org/1999/xlink" width="460.8pt" height="345.6pt" viewBox="0 0 460.8 345.6" xmlns="http://www.w3.org/2000/svg" version="1.1">
 <metadata>
  <rdf:RDF xmlns:dc="http://purl.org/dc/elements/1.1/" xmlns:cc="http://creativecommons.org/ns#" xmlns:rdf="http://www.w3.org/1999/02/22-rdf-syntax-ns#">
   <cc:Work>
    <dc:type rdf:resource="http://purl.org/dc/dcmitype/StillImage"/>
    <dc:date>2023-11-27T15:43:26.180580</dc:date>
    <dc:format>image/svg+xml</dc:format>
    <dc:creator>
     <cc:Agent>
      <dc:title>Matplotlib v3.7.1, https://matplotlib.org/</dc:title>
     </cc:Agent>
    </dc:creator>
   </cc:Work>
  </rdf:RDF>
 </metadata>
 <defs>
  <style type="text/css">*{stroke-linejoin: round; stroke-linecap: butt}</style>
 </defs>
 <g id="figure_1">
  <g id="patch_1">
   <path d="M 0 345.6 
L 460.8 345.6 
L 460.8 0 
L 0 0 
z
" style="fill: #ffffff"/>
  </g>
  <g id="axes_1">
   <g id="patch_2">
    <path d="M 57.6 307.584 
L 414.72 307.584 
L 414.72 41.472 
L 57.6 41.472 
z
" style="fill: #ffffff"/>
   </g>
   <g id="GridlinesCollection_1">
    <path d="M 236.16 307.584 
L 236.16 41.472 
" clip-path="url(#p7d2cf48adb)" style="fill: none; stroke: #b0b0b0; stroke-width: 0.8"/>
    <path d="M 57.6 307.584 
L 414.72 307.584 
" clip-path="url(#p7d2cf48adb)" style="fill: none; stroke: #b0b0b0; stroke-width: 0.8"/>
    <path d="M 57.6 241.056 
L 414.72 241.056 
" clip-path="url(#p7d2cf48adb)" style="fill: none; stroke: #b0b0b0; stroke-width: 0.8"/>
    <path d="M 57.6 174.528 
L 414.72 174.528 
" clip-path="url(#p7d2cf48adb)" style="fill: none; stroke: #b0b0b0; stroke-width: 0.8"/>
    <path d="M 57.6 108 
L 414.72 108 
" clip-path="url(#p7d2cf48adb)" style="fill: none; stroke: #b0b0b0; stroke-width: 0.8"/>
    <path d="M 57.6 41.472 
L 414.72 41.472 
" clip-path="url(#p7d2cf48adb)" style="fill: none; stroke: #b0b0b0; stroke-width: 0.8"/>
    <path clip-path="url(#p7d2cf48adb)" style="fill: none; stroke: #b0b0b0; stroke-width: 0.8"/>
    <path d="M 57.6 342.370077 
L 414.72 342.370077 
" clip-path="url(#p7d2cf48adb)" style="fill: none; stroke: #b0b0b0; stroke-width: 0.8"/>
    <path d="M 57.6 334.058153 
L 414.72 334.058153 
" clip-path="url(#p7d2cf48adb)" style="fill: none; stroke: #b0b0b0; stroke-width: 0.8"/>
    <path d="M 57.6 327.610924 
L 414.72 327.610924 
" clip-path="url(#p7d2cf48adb)" style="fill: none; stroke: #b0b0b0; stroke-width: 0.8"/>
    <path d="M 57.6 322.343154 
L 414.72 322.343154 
" clip-path="url(#p7d2cf48adb)" style="fill: none; stroke: #b0b0b0; stroke-width: 0.8"/>
    <path d="M 57.6 317.889318 
L 414.72 317.889318 
" clip-path="url(#p7d2cf48adb)" style="fill: none; stroke: #b0b0b0; stroke-width: 0.8"/>
    <path d="M 57.6 314.031229 
L 414.72 314.031229 
" clip-path="url(#p7d2cf48adb)" style="fill: none; stroke: #b0b0b0; stroke-width: 0.8"/>
    <path d="M 57.6 310.628154 
L 414.72 310.628154 
" clip-path="url(#p7d2cf48adb)" style="fill: none; stroke: #b0b0b0; stroke-width: 0.8"/>
    <path d="M 57.6 287.557076 
L 414.72 287.557076 
" clip-path="url(#p7d2cf48adb)" style="fill: none; stroke: #b0b0b0; stroke-width: 0.8"/>
    <path d="M 57.6 275.842077 
L 414.72 275.842077 
" clip-path="url(#p7d2cf48adb)" style="fill: none; stroke: #b0b0b0; stroke-width: 0.8"/>
    <path d="M 57.6 267.530153 
L 414.72 267.530153 
" clip-path="url(#p7d2cf48adb)" style="fill: none; stroke: #b0b0b0; stroke-width: 0.8"/>
    <path d="M 57.6 261.082924 
L 414.72 261.082924 
" clip-path="url(#p7d2cf48adb)" style="fill: none; stroke: #b0b0b0; stroke-width: 0.8"/>
    <path d="M 57.6 255.815154 
L 414.72 255.815154 
" clip-path="url(#p7d2cf48adb)" style="fill: none; stroke: #b0b0b0; stroke-width: 0.8"/>
    <path d="M 57.6 251.361318 
L 414.72 251.361318 
" clip-path="url(#p7d2cf48adb)" style="fill: none; stroke: #b0b0b0; stroke-width: 0.8"/>
    <path d="M 57.6 247.503229 
L 414.72 247.503229 
" clip-path="url(#p7d2cf48adb)" style="fill: none; stroke: #b0b0b0; stroke-width: 0.8"/>
    <path d="M 57.6 244.100154 
L 414.72 244.100154 
" clip-path="url(#p7d2cf48adb)" style="fill: none; stroke: #b0b0b0; stroke-width: 0.8"/>
    <path d="M 57.6 221.029076 
L 414.72 221.029076 
" clip-path="url(#p7d2cf48adb)" style="fill: none; stroke: #b0b0b0; stroke-width: 0.8"/>
    <path d="M 57.6 209.314077 
L 414.72 209.314077 
" clip-path="url(#p7d2cf48adb)" style="fill: none; stroke: #b0b0b0; stroke-width: 0.8"/>
    <path d="M 57.6 201.002153 
L 414.72 201.002153 
" clip-path="url(#p7d2cf48adb)" style="fill: none; stroke: #b0b0b0; stroke-width: 0.8"/>
    <path d="M 57.6 194.554924 
L 414.72 194.554924 
" clip-path="url(#p7d2cf48adb)" style="fill: none; stroke: #b0b0b0; stroke-width: 0.8"/>
    <path d="M 57.6 189.287154 
L 414.72 189.287154 
" clip-path="url(#p7d2cf48adb)" style="fill: none; stroke: #b0b0b0; stroke-width: 0.8"/>
    <path d="M 57.6 184.833318 
L 414.72 184.833318 
" clip-path="url(#p7d2cf48adb)" style="fill: none; stroke: #b0b0b0; stroke-width: 0.8"/>
    <path d="M 57.6 180.975229 
L 414.72 180.975229 
" clip-path="url(#p7d2cf48adb)" style="fill: none; stroke: #b0b0b0; stroke-width: 0.8"/>
    <path d="M 57.6 177.572154 
L 414.72 177.572154 
" clip-path="url(#p7d2cf48adb)" style="fill: none; stroke: #b0b0b0; stroke-width: 0.8"/>
    <path d="M 57.6 154.501076 
L 414.72 154.501076 
" clip-path="url(#p7d2cf48adb)" style="fill: none; stroke: #b0b0b0; stroke-width: 0.8"/>
    <path d="M 57.6 142.786077 
L 414.72 142.786077 
" clip-path="url(#p7d2cf48adb)" style="fill: none; stroke: #b0b0b0; stroke-width: 0.8"/>
    <path d="M 57.6 134.474153 
L 414.72 134.474153 
" clip-path="url(#p7d2cf48adb)" style="fill: none; stroke: #b0b0b0; stroke-width: 0.8"/>
    <path d="M 57.6 128.026924 
L 414.72 128.026924 
" clip-path="url(#p7d2cf48adb)" style="fill: none; stroke: #b0b0b0; stroke-width: 0.8"/>
    <path d="M 57.6 122.759154 
L 414.72 122.759154 
" clip-path="url(#p7d2cf48adb)" style="fill: none; stroke: #b0b0b0; stroke-width: 0.8"/>
    <path d="M 57.6 118.305318 
L 414.72 118.305318 
" clip-path="url(#p7d2cf48adb)" style="fill: none; stroke: #b0b0b0; stroke-width: 0.8"/>
    <path d="M 57.6 114.447229 
L 414.72 114.447229 
" clip-path="url(#p7d2cf48adb)" style="fill: none; stroke: #b0b0b0; stroke-width: 0.8"/>
    <path d="M 57.6 111.044154 
L 414.72 111.044154 
" clip-path="url(#p7d2cf48adb)" style="fill: none; stroke: #b0b0b0; stroke-width: 0.8"/>
    <path d="M 57.6 87.973076 
L 414.72 87.973076 
" clip-path="url(#p7d2cf48adb)" style="fill: none; stroke: #b0b0b0; stroke-width: 0.8"/>
    <path d="M 57.6 76.258077 
L 414.72 76.258077 
" clip-path="url(#p7d2cf48adb)" style="fill: none; stroke: #b0b0b0; stroke-width: 0.8"/>
    <path d="M 57.6 67.946153 
L 414.72 67.946153 
" clip-path="url(#p7d2cf48adb)" style="fill: none; stroke: #b0b0b0; stroke-width: 0.8"/>
    <path d="M 57.6 61.498924 
L 414.72 61.498924 
" clip-path="url(#p7d2cf48adb)" style="fill: none; stroke: #b0b0b0; stroke-width: 0.8"/>
    <path d="M 57.6 56.231154 
L 414.72 56.231154 
" clip-path="url(#p7d2cf48adb)" style="fill: none; stroke: #b0b0b0; stroke-width: 0.8"/>
    <path d="M 57.6 51.777318 
L 414.72 51.777318 
" clip-path="url(#p7d2cf48adb)" style="fill: none; stroke: #b0b0b0; stroke-width: 0.8"/>
    <path d="M 57.6 47.919229 
L 414.72 47.919229 
" clip-path="url(#p7d2cf48adb)" style="fill: none; stroke: #b0b0b0; stroke-width: 0.8"/>
    <path d="M 57.6 44.516154 
L 414.72 44.516154 
" clip-path="url(#p7d2cf48adb)" style="fill: none; stroke: #b0b0b0; stroke-width: 0.8"/>
    <path d="M 57.6 21.445076 
L 414.72 21.445076 
" clip-path="url(#p7d2cf48adb)" style="fill: none; stroke: #b0b0b0; stroke-width: 0.8"/>
    <path d="M 57.6 9.730077 
L 414.72 9.730077 
" clip-path="url(#p7d2cf48adb)" style="fill: none; stroke: #b0b0b0; stroke-width: 0.8"/>
    <path d="M 57.6 1.418153 
L 414.72 1.418153 
" clip-path="url(#p7d2cf48adb)" style="fill: none; stroke: #b0b0b0; stroke-width: 0.8"/>
    <path clip-path="url(#p7d2cf48adb)" style="fill: none; stroke: #b0b0b0; stroke-width: 0.8"/>
    <path clip-path="url(#p7d2cf48adb)" style="fill: none; stroke: #b0b0b0; stroke-width: 0.8"/>
    <path clip-path="url(#p7d2cf48adb)" style="fill: none; stroke: #b0b0b0; stroke-width: 0.8"/>
    <path clip-path="url(#p7d2cf48adb)" style="fill: none; stroke: #b0b0b0; stroke-width: 0.8"/>
    <path clip-path="url(#p7d2cf48adb)" style="fill: none; stroke: #b0b0b0; stroke-width: 0.8"/>
    <path clip-path="url(#p7d2cf48adb)" style="fill: none; stroke: #b0b0b0; stroke-width: 0.8"/>
    <path clip-path="url(#p7d2cf48adb)" style="fill: none; stroke: #b0b0b0; stroke-width: 0.8"/>
    <path clip-path="url(#p7d2cf48adb)" style="fill: none; stroke: #b0b0b0; stroke-width: 0.8"/>
    <path clip-path="url(#p7d2cf48adb)" style="fill: none; stroke: #b0b0b0; stroke-width: 0.8"/>
    <path clip-path="url(#p7d2cf48adb)" style="fill: none; stroke: #b0b0b0; stroke-width: 0.8"/>
    <path clip-path="url(#p7d2cf48adb)" style="fill: none; stroke: #b0b0b0; stroke-width: 0.8"/>
    <path clip-path="url(#p7d2cf48adb)" style="fill: none; stroke: #b0b0b0; stroke-width: 0.8"/>
    <path clip-path="url(#p7d2cf48adb)" style="fill: none; stroke: #b0b0b0; stroke-width: 0.8"/>
   </g>
   <g id="line2d_1">
    <path d="M 146.88 241.056 
L 325.44 241.056 
" clip-path="url(#p7d2cf48adb)" style="fill: none; stroke: #0000ff; stroke-width: 1.5; stroke-linecap: square"/>
   </g>
   <g id="line2d_2">
    <path d="M 146.88 108 
L 325.44 108 
" clip-path="url(#p7d2cf48adb)" style="fill: none; stroke: #0000ff; stroke-width: 1.5; stroke-linecap: square"/>
   </g>
   <g id="mpl_toolkits.axisartist.axis_artist_1">
    <defs>
     <path id="m9589758ecf" d="M 0 0 
L 0 -3.5 
" style="stroke: #000000; stroke-width: 0.8"/>
    </defs>
    <g>
     <use xlink:href="#m9589758ecf" x="236.16" y="307.584" style="fill: none; stroke: #000000; stroke-width: 0.8"/>
    </g>
    <g id="text_1">
     <!-- 0 -->
     <g transform="translate(233.39125 317.82775) scale(0.1 -0.1)">
      <defs>
       <path id="Cambria-30" d="M 1738 -50 
Q 1063 -50 733 481 
Q 403 1013 403 2094 
Q 403 2669 504 3087 
Q 606 3506 789 3779 
Q 972 4053 1228 4184 
Q 1484 4316 1788 4316 
Q 2472 4316 2806 3787 
Q 3141 3259 3141 2191 
Q 3141 1084 2783 517 
Q 2425 -50 1738 -50 
z
M 1013 2188 
Q 1013 1169 1202 692 
Q 1391 216 1788 216 
Q 2166 216 2348 664 
Q 2531 1113 2531 2053 
Q 2531 2772 2437 3217 
Q 2344 3663 2176 3856 
Q 2009 4050 1772 4050 
Q 1556 4050 1411 3922 
Q 1266 3794 1177 3553 
Q 1088 3313 1050 2967 
Q 1013 2622 1013 2188 
z
" transform="scale(0.015625)"/>
      </defs>
      <use xlink:href="#Cambria-30"/>
     </g>
    </g>
    <g id="patch_3">
     <path d="M 57.6 307.584 
L 414.72 307.584 
L 423.601966 307.584 
" style="fill: none; stroke: #000000; stroke-linecap: round"/>
     <path d="M 419.601966 305.584 
L 423.601966 307.584 
L 419.601966 309.584 
z
" style="stroke: #000000; stroke-linecap: round"/>
    </g>
    <g id="text_2">
     <!-- F (MHz) -->
     <g transform="translate(218.774844 329.912125) scale(0.1 -0.1)">
      <defs>
       <path id="Cambria-46" d="M 3228 4266 
L 3228 3322 
L 2922 3322 
Q 2853 3534 2789 3665 
Q 2725 3797 2654 3865 
Q 2584 3934 2490 3962 
Q 2397 3991 2244 3991 
L 1328 3991 
L 1328 2291 
L 1972 2291 
Q 2109 2291 2187 2336 
Q 2266 2381 2317 2487 
Q 2369 2594 2416 2816 
L 2709 2816 
L 2709 1497 
L 2416 1497 
Q 2369 1709 2316 1817 
Q 2263 1925 2189 1970 
Q 2116 2016 1972 2016 
L 1328 2016 
L 1328 791 
Q 1328 603 1350 490 
Q 1372 378 1422 312 
Q 1472 247 1556 214 
Q 1641 181 1766 153 
L 1766 0 
L 378 0 
L 378 153 
Q 572 203 637 264 
Q 703 325 723 437 
Q 744 550 744 781 
L 744 3484 
Q 744 3700 728 3798 
Q 713 3897 677 3951 
Q 641 4006 581 4039 
Q 522 4072 378 4113 
L 378 4266 
L 3228 4266 
z
" transform="scale(0.015625)"/>
       <path id="Cambria-20" transform="scale(0.015625)"/>
       <path id="Cambria-28" d="M 2309 -1359 
Q 1778 -1359 1442 -1200 
Q 1106 -1041 918 -714 
Q 731 -388 647 134 
Q 563 656 563 1550 
Q 563 2438 645 2964 
Q 728 3491 915 3822 
Q 1103 4153 1440 4318 
Q 1778 4484 2309 4484 
L 2309 4228 
Q 2091 4228 1922 4191 
Q 1731 4147 1597 4022 
Q 1447 3884 1353 3638 
Q 1244 3350 1191 2875 
Q 1134 2372 1134 1575 
Q 1134 872 1181 379 
Q 1228 -113 1338 -425 
Q 1425 -688 1556 -834 
Q 1672 -963 1831 -1028 
Q 2016 -1103 2309 -1103 
L 2309 -1359 
z
" transform="scale(0.015625)"/>
       <path id="Cambria-4d" d="M 4841 4113 
Q 4703 4078 4642 4043 
Q 4581 4009 4545 3957 
Q 4509 3906 4492 3803 
Q 4475 3700 4475 3484 
L 4475 781 
Q 4475 572 4489 475 
Q 4503 378 4536 322 
Q 4569 266 4633 228 
Q 4697 191 4841 153 
L 4841 0 
L 3538 0 
L 3538 153 
Q 3716 197 3784 253 
Q 3853 309 3878 418 
Q 3903 528 3903 781 
L 3903 1978 
Q 3903 2450 3917 2933 
Q 3931 3416 3950 3594 
L 3897 3594 
L 2659 497 
L 2300 497 
L 1150 3644 
L 1097 3644 
Q 1113 3453 1127 2953 
Q 1141 2453 1141 1925 
L 1141 781 
Q 1141 572 1155 475 
Q 1169 378 1201 322 
Q 1234 266 1298 228 
Q 1363 191 1506 153 
L 1506 0 
L 366 0 
L 366 153 
Q 559 203 625 264 
Q 691 325 711 437 
Q 731 550 731 781 
L 731 3484 
Q 731 3700 715 3798 
Q 700 3897 664 3951 
Q 628 4006 568 4039 
Q 509 4072 366 4113 
L 366 4266 
L 1481 4266 
L 2578 1225 
L 3784 4266 
L 4841 4266 
L 4841 4113 
z
" transform="scale(0.015625)"/>
       <path id="Cambria-48" d="M 3650 781 
Q 3650 600 3659 509 
Q 3669 419 3691 364 
Q 3713 309 3744 275 
Q 3775 241 3833 212 
Q 3891 184 4013 153 
L 4013 0 
L 2703 0 
L 2703 153 
Q 2875 197 2944 250 
Q 3013 303 3039 412 
Q 3066 522 3066 781 
L 3066 2091 
L 1328 2091 
L 1328 781 
Q 1328 572 1342 475 
Q 1356 378 1389 322 
Q 1422 266 1486 228 
Q 1550 191 1694 153 
L 1694 0 
L 378 0 
L 378 153 
Q 572 203 637 264 
Q 703 325 723 437 
Q 744 550 744 781 
L 744 3484 
Q 744 3700 728 3798 
Q 713 3897 677 3951 
Q 641 4006 581 4039 
Q 522 4072 378 4113 
L 378 4266 
L 1694 4266 
L 1694 4113 
Q 1556 4078 1495 4043 
Q 1434 4009 1398 3957 
Q 1363 3906 1345 3803 
Q 1328 3700 1328 3484 
L 1328 2378 
L 3066 2378 
L 3066 3484 
Q 3066 3756 3039 3856 
Q 3013 3956 2950 4009 
Q 2888 4063 2703 4113 
L 2703 4266 
L 4013 4266 
L 4013 4113 
Q 3838 4069 3769 4014 
Q 3700 3959 3675 3850 
Q 3650 3741 3650 3484 
L 3650 781 
z
" transform="scale(0.015625)"/>
       <path id="Cambria-7a" d="M 2659 906 
L 2659 0 
L 253 0 
L 253 153 
L 1966 2734 
L 1119 2734 
Q 963 2734 872 2678 
Q 781 2622 700 2490 
Q 619 2359 544 2138 
L 272 2138 
L 272 2988 
L 2641 2988 
L 2641 2831 
L 931 253 
L 1753 253 
Q 1916 253 1997 278 
Q 2078 303 2137 358 
Q 2197 413 2253 531 
Q 2309 650 2388 906 
L 2659 906 
z
" transform="scale(0.015625)"/>
       <path id="Cambria-29" d="M 134 4484 
Q 666 4484 1002 4325 
Q 1338 4166 1525 3839 
Q 1713 3513 1797 2991 
Q 1881 2469 1881 1575 
Q 1881 688 1798 161 
Q 1716 -366 1528 -697 
Q 1341 -1028 1003 -1193 
Q 666 -1359 134 -1359 
L 134 -1103 
Q 353 -1103 522 -1066 
Q 713 -1022 847 -897 
Q 997 -759 1091 -513 
Q 1200 -225 1253 250 
Q 1309 753 1309 1550 
Q 1309 2253 1262 2745 
Q 1216 3238 1106 3550 
Q 1019 3813 888 3959 
Q 772 4088 613 4153 
Q 428 4228 134 4228 
L 134 4484 
z
" transform="scale(0.015625)"/>
      </defs>
      <use xlink:href="#Cambria-46"/>
      <use xlink:href="#Cambria-20" x="53.662109"/>
      <use xlink:href="#Cambria-28" x="75.683594"/>
      <use xlink:href="#Cambria-4d" x="113.867188"/>
      <use xlink:href="#Cambria-48" x="195.410156"/>
      <use xlink:href="#Cambria-7a" x="264.0625"/>
      <use xlink:href="#Cambria-29" x="309.521484"/>
     </g>
    </g>
   </g>
   <g id="mpl_toolkits.axisartist.axis_artist_2">
    <defs>
     <path id="mf17e8f371a" d="M 0 0 
L 3.5 0 
" style="stroke: #000000; stroke-width: 0.8"/>
    </defs>
    <g>
     <use xlink:href="#mf17e8f371a" x="57.6" y="307.584" style="fill: none; stroke: #000000; stroke-width: 0.8"/>
    </g>
    <g>
     <use xlink:href="#mf17e8f371a" x="57.6" y="241.056" style="fill: none; stroke: #000000; stroke-width: 0.8"/>
    </g>
    <g>
     <use xlink:href="#mf17e8f371a" x="57.6" y="174.528" style="fill: none; stroke: #000000; stroke-width: 0.8"/>
    </g>
    <g>
     <use xlink:href="#mf17e8f371a" x="57.6" y="108" style="fill: none; stroke: #000000; stroke-width: 0.8"/>
    </g>
    <g>
     <use xlink:href="#mf17e8f371a" x="57.6" y="41.472" style="fill: none; stroke: #000000; stroke-width: 0.8"/>
    </g>
    <g id="text_3">
     <!-- 1 -->
     <g transform="translate(48.5625 310.02775) scale(0.1 -0.1)">
      <defs>
       <path id="Cambria-31" d="M 2172 816 
Q 2172 634 2192 542 
Q 2213 450 2264 392 
Q 2316 334 2412 301 
Q 2509 269 2656 251 
Q 2803 234 3044 228 
L 3044 0 
L 734 0 
L 734 228 
Q 1081 244 1229 270 
Q 1378 297 1456 350 
Q 1534 403 1570 500 
Q 1606 597 1606 816 
L 1606 3350 
Q 1606 3475 1562 3533 
Q 1519 3591 1434 3591 
Q 1334 3591 1150 3487 
Q 966 3384 694 3203 
L 556 3444 
L 2019 4316 
L 2191 4316 
Q 2172 4016 2172 3484 
L 2172 816 
z
" transform="scale(0.015625)"/>
      </defs>
      <use xlink:href="#Cambria-31"/>
     </g>
    </g>
    <g id="text_4">
     <!-- 10 -->
     <g transform="translate(43.025 243.49975) scale(0.1 -0.1)">
      <use xlink:href="#Cambria-31"/>
      <use xlink:href="#Cambria-30" x="55.371094"/>
     </g>
    </g>
    <g id="text_5">
     <!-- 100 -->
     <g transform="translate(37.4875 176.97175) scale(0.1 -0.1)">
      <use xlink:href="#Cambria-31"/>
      <use xlink:href="#Cambria-30" x="55.371094"/>
      <use xlink:href="#Cambria-30" x="110.742188"/>
     </g>
    </g>
    <g id="text_6">
     <!-- 1k -->
     <g transform="translate(43.31875 110.44375) scale(0.1 -0.1)">
      <defs>
       <path id="Cambria-6b" d="M 1138 1741 
L 1238 1741 
Q 1341 1741 1406 1763 
Q 1484 1791 1578 1858 
Q 1672 1925 1844 2084 
Q 1988 2219 2061 2312 
Q 2134 2406 2163 2484 
Q 2188 2550 2188 2616 
Q 2188 2709 2130 2762 
Q 2072 2816 1941 2834 
L 1941 2988 
L 3288 2988 
L 3288 2834 
Q 3144 2806 2981 2706 
Q 2819 2606 2647 2444 
L 1928 1763 
L 2828 588 
Q 2984 381 3111 282 
Q 3238 184 3388 153 
L 3388 0 
L 2188 0 
L 2188 153 
Q 2269 163 2308 189 
Q 2347 216 2347 278 
Q 2347 325 2330 370 
Q 2313 416 2259 494 
Q 2206 572 2066 766 
L 1694 1266 
Q 1588 1406 1542 1450 
Q 1497 1494 1447 1512 
Q 1397 1531 1313 1531 
L 1138 1531 
L 1138 781 
Q 1138 513 1163 408 
Q 1188 303 1258 248 
Q 1328 194 1488 153 
L 1488 0 
L 247 0 
L 247 153 
Q 403 194 464 237 
Q 525 281 551 342 
Q 578 403 589 508 
Q 600 613 600 781 
L 600 3397 
Q 600 3697 595 3815 
Q 591 3934 570 4017 
Q 550 4100 514 4147 
Q 478 4194 417 4222 
Q 356 4250 197 4278 
L 197 4441 
L 950 4472 
L 1138 4472 
L 1138 1741 
z
" transform="scale(0.015625)"/>
      </defs>
      <use xlink:href="#Cambria-31"/>
      <use xlink:href="#Cambria-6b" x="55.371094"/>
     </g>
    </g>
    <g id="text_7">
     <!-- 10k -->
     <g transform="translate(37.78125 43.91575) scale(0.1 -0.1)">
      <use xlink:href="#Cambria-31"/>
      <use xlink:href="#Cambria-30" x="55.371094"/>
      <use xlink:href="#Cambria-6b" x="110.742188"/>
     </g>
    </g>
    <defs>
     <path id="m3b1583c380" d="M 0 0 
L 2 0 
" style="stroke: #000000; stroke-width: 0.8"/>
    </defs>
    <g>
     <use xlink:href="#m3b1583c380" x="57.6" y="287.557076" style="fill: none; stroke: #000000; stroke-width: 0.8"/>
    </g>
    <g>
     <use xlink:href="#m3b1583c380" x="57.6" y="275.842077" style="fill: none; stroke: #000000; stroke-width: 0.8"/>
    </g>
    <g>
     <use xlink:href="#m3b1583c380" x="57.6" y="267.530153" style="fill: none; stroke: #000000; stroke-width: 0.8"/>
    </g>
    <g>
     <use xlink:href="#m3b1583c380" x="57.6" y="261.082924" style="fill: none; stroke: #000000; stroke-width: 0.8"/>
    </g>
    <g>
     <use xlink:href="#m3b1583c380" x="57.6" y="255.815154" style="fill: none; stroke: #000000; stroke-width: 0.8"/>
    </g>
    <g>
     <use xlink:href="#m3b1583c380" x="57.6" y="251.361318" style="fill: none; stroke: #000000; stroke-width: 0.8"/>
    </g>
    <g>
     <use xlink:href="#m3b1583c380" x="57.6" y="247.503229" style="fill: none; stroke: #000000; stroke-width: 0.8"/>
    </g>
    <g>
     <use xlink:href="#m3b1583c380" x="57.6" y="244.100154" style="fill: none; stroke: #000000; stroke-width: 0.8"/>
    </g>
    <g>
     <use xlink:href="#m3b1583c380" x="57.6" y="221.029076" style="fill: none; stroke: #000000; stroke-width: 0.8"/>
    </g>
    <g>
     <use xlink:href="#m3b1583c380" x="57.6" y="209.314077" style="fill: none; stroke: #000000; stroke-width: 0.8"/>
    </g>
    <g>
     <use xlink:href="#m3b1583c380" x="57.6" y="201.002153" style="fill: none; stroke: #000000; stroke-width: 0.8"/>
    </g>
    <g>
     <use xlink:href="#m3b1583c380" x="57.6" y="194.554924" style="fill: none; stroke: #000000; stroke-width: 0.8"/>
    </g>
    <g>
     <use xlink:href="#m3b1583c380" x="57.6" y="189.287154" style="fill: none; stroke: #000000; stroke-width: 0.8"/>
    </g>
    <g>
     <use xlink:href="#m3b1583c380" x="57.6" y="184.833318" style="fill: none; stroke: #000000; stroke-width: 0.8"/>
    </g>
    <g>
     <use xlink:href="#m3b1583c380" x="57.6" y="180.975229" style="fill: none; stroke: #000000; stroke-width: 0.8"/>
    </g>
    <g>
     <use xlink:href="#m3b1583c380" x="57.6" y="177.572154" style="fill: none; stroke: #000000; stroke-width: 0.8"/>
    </g>
    <g>
     <use xlink:href="#m3b1583c380" x="57.6" y="154.501076" style="fill: none; stroke: #000000; stroke-width: 0.8"/>
    </g>
    <g>
     <use xlink:href="#m3b1583c380" x="57.6" y="142.786077" style="fill: none; stroke: #000000; stroke-width: 0.8"/>
    </g>
    <g>
     <use xlink:href="#m3b1583c380" x="57.6" y="134.474153" style="fill: none; stroke: #000000; stroke-width: 0.8"/>
    </g>
    <g>
     <use xlink:href="#m3b1583c380" x="57.6" y="128.026924" style="fill: none; stroke: #000000; stroke-width: 0.8"/>
    </g>
    <g>
     <use xlink:href="#m3b1583c380" x="57.6" y="122.759154" style="fill: none; stroke: #000000; stroke-width: 0.8"/>
    </g>
    <g>
     <use xlink:href="#m3b1583c380" x="57.6" y="118.305318" style="fill: none; stroke: #000000; stroke-width: 0.8"/>
    </g>
    <g>
     <use xlink:href="#m3b1583c380" x="57.6" y="114.447229" style="fill: none; stroke: #000000; stroke-width: 0.8"/>
    </g>
    <g>
     <use xlink:href="#m3b1583c380" x="57.6" y="111.044154" style="fill: none; stroke: #000000; stroke-width: 0.8"/>
    </g>
    <g>
     <use xlink:href="#m3b1583c380" x="57.6" y="87.973076" style="fill: none; stroke: #000000; stroke-width: 0.8"/>
    </g>
    <g>
     <use xlink:href="#m3b1583c380" x="57.6" y="76.258077" style="fill: none; stroke: #000000; stroke-width: 0.8"/>
    </g>
    <g>
     <use xlink:href="#m3b1583c380" x="57.6" y="67.946153" style="fill: none; stroke: #000000; stroke-width: 0.8"/>
    </g>
    <g>
     <use xlink:href="#m3b1583c380" x="57.6" y="61.498924" style="fill: none; stroke: #000000; stroke-width: 0.8"/>
    </g>
    <g>
     <use xlink:href="#m3b1583c380" x="57.6" y="56.231154" style="fill: none; stroke: #000000; stroke-width: 0.8"/>
    </g>
    <g>
     <use xlink:href="#m3b1583c380" x="57.6" y="51.777318" style="fill: none; stroke: #000000; stroke-width: 0.8"/>
    </g>
    <g>
     <use xlink:href="#m3b1583c380" x="57.6" y="47.919229" style="fill: none; stroke: #000000; stroke-width: 0.8"/>
    </g>
    <g>
     <use xlink:href="#m3b1583c380" x="57.6" y="44.516154" style="fill: none; stroke: #000000; stroke-width: 0.8"/>
    </g>
    <g id="patch_4">
     <path d="M 57.6 307.584 
L 57.6 41.472 
L 57.6 32.590034 
" style="fill: none; stroke: #000000; stroke-linecap: round"/>
     <path d="M 55.6 36.590034 
L 57.6 32.590034 
L 59.6 36.590034 
z
" style="stroke: #000000; stroke-linecap: round"/>
    </g>
    <g id="text_8">
     <!-- Y ($\Omega$) -->
     <g transform="translate(30.2875 185.978) rotate(-90) scale(0.1 -0.1)">
      <defs>
       <path id="Cambria-59" d="M 1506 1791 
L 644 3394 
Q 488 3684 406 3809 
Q 325 3934 244 4006 
Q 163 4078 56 4113 
L 56 4266 
L 1388 4266 
L 1388 4113 
Q 1094 4078 1094 3859 
Q 1094 3769 1136 3656 
Q 1178 3544 1288 3338 
L 1913 2147 
L 2528 3234 
Q 2653 3456 2704 3598 
Q 2756 3741 2756 3859 
Q 2756 3972 2689 4036 
Q 2622 4100 2491 4113 
L 2491 4266 
L 3675 4266 
L 3675 4113 
Q 3547 4066 3450 3983 
Q 3353 3900 3253 3759 
Q 3153 3619 2959 3284 
L 2091 1803 
L 2091 791 
Q 2091 613 2109 503 
Q 2128 394 2172 328 
Q 2216 263 2287 225 
Q 2359 188 2513 153 
L 2513 0 
L 1084 0 
L 1084 153 
Q 1234 184 1306 220 
Q 1378 256 1422 323 
Q 1466 391 1486 500 
Q 1506 609 1506 791 
L 1506 1791 
z
" transform="scale(0.015625)"/>
       <path id="DejaVuSans-3a9" d="M 4647 556 
L 4647 0 
L 2772 0 
L 2772 556 
Q 3325 859 3634 1378 
Q 3944 1897 3944 2528 
Q 3944 3278 3531 3731 
Q 3119 4184 2444 4184 
Q 1769 4184 1355 3729 
Q 941 3275 941 2528 
Q 941 1897 1250 1378 
Q 1563 859 2119 556 
L 2119 0 
L 244 0 
L 244 556 
L 1241 556 
Q 747 991 519 1456 
Q 294 1922 294 2497 
Q 294 3491 894 4106 
Q 1491 4722 2444 4722 
Q 3391 4722 3994 4106 
Q 4594 3494 4594 2528 
Q 4594 1922 4372 1459 
Q 4150 997 3647 556 
L 4647 556 
z
" transform="scale(0.015625)"/>
      </defs>
      <use xlink:href="#Cambria-59" transform="translate(0 0.21875)"/>
      <use xlink:href="#Cambria-20" transform="translate(54.15625 0.21875)"/>
      <use xlink:href="#Cambria-28" transform="translate(76.177734 0.21875)"/>
      <use xlink:href="#DejaVuSans-3a9" transform="translate(114.361328 0.21875)"/>
      <use xlink:href="#Cambria-29" transform="translate(190.777344 0.21875)"/>
     </g>
    </g>
   </g>
   <g id="text_9">
    <!-- (1) -->
    <g style="fill: #808080" transform="translate(224.88875 178.43425) scale(0.16 -0.16)">
     <defs>
      <path id="Cambria-Bold-28" d="M 2478 -1359 
Q 1888 -1359 1514 -1200 
Q 1141 -1041 931 -717 
Q 722 -394 626 128 
Q 531 650 531 1550 
Q 531 2456 626 2982 
Q 722 3509 933 3836 
Q 1144 4163 1520 4323 
Q 1897 4484 2478 4484 
L 2478 4141 
Q 2278 4141 2128 4100 
Q 1978 4059 1866 3947 
Q 1731 3813 1653 3566 
Q 1559 3281 1515 2795 
Q 1472 2309 1472 1575 
Q 1472 897 1513 428 
Q 1553 -75 1647 -381 
Q 1725 -634 1841 -775 
Q 1938 -891 2075 -950 
Q 2228 -1016 2478 -1016 
L 2478 -1359 
z
" transform="scale(0.015625)"/>
      <path id="Cambria-Bold-31" d="M 2506 872 
Q 2506 691 2526 598 
Q 2547 506 2598 448 
Q 2650 391 2747 358 
Q 2844 325 2991 308 
Q 3138 291 3378 284 
L 3378 0 
L 681 0 
L 681 284 
Q 1028 300 1176 326 
Q 1325 353 1403 406 
Q 1481 459 1517 556 
Q 1553 653 1553 872 
L 1553 3131 
Q 1553 3259 1504 3315 
Q 1456 3372 1372 3372 
Q 1294 3372 1151 3300 
Q 1009 3228 684 3006 
L 494 3338 
L 2125 4316 
L 2525 4316 
Q 2506 4016 2506 3484 
L 2506 872 
z
" transform="scale(0.015625)"/>
      <path id="Cambria-Bold-29" d="M 134 4484 
Q 716 4484 1089 4328 
Q 1463 4172 1675 3851 
Q 1888 3531 1984 3007 
Q 2081 2484 2081 1575 
Q 2081 669 1986 142 
Q 1891 -384 1680 -711 
Q 1469 -1038 1092 -1198 
Q 716 -1359 134 -1359 
L 134 -1016 
Q 334 -1016 484 -975 
Q 634 -934 747 -822 
Q 881 -688 959 -441 
Q 1053 -156 1097 330 
Q 1141 816 1141 1550 
Q 1141 2228 1100 2697 
Q 1059 3200 966 3506 
Q 888 3759 772 3900 
Q 675 4016 538 4075 
Q 384 4141 134 4141 
L 134 4484 
z
" transform="scale(0.015625)"/>
     </defs>
     <use xlink:href="#Cambria-Bold-28"/>
     <use xlink:href="#Cambria-Bold-31" x="40.820312"/>
     <use xlink:href="#Cambria-Bold-29" x="100.048828"/>
    </g>
   </g>
   <g id="text_10">
    <!-- (2) -->
    <g style="fill: #808080" transform="translate(224.88875 264.989174) scale(0.16 -0.16)">
     <defs>
      <path id="Cambria-Bold-32" d="M 2356 766 
Q 2559 766 2659 795 
Q 2759 825 2817 898 
Q 2875 972 2913 1119 
L 3272 1119 
L 3200 0 
L 338 0 
L 338 206 
Q 469 506 717 859 
Q 966 1213 1322 1631 
Q 1659 2028 1836 2284 
Q 2013 2541 2100 2769 
Q 2188 2997 2188 3241 
Q 2188 3584 2034 3779 
Q 1881 3975 1616 3975 
Q 1366 3975 1202 3798 
Q 1038 3622 963 3241 
L 400 3241 
L 400 3978 
Q 781 4131 997 4192 
Q 1213 4253 1423 4284 
Q 1634 4316 1881 4316 
Q 2341 4316 2631 4192 
Q 2922 4069 3051 3858 
Q 3181 3647 3181 3366 
Q 3181 3119 3089 2906 
Q 2997 2694 2770 2422 
Q 2544 2150 2006 1644 
Q 1766 1409 1556 1170 
Q 1347 931 1247 797 
L 1247 766 
L 2356 766 
z
" transform="scale(0.015625)"/>
     </defs>
     <use xlink:href="#Cambria-Bold-28"/>
     <use xlink:href="#Cambria-Bold-32" x="40.820312"/>
     <use xlink:href="#Cambria-Bold-29" x="100.048828"/>
    </g>
   </g>
   <g id="text_11">
    <!-- (2) -->
    <g style="fill: #808080" transform="translate(224.88875 80.164327) scale(0.16 -0.16)">
     <use xlink:href="#Cambria-Bold-28"/>
     <use xlink:href="#Cambria-Bold-32" x="40.820312"/>
     <use xlink:href="#Cambria-Bold-29" x="100.048828"/>
    </g>
   </g>
  </g>
 </g>
 <defs>
  <clipPath id="p7d2cf48adb">
   <rect x="57.6" y="41.472" width="357.12" height="266.112"/>
  </clipPath>
 </defs>
</svg>
