<?xml version="1.0" encoding="utf-8" standalone="no"?>
<!DOCTYPE svg PUBLIC "-//W3C//DTD SVG 1.1//EN"
  "http://www.w3.org/Graphics/SVG/1.1/DTD/svg11.dtd">
<svg xmlns:xlink="http://www.w3.org/1999/xlink" width="460.8pt" height="345.6pt" viewBox="0 0 460.8 345.6" xmlns="http://www.w3.org/2000/svg" version="1.1">
 <metadata>
  <rdf:RDF xmlns:dc="http://purl.org/dc/elements/1.1/" xmlns:cc="http://creativecommons.org/ns#" xmlns:rdf="http://www.w3.org/1999/02/22-rdf-syntax-ns#">
   <cc:Work>
    <dc:type rdf:resource="http://purl.org/dc/dcmitype/StillImage"/>
    <dc:date>2025-02-14T12:27:33.362089</dc:date>
    <dc:format>image/svg+xml</dc:format>
    <dc:creator>
     <cc:Agent>
      <dc:title>Matplotlib v3.7.1, https://matplotlib.org/</dc:title>
     </cc:Agent>
    </dc:creator>
   </cc:Work>
  </rdf:RDF>
 </metadata>
 <defs>
  <style type="text/css">*{stroke-linejoin: round; stroke-linecap: butt}</style>
 </defs>
 <g id="figure_1">
  <g id="patch_1">
   <path d="M 0 345.6 
L 460.8 345.6 
L 460.8 0 
L 0 0 
z
" style="fill: #ffffff"/>
  </g>
  <g id="axes_1">
   <g id="patch_2">
    <path d="M 57.6 307.584 
L 414.72 307.584 
L 414.72 41.472 
L 57.6 41.472 
z
" style="fill: #ffffff"/>
   </g>
   <g id="GridlinesCollection_1">
    <path clip-path="url(#pafda8a3f17)" style="fill: none; stroke: #b0b0b0; stroke-width: 0.8"/>
    <path d="M 57.6 307.584 
L 57.6 41.472 
" clip-path="url(#pafda8a3f17)" style="fill: none; stroke: #b0b0b0; stroke-width: 0.8"/>
    <path d="M 176.64 307.584 
L 176.64 41.472 
" clip-path="url(#pafda8a3f17)" style="fill: none; stroke: #b0b0b0; stroke-width: 0.8"/>
    <path d="M 295.68 307.584 
L 295.68 41.472 
" clip-path="url(#pafda8a3f17)" style="fill: none; stroke: #b0b0b0; stroke-width: 0.8"/>
    <path d="M 414.72 307.584 
L 414.72 41.472 
" clip-path="url(#pafda8a3f17)" style="fill: none; stroke: #b0b0b0; stroke-width: 0.8"/>
    <path clip-path="url(#pafda8a3f17)" style="fill: none; stroke: #b0b0b0; stroke-width: 0.8"/>
    <path clip-path="url(#pafda8a3f17)" style="fill: none; stroke: #b0b0b0; stroke-width: 0.8"/>
    <path clip-path="url(#pafda8a3f17)" style="fill: none; stroke: #b0b0b0; stroke-width: 0.8"/>
    <path d="M 10.229221 307.584 
L 10.229221 41.472 
" clip-path="url(#pafda8a3f17)" style="fill: none; stroke: #b0b0b0; stroke-width: 0.8"/>
    <path d="M 21.765389 307.584 
L 21.765389 41.472 
" clip-path="url(#pafda8a3f17)" style="fill: none; stroke: #b0b0b0; stroke-width: 0.8"/>
    <path d="M 31.191125 307.584 
L 31.191125 41.472 
" clip-path="url(#pafda8a3f17)" style="fill: none; stroke: #b0b0b0; stroke-width: 0.8"/>
    <path d="M 39.160471 307.584 
L 39.160471 41.472 
" clip-path="url(#pafda8a3f17)" style="fill: none; stroke: #b0b0b0; stroke-width: 0.8"/>
    <path d="M 46.063832 307.584 
L 46.063832 41.472 
" clip-path="url(#pafda8a3f17)" style="fill: none; stroke: #b0b0b0; stroke-width: 0.8"/>
    <path d="M 52.153028 307.584 
L 52.153028 41.472 
" clip-path="url(#pafda8a3f17)" style="fill: none; stroke: #b0b0b0; stroke-width: 0.8"/>
    <path d="M 93.434611 307.584 
L 93.434611 41.472 
" clip-path="url(#pafda8a3f17)" style="fill: none; stroke: #b0b0b0; stroke-width: 0.8"/>
    <path d="M 114.396514 307.584 
L 114.396514 41.472 
" clip-path="url(#pafda8a3f17)" style="fill: none; stroke: #b0b0b0; stroke-width: 0.8"/>
    <path d="M 129.269221 307.584 
L 129.269221 41.472 
" clip-path="url(#pafda8a3f17)" style="fill: none; stroke: #b0b0b0; stroke-width: 0.8"/>
    <path d="M 140.805389 307.584 
L 140.805389 41.472 
" clip-path="url(#pafda8a3f17)" style="fill: none; stroke: #b0b0b0; stroke-width: 0.8"/>
    <path d="M 150.231125 307.584 
L 150.231125 41.472 
" clip-path="url(#pafda8a3f17)" style="fill: none; stroke: #b0b0b0; stroke-width: 0.8"/>
    <path d="M 158.200471 307.584 
L 158.200471 41.472 
" clip-path="url(#pafda8a3f17)" style="fill: none; stroke: #b0b0b0; stroke-width: 0.8"/>
    <path d="M 165.103832 307.584 
L 165.103832 41.472 
" clip-path="url(#pafda8a3f17)" style="fill: none; stroke: #b0b0b0; stroke-width: 0.8"/>
    <path d="M 171.193028 307.584 
L 171.193028 41.472 
" clip-path="url(#pafda8a3f17)" style="fill: none; stroke: #b0b0b0; stroke-width: 0.8"/>
    <path d="M 212.474611 307.584 
L 212.474611 41.472 
" clip-path="url(#pafda8a3f17)" style="fill: none; stroke: #b0b0b0; stroke-width: 0.8"/>
    <path d="M 233.436514 307.584 
L 233.436514 41.472 
" clip-path="url(#pafda8a3f17)" style="fill: none; stroke: #b0b0b0; stroke-width: 0.8"/>
    <path d="M 248.309221 307.584 
L 248.309221 41.472 
" clip-path="url(#pafda8a3f17)" style="fill: none; stroke: #b0b0b0; stroke-width: 0.8"/>
    <path d="M 259.845389 307.584 
L 259.845389 41.472 
" clip-path="url(#pafda8a3f17)" style="fill: none; stroke: #b0b0b0; stroke-width: 0.8"/>
    <path d="M 269.271125 307.584 
L 269.271125 41.472 
" clip-path="url(#pafda8a3f17)" style="fill: none; stroke: #b0b0b0; stroke-width: 0.8"/>
    <path d="M 277.240471 307.584 
L 277.240471 41.472 
" clip-path="url(#pafda8a3f17)" style="fill: none; stroke: #b0b0b0; stroke-width: 0.8"/>
    <path d="M 284.143832 307.584 
L 284.143832 41.472 
" clip-path="url(#pafda8a3f17)" style="fill: none; stroke: #b0b0b0; stroke-width: 0.8"/>
    <path d="M 290.233028 307.584 
L 290.233028 41.472 
" clip-path="url(#pafda8a3f17)" style="fill: none; stroke: #b0b0b0; stroke-width: 0.8"/>
    <path d="M 331.514611 307.584 
L 331.514611 41.472 
" clip-path="url(#pafda8a3f17)" style="fill: none; stroke: #b0b0b0; stroke-width: 0.8"/>
    <path d="M 352.476514 307.584 
L 352.476514 41.472 
" clip-path="url(#pafda8a3f17)" style="fill: none; stroke: #b0b0b0; stroke-width: 0.8"/>
    <path d="M 367.349221 307.584 
L 367.349221 41.472 
" clip-path="url(#pafda8a3f17)" style="fill: none; stroke: #b0b0b0; stroke-width: 0.8"/>
    <path d="M 378.885389 307.584 
L 378.885389 41.472 
" clip-path="url(#pafda8a3f17)" style="fill: none; stroke: #b0b0b0; stroke-width: 0.8"/>
    <path d="M 388.311125 307.584 
L 388.311125 41.472 
" clip-path="url(#pafda8a3f17)" style="fill: none; stroke: #b0b0b0; stroke-width: 0.8"/>
    <path d="M 396.280471 307.584 
L 396.280471 41.472 
" clip-path="url(#pafda8a3f17)" style="fill: none; stroke: #b0b0b0; stroke-width: 0.8"/>
    <path d="M 403.183832 307.584 
L 403.183832 41.472 
" clip-path="url(#pafda8a3f17)" style="fill: none; stroke: #b0b0b0; stroke-width: 0.8"/>
    <path d="M 409.273028 307.584 
L 409.273028 41.472 
" clip-path="url(#pafda8a3f17)" style="fill: none; stroke: #b0b0b0; stroke-width: 0.8"/>
    <path d="M 450.554611 307.584 
L 450.554611 41.472 
" clip-path="url(#pafda8a3f17)" style="fill: none; stroke: #b0b0b0; stroke-width: 0.8"/>
    <path clip-path="url(#pafda8a3f17)" style="fill: none; stroke: #b0b0b0; stroke-width: 0.8"/>
    <path clip-path="url(#pafda8a3f17)" style="fill: none; stroke: #b0b0b0; stroke-width: 0.8"/>
    <path clip-path="url(#pafda8a3f17)" style="fill: none; stroke: #b0b0b0; stroke-width: 0.8"/>
    <path clip-path="url(#pafda8a3f17)" style="fill: none; stroke: #b0b0b0; stroke-width: 0.8"/>
    <path clip-path="url(#pafda8a3f17)" style="fill: none; stroke: #b0b0b0; stroke-width: 0.8"/>
    <path clip-path="url(#pafda8a3f17)" style="fill: none; stroke: #b0b0b0; stroke-width: 0.8"/>
    <path clip-path="url(#pafda8a3f17)" style="fill: none; stroke: #b0b0b0; stroke-width: 0.8"/>
    <path clip-path="url(#pafda8a3f17)" style="fill: none; stroke: #b0b0b0; stroke-width: 0.8"/>
    <path clip-path="url(#pafda8a3f17)" style="fill: none; stroke: #b0b0b0; stroke-width: 0.8"/>
    <path clip-path="url(#pafda8a3f17)" style="fill: none; stroke: #b0b0b0; stroke-width: 0.8"/>
    <path clip-path="url(#pafda8a3f17)" style="fill: none; stroke: #b0b0b0; stroke-width: 0.8"/>
    <path clip-path="url(#pafda8a3f17)" style="fill: none; stroke: #b0b0b0; stroke-width: 0.8"/>
    <path clip-path="url(#pafda8a3f17)" style="fill: none; stroke: #b0b0b0; stroke-width: 0.8"/>
    <path clip-path="url(#pafda8a3f17)" style="fill: none; stroke: #b0b0b0; stroke-width: 0.8"/>
    <path clip-path="url(#pafda8a3f17)" style="fill: none; stroke: #b0b0b0; stroke-width: 0.8"/>
    <path d="M 57.6 307.584 
L 414.72 307.584 
" clip-path="url(#pafda8a3f17)" style="fill: none; stroke: #b0b0b0; stroke-width: 0.8"/>
    <path d="M 57.6 278.016 
L 414.72 278.016 
" clip-path="url(#pafda8a3f17)" style="fill: none; stroke: #b0b0b0; stroke-width: 0.8"/>
    <path d="M 57.6 248.448 
L 414.72 248.448 
" clip-path="url(#pafda8a3f17)" style="fill: none; stroke: #b0b0b0; stroke-width: 0.8"/>
    <path d="M 57.6 218.88 
L 414.72 218.88 
" clip-path="url(#pafda8a3f17)" style="fill: none; stroke: #b0b0b0; stroke-width: 0.8"/>
    <path d="M 57.6 189.312 
L 414.72 189.312 
" clip-path="url(#pafda8a3f17)" style="fill: none; stroke: #b0b0b0; stroke-width: 0.8"/>
    <path d="M 57.6 159.744 
L 414.72 159.744 
" clip-path="url(#pafda8a3f17)" style="fill: none; stroke: #b0b0b0; stroke-width: 0.8"/>
    <path d="M 57.6 130.176 
L 414.72 130.176 
" clip-path="url(#pafda8a3f17)" style="fill: none; stroke: #b0b0b0; stroke-width: 0.8"/>
    <path d="M 57.6 100.608 
L 414.72 100.608 
" clip-path="url(#pafda8a3f17)" style="fill: none; stroke: #b0b0b0; stroke-width: 0.8"/>
    <path d="M 57.6 71.04 
L 414.72 71.04 
" clip-path="url(#pafda8a3f17)" style="fill: none; stroke: #b0b0b0; stroke-width: 0.8"/>
    <path d="M 57.6 41.472 
L 414.72 41.472 
" clip-path="url(#pafda8a3f17)" style="fill: none; stroke: #b0b0b0; stroke-width: 0.8"/>
   </g>
   <g id="line2d_1">
    <path d="M 57.6 59.2128 
L 295.68 177.4848 
L 296.606311 178.33542 
L 297.532622 179.188939 
L 298.458934 180.04541 
L 299.385245 180.904886 
L 300.311556 181.767422 
L 301.237867 182.633072 
L 302.164179 183.501893 
L 303.09049 184.373943 
L 304.016801 185.249279 
L 304.943112 186.127962 
L 305.869424 187.010051 
L 306.795735 187.895609 
L 307.722046 188.784697 
L 308.648357 189.677381 
L 309.574669 190.573724 
L 310.50098 191.473793 
L 311.427291 192.377655 
L 312.353602 193.285379 
L 313.279914 194.197035 
L 314.206225 195.112694 
L 315.132536 196.032428 
L 316.058847 196.95631 
L 316.985159 197.884417 
L 317.91147 198.816824 
L 318.837781 199.753608 
L 319.764092 200.69485 
L 320.690404 201.64063 
L 321.616715 202.591029 
L 322.543026 203.546131 
L 323.469337 204.506022 
L 324.395649 205.470787 
L 325.32196 206.440516 
L 326.248271 207.415297 
L 327.174582 208.395222 
L 328.100894 209.380385 
L 329.027205 210.370878 
L 329.953516 211.366801 
L 330.879827 212.368249 
L 331.806139 213.375323 
L 332.73245 214.388126 
L 333.658761 215.406759 
L 334.585072 216.43133 
L 335.511384 217.461945 
L 336.437695 218.498713 
L 337.364006 219.541746 
L 338.290317 220.591157 
L 339.216629 221.647061 
L 340.14294 222.709576 
L 341.069251 223.778821 
L 341.995562 224.854918 
L 342.921874 225.937991 
L 343.848185 227.028165 
L 344.774496 228.12557 
L 345.700807 229.230336 
L 346.627119 230.342595 
L 347.55343 231.462485 
L 348.479741 232.590141 
L 349.406052 233.725706 
L 350.332364 234.869321 
L 351.258675 236.021133 
L 352.184986 237.18129 
L 353.111297 238.349942 
L 354.037609 239.527243 
L 354.96392 240.713349 
L 355.890231 241.90842 
L 356.816542 243.112618 
L 357.742854 244.326107 
L 358.669165 245.549056 
L 359.595476 246.781636 
L 360.521787 248.02402 
L 361.448099 249.276387 
L 362.37441 250.538916 
L 363.300721 251.811791 
L 364.227032 253.0952 
L 365.153344 254.389332 
L 366.079655 255.694382 
L 367.005966 257.010547 
L 367.932277 258.338028 
L 368.858589 259.677029 
L 369.7849 261.027759 
L 370.711211 262.39043 
L 371.637522 263.765258 
L 372.563834 265.152462 
L 373.490145 266.552267 
L 374.416456 267.9649 
L 375.342767 269.390592 
L 376.269079 270.829581 
L 377.19539 272.282106 
L 378.121701 273.748413 
L 379.048012 275.228749 
L 379.974324 276.72337 
L 380.900635 278.232533 
L 381.826946 279.756502 
L 382.753257 281.295543 
L 383.679569 282.849929 
L 384.60588 284.419938 
L 385.532191 286.005853 
L 386.458502 287.60796 
L 387.384814 289.226552 
L 388.311125 290.861929 
" clip-path="url(#pafda8a3f17)" style="fill: none; stroke: #000000; stroke-width: 1.5; stroke-linecap: square"/>
   </g>
   <g id="mpl_toolkits.axisartist.axis_artist_1">
    <defs>
     <path id="mad4ceb9062" d="M 0 0 
L 0 -3.5 
" style="stroke: #000000; stroke-width: 0.8"/>
    </defs>
    <g>
     <use xlink:href="#mad4ceb9062" x="57.6" y="307.584" style="fill: none; stroke: #000000; stroke-width: 0.8"/>
    </g>
    <g>
     <use xlink:href="#mad4ceb9062" x="176.64" y="307.584" style="fill: none; stroke: #000000; stroke-width: 0.8"/>
    </g>
    <g>
     <use xlink:href="#mad4ceb9062" x="295.68" y="307.584" style="fill: none; stroke: #000000; stroke-width: 0.8"/>
    </g>
    <g>
     <use xlink:href="#mad4ceb9062" x="414.72" y="307.584" style="fill: none; stroke: #000000; stroke-width: 0.8"/>
    </g>
    <g id="text_1">
     <!-- 1 -->
     <g transform="translate(54.83125 317.82775) scale(0.1 -0.1)">
      <defs>
       <path id="Cambria-31" d="M 2172 816 
Q 2172 634 2192 542 
Q 2213 450 2264 392 
Q 2316 334 2412 301 
Q 2509 269 2656 251 
Q 2803 234 3044 228 
L 3044 0 
L 734 0 
L 734 228 
Q 1081 244 1229 270 
Q 1378 297 1456 350 
Q 1534 403 1570 500 
Q 1606 597 1606 816 
L 1606 3350 
Q 1606 3475 1562 3533 
Q 1519 3591 1434 3591 
Q 1334 3591 1150 3487 
Q 966 3384 694 3203 
L 556 3444 
L 2019 4316 
L 2191 4316 
Q 2172 4016 2172 3484 
L 2172 816 
z
" transform="scale(0.015625)"/>
      </defs>
      <use xlink:href="#Cambria-31"/>
     </g>
    </g>
    <g id="text_2">
     <!-- 10 -->
     <g transform="translate(171.1025 317.82775) scale(0.1 -0.1)">
      <defs>
       <path id="Cambria-30" d="M 1738 -50 
Q 1063 -50 733 481 
Q 403 1013 403 2094 
Q 403 2669 504 3087 
Q 606 3506 789 3779 
Q 972 4053 1228 4184 
Q 1484 4316 1788 4316 
Q 2472 4316 2806 3787 
Q 3141 3259 3141 2191 
Q 3141 1084 2783 517 
Q 2425 -50 1738 -50 
z
M 1013 2188 
Q 1013 1169 1202 692 
Q 1391 216 1788 216 
Q 2166 216 2348 664 
Q 2531 1113 2531 2053 
Q 2531 2772 2437 3217 
Q 2344 3663 2176 3856 
Q 2009 4050 1772 4050 
Q 1556 4050 1411 3922 
Q 1266 3794 1177 3553 
Q 1088 3313 1050 2967 
Q 1013 2622 1013 2188 
z
" transform="scale(0.015625)"/>
      </defs>
      <use xlink:href="#Cambria-31"/>
      <use xlink:href="#Cambria-30" x="55.371094"/>
     </g>
    </g>
    <g id="text_3">
     <!-- 100 -->
     <g transform="translate(287.37375 317.82775) scale(0.1 -0.1)">
      <use xlink:href="#Cambria-31"/>
      <use xlink:href="#Cambria-30" x="55.371094"/>
      <use xlink:href="#Cambria-30" x="110.742188"/>
     </g>
    </g>
    <g id="text_4">
     <!-- 1.000 -->
     <g transform="translate(402.619219 317.82775) scale(0.1 -0.1)">
      <defs>
       <path id="Cambria-2e" d="M 972 725 
L 972 0 
L 341 0 
L 341 725 
L 972 725 
z
" transform="scale(0.015625)"/>
      </defs>
      <use xlink:href="#Cambria-31"/>
      <use xlink:href="#Cambria-2e" x="55.371094"/>
      <use xlink:href="#Cambria-30" x="75.878906"/>
      <use xlink:href="#Cambria-30" x="131.25"/>
      <use xlink:href="#Cambria-30" x="186.621094"/>
     </g>
    </g>
    <defs>
     <path id="m12bfe79ebd" d="M 0 0 
L 0 -2 
" style="stroke: #000000; stroke-width: 0.8"/>
    </defs>
    <g>
     <use xlink:href="#m12bfe79ebd" x="93.434611" y="307.584" style="fill: none; stroke: #000000; stroke-width: 0.8"/>
    </g>
    <g>
     <use xlink:href="#m12bfe79ebd" x="114.396514" y="307.584" style="fill: none; stroke: #000000; stroke-width: 0.8"/>
    </g>
    <g>
     <use xlink:href="#m12bfe79ebd" x="129.269221" y="307.584" style="fill: none; stroke: #000000; stroke-width: 0.8"/>
    </g>
    <g>
     <use xlink:href="#m12bfe79ebd" x="140.805389" y="307.584" style="fill: none; stroke: #000000; stroke-width: 0.8"/>
    </g>
    <g>
     <use xlink:href="#m12bfe79ebd" x="150.231125" y="307.584" style="fill: none; stroke: #000000; stroke-width: 0.8"/>
    </g>
    <g>
     <use xlink:href="#m12bfe79ebd" x="158.200471" y="307.584" style="fill: none; stroke: #000000; stroke-width: 0.8"/>
    </g>
    <g>
     <use xlink:href="#m12bfe79ebd" x="165.103832" y="307.584" style="fill: none; stroke: #000000; stroke-width: 0.8"/>
    </g>
    <g>
     <use xlink:href="#m12bfe79ebd" x="171.193028" y="307.584" style="fill: none; stroke: #000000; stroke-width: 0.8"/>
    </g>
    <g>
     <use xlink:href="#m12bfe79ebd" x="212.474611" y="307.584" style="fill: none; stroke: #000000; stroke-width: 0.8"/>
    </g>
    <g>
     <use xlink:href="#m12bfe79ebd" x="233.436514" y="307.584" style="fill: none; stroke: #000000; stroke-width: 0.8"/>
    </g>
    <g>
     <use xlink:href="#m12bfe79ebd" x="248.309221" y="307.584" style="fill: none; stroke: #000000; stroke-width: 0.8"/>
    </g>
    <g>
     <use xlink:href="#m12bfe79ebd" x="259.845389" y="307.584" style="fill: none; stroke: #000000; stroke-width: 0.8"/>
    </g>
    <g>
     <use xlink:href="#m12bfe79ebd" x="269.271125" y="307.584" style="fill: none; stroke: #000000; stroke-width: 0.8"/>
    </g>
    <g>
     <use xlink:href="#m12bfe79ebd" x="277.240471" y="307.584" style="fill: none; stroke: #000000; stroke-width: 0.8"/>
    </g>
    <g>
     <use xlink:href="#m12bfe79ebd" x="284.143832" y="307.584" style="fill: none; stroke: #000000; stroke-width: 0.8"/>
    </g>
    <g>
     <use xlink:href="#m12bfe79ebd" x="290.233028" y="307.584" style="fill: none; stroke: #000000; stroke-width: 0.8"/>
    </g>
    <g>
     <use xlink:href="#m12bfe79ebd" x="331.514611" y="307.584" style="fill: none; stroke: #000000; stroke-width: 0.8"/>
    </g>
    <g>
     <use xlink:href="#m12bfe79ebd" x="352.476514" y="307.584" style="fill: none; stroke: #000000; stroke-width: 0.8"/>
    </g>
    <g>
     <use xlink:href="#m12bfe79ebd" x="367.349221" y="307.584" style="fill: none; stroke: #000000; stroke-width: 0.8"/>
    </g>
    <g>
     <use xlink:href="#m12bfe79ebd" x="378.885389" y="307.584" style="fill: none; stroke: #000000; stroke-width: 0.8"/>
    </g>
    <g>
     <use xlink:href="#m12bfe79ebd" x="388.311125" y="307.584" style="fill: none; stroke: #000000; stroke-width: 0.8"/>
    </g>
    <g>
     <use xlink:href="#m12bfe79ebd" x="396.280471" y="307.584" style="fill: none; stroke: #000000; stroke-width: 0.8"/>
    </g>
    <g>
     <use xlink:href="#m12bfe79ebd" x="403.183832" y="307.584" style="fill: none; stroke: #000000; stroke-width: 0.8"/>
    </g>
    <g>
     <use xlink:href="#m12bfe79ebd" x="409.273028" y="307.584" style="fill: none; stroke: #000000; stroke-width: 0.8"/>
    </g>
    <g id="patch_3">
     <path d="M 57.6 307.584 
L 414.72 307.584 
L 423.601966 307.584 
" style="fill: none; stroke: #000000; stroke-linecap: round"/>
     <path d="M 419.601966 305.584 
L 423.601966 307.584 
L 419.601966 309.584 
z
" style="stroke: #000000; stroke-linecap: round"/>
    </g>
   </g>
   <g id="mpl_toolkits.axisartist.axis_artist_2">
    <defs>
     <path id="m6c07b52356" d="M 0 0 
L 3.5 0 
" style="stroke: #000000; stroke-width: 0.8"/>
    </defs>
    <g>
     <use xlink:href="#m6c07b52356" x="57.6" y="307.584" style="fill: none; stroke: #000000; stroke-width: 0.8"/>
    </g>
    <g>
     <use xlink:href="#m6c07b52356" x="57.6" y="278.016" style="fill: none; stroke: #000000; stroke-width: 0.8"/>
    </g>
    <g>
     <use xlink:href="#m6c07b52356" x="57.6" y="248.448" style="fill: none; stroke: #000000; stroke-width: 0.8"/>
    </g>
    <g>
     <use xlink:href="#m6c07b52356" x="57.6" y="218.88" style="fill: none; stroke: #000000; stroke-width: 0.8"/>
    </g>
    <g>
     <use xlink:href="#m6c07b52356" x="57.6" y="189.312" style="fill: none; stroke: #000000; stroke-width: 0.8"/>
    </g>
    <g>
     <use xlink:href="#m6c07b52356" x="57.6" y="159.744" style="fill: none; stroke: #000000; stroke-width: 0.8"/>
    </g>
    <g>
     <use xlink:href="#m6c07b52356" x="57.6" y="130.176" style="fill: none; stroke: #000000; stroke-width: 0.8"/>
    </g>
    <g>
     <use xlink:href="#m6c07b52356" x="57.6" y="100.608" style="fill: none; stroke: #000000; stroke-width: 0.8"/>
    </g>
    <g>
     <use xlink:href="#m6c07b52356" x="57.6" y="71.04" style="fill: none; stroke: #000000; stroke-width: 0.8"/>
    </g>
    <g>
     <use xlink:href="#m6c07b52356" x="57.6" y="41.472" style="fill: none; stroke: #000000; stroke-width: 0.8"/>
    </g>
    <g id="text_5">
     <!-- 35 -->
     <g transform="translate(43.025 310.02775) scale(0.1 -0.1)">
      <defs>
       <path id="Cambria-33" d="M 497 3381 
L 497 3975 
Q 859 4147 1175 4231 
Q 1491 4316 1784 4316 
Q 2138 4316 2403 4206 
Q 2669 4097 2809 3892 
Q 2950 3688 2950 3403 
Q 2950 3138 2844 2936 
Q 2738 2734 2545 2584 
Q 2353 2434 2047 2291 
L 2047 2263 
Q 2238 2228 2414 2145 
Q 2591 2063 2728 1931 
Q 2866 1800 2948 1617 
Q 3031 1434 3031 1200 
Q 3031 838 2873 556 
Q 2716 275 2391 112 
Q 2066 -50 1600 -50 
Q 1331 -50 1020 11 
Q 709 72 450 172 
L 450 834 
L 825 834 
Q 934 509 1114 362 
Q 1294 216 1603 216 
Q 2009 216 2217 437 
Q 2425 659 2425 1094 
Q 2425 1550 2150 1790 
Q 1875 2031 1344 2031 
L 1063 2031 
L 1063 2306 
Q 1484 2331 1773 2468 
Q 2063 2606 2203 2822 
Q 2344 3038 2344 3306 
Q 2344 3653 2159 3840 
Q 1975 4028 1622 4028 
Q 1328 4028 1143 3868 
Q 959 3709 872 3381 
L 497 3381 
z
" transform="scale(0.015625)"/>
       <path id="Cambria-35" d="M 469 172 
L 469 834 
L 847 834 
Q 941 516 1130 366 
Q 1319 216 1619 216 
Q 2034 216 2246 466 
Q 2459 716 2459 1213 
Q 2459 1544 2346 1761 
Q 2234 1978 2043 2075 
Q 1853 2172 1600 2172 
Q 1388 2172 1234 2145 
Q 1081 2119 906 2063 
L 656 2209 
L 656 4266 
L 2378 4266 
Q 2484 4266 2531 4283 
Q 2578 4300 2606 4336 
Q 2634 4372 2672 4472 
L 2916 4472 
L 2869 3747 
L 1072 3747 
L 1072 2375 
Q 1234 2444 1425 2478 
Q 1616 2513 1806 2513 
Q 2178 2513 2465 2361 
Q 2753 2209 2909 1929 
Q 3066 1650 3066 1281 
Q 3066 863 2891 563 
Q 2716 263 2384 106 
Q 2053 -50 1600 -50 
Q 1059 -50 469 172 
z
" transform="scale(0.015625)"/>
      </defs>
      <use xlink:href="#Cambria-33"/>
      <use xlink:href="#Cambria-35" x="55.371094"/>
     </g>
    </g>
    <g id="text_6">
     <!-- 40 -->
     <g transform="translate(43.025 280.45975) scale(0.1 -0.1)">
      <defs>
       <path id="Cambria-34" d="M 1613 153 
Q 1806 203 1872 264 
Q 1938 325 1958 437 
Q 1978 550 1978 781 
L 1978 1294 
L 241 1294 
L 241 1528 
L 2069 4288 
L 2516 4288 
L 2516 1597 
L 2581 1597 
Q 2763 1597 2841 1623 
Q 2919 1650 2970 1717 
Q 3022 1784 3066 1938 
L 3303 1938 
L 3266 1294 
L 2516 1294 
L 2516 781 
Q 2516 572 2530 475 
Q 2544 378 2576 322 
Q 2609 266 2673 228 
Q 2738 191 2881 153 
L 2881 0 
L 1613 0 
L 1613 153 
z
M 756 1597 
L 1978 1597 
L 1978 2375 
Q 1978 2669 1987 3033 
Q 1997 3397 2009 3581 
L 1978 3581 
L 756 1641 
L 756 1597 
z
" transform="scale(0.015625)"/>
      </defs>
      <use xlink:href="#Cambria-34"/>
      <use xlink:href="#Cambria-30" x="55.371094"/>
     </g>
    </g>
    <g id="text_7">
     <!-- 45 -->
     <g transform="translate(43.025 250.89175) scale(0.1 -0.1)">
      <use xlink:href="#Cambria-34"/>
      <use xlink:href="#Cambria-35" x="55.371094"/>
     </g>
    </g>
    <g id="text_8">
     <!-- 50 -->
     <g transform="translate(43.025 221.32375) scale(0.1 -0.1)">
      <use xlink:href="#Cambria-35"/>
      <use xlink:href="#Cambria-30" x="55.371094"/>
     </g>
    </g>
    <g id="text_9">
     <!-- 55 -->
     <g transform="translate(43.025 191.75575) scale(0.1 -0.1)">
      <use xlink:href="#Cambria-35"/>
      <use xlink:href="#Cambria-35" x="55.371094"/>
     </g>
    </g>
    <g id="text_10">
     <!-- 60 -->
     <g transform="translate(43.025 162.18775) scale(0.1 -0.1)">
      <defs>
       <path id="Cambria-36" d="M 2847 4144 
L 2847 3991 
Q 2366 3991 1994 3784 
Q 1622 3578 1376 3178 
Q 1131 2778 1031 2228 
L 1063 2216 
Q 1325 2403 1579 2490 
Q 1834 2578 2131 2578 
Q 2484 2578 2732 2423 
Q 2981 2269 3106 1989 
Q 3231 1709 3231 1334 
Q 3231 928 3075 617 
Q 2919 306 2592 128 
Q 2266 -50 1788 -50 
Q 1103 -50 754 375 
Q 406 800 406 1628 
Q 406 2184 581 2668 
Q 756 3153 1078 3514 
Q 1400 3875 1825 4083 
Q 2250 4291 2719 4316 
L 2847 4144 
z
M 1916 2250 
Q 1763 2250 1620 2215 
Q 1478 2181 1353 2115 
Q 1228 2050 1109 1950 
Q 1072 1916 1053 1878 
Q 1022 1819 1012 1731 
Q 1003 1644 1003 1438 
Q 1003 841 1203 528 
Q 1403 216 1809 216 
Q 2044 216 2203 297 
Q 2363 378 2461 520 
Q 2559 663 2601 855 
Q 2644 1047 2644 1272 
Q 2644 1734 2453 1992 
Q 2263 2250 1916 2250 
z
" transform="scale(0.015625)"/>
      </defs>
      <use xlink:href="#Cambria-36"/>
      <use xlink:href="#Cambria-30" x="55.371094"/>
     </g>
    </g>
    <g id="text_11">
     <!-- 65 -->
     <g transform="translate(43.025 132.61975) scale(0.1 -0.1)">
      <use xlink:href="#Cambria-36"/>
      <use xlink:href="#Cambria-35" x="55.371094"/>
     </g>
    </g>
    <g id="text_12">
     <!-- 70 -->
     <g transform="translate(43.025 103.05175) scale(0.1 -0.1)">
      <defs>
       <path id="Cambria-37" d="M 3206 4116 
L 1388 -22 
L 934 -22 
L 934 131 
L 2619 3697 
L 2619 3744 
L 1244 3744 
Q 1116 3744 1039 3720 
Q 963 3697 911 3653 
Q 859 3609 825 3537 
Q 791 3466 731 3253 
L 463 3253 
L 525 4266 
L 3206 4266 
L 3206 4116 
z
" transform="scale(0.015625)"/>
      </defs>
      <use xlink:href="#Cambria-37"/>
      <use xlink:href="#Cambria-30" x="55.371094"/>
     </g>
    </g>
    <g id="text_13">
     <!-- 75 -->
     <g transform="translate(43.025 73.48375) scale(0.1 -0.1)">
      <use xlink:href="#Cambria-37"/>
      <use xlink:href="#Cambria-35" x="55.371094"/>
     </g>
    </g>
    <g id="text_14">
     <!-- 80 -->
     <g transform="translate(43.025 43.91575) scale(0.1 -0.1)">
      <defs>
       <path id="Cambria-38" d="M 2475 2253 
L 2481 2213 
Q 2834 2075 3015 1811 
Q 3197 1547 3197 1175 
Q 3197 809 3022 531 
Q 2847 253 2514 101 
Q 2181 -50 1738 -50 
Q 1322 -50 1008 89 
Q 694 228 520 495 
Q 347 763 347 1125 
Q 347 1397 440 1597 
Q 534 1797 686 1926 
Q 838 2056 1069 2163 
L 1063 2203 
Q 391 2494 391 3200 
Q 391 3522 567 3775 
Q 744 4028 1070 4172 
Q 1397 4316 1794 4316 
Q 2244 4316 2550 4189 
Q 2856 4063 3011 3823 
Q 3166 3584 3166 3250 
Q 3166 2906 2997 2657 
Q 2828 2409 2475 2253 
z
M 978 3228 
Q 978 3044 1022 2881 
Q 1066 2719 1162 2600 
Q 1259 2481 1414 2411 
Q 1569 2341 1794 2341 
Q 2053 2341 2229 2442 
Q 2406 2544 2492 2739 
Q 2578 2934 2578 3191 
Q 2578 3472 2476 3667 
Q 2375 3863 2197 3956 
Q 2019 4050 1788 4050 
Q 1394 4050 1186 3836 
Q 978 3622 978 3228 
z
M 944 1178 
Q 944 975 991 798 
Q 1038 622 1139 494 
Q 1241 366 1400 291 
Q 1559 216 1788 216 
Q 2044 216 2226 320 
Q 2409 425 2504 631 
Q 2600 838 2600 1119 
Q 2600 1419 2497 1636 
Q 2394 1853 2206 1967 
Q 2019 2081 1772 2081 
Q 1541 2081 1383 2009 
Q 1225 1938 1126 1816 
Q 1028 1694 986 1530 
Q 944 1366 944 1178 
z
" transform="scale(0.015625)"/>
      </defs>
      <use xlink:href="#Cambria-38"/>
      <use xlink:href="#Cambria-30" x="55.371094"/>
     </g>
    </g>
    <g id="patch_4">
     <path d="M 57.6 307.584 
L 57.6 41.472 
L 57.6 32.590034 
" style="fill: none; stroke: #000000; stroke-linecap: round"/>
     <path d="M 55.6 36.590034 
L 57.6 32.590034 
L 59.6 36.590034 
z
" style="stroke: #000000; stroke-linecap: round"/>
    </g>
   </g>
   <g id="text_15">
    <!-- X -->
    <g transform="translate(432.576 320.8896) scale(0.1 -0.1)">
     <defs>
      <path id="Cambria-58" d="M 1503 4266 
L 1503 4113 
Q 1353 4091 1287 4031 
Q 1222 3972 1222 3869 
Q 1222 3781 1281 3650 
Q 1341 3519 1450 3338 
L 1903 2578 
L 2350 3300 
Q 2450 3463 2500 3559 
Q 2550 3656 2570 3722 
Q 2591 3788 2591 3856 
Q 2591 3953 2534 4020 
Q 2478 4088 2347 4113 
L 2347 4266 
L 3506 4266 
L 3506 4113 
Q 3391 4075 3298 4003 
Q 3206 3931 3101 3793 
Q 2997 3656 2803 3359 
L 2097 2266 
L 2891 959 
Q 3059 681 3132 570 
Q 3206 459 3270 382 
Q 3334 306 3407 250 
Q 3481 194 3591 153 
L 3591 0 
L 2219 0 
L 2219 153 
Q 2363 178 2431 233 
Q 2500 288 2500 397 
Q 2500 484 2454 590 
Q 2409 697 2316 853 
L 1750 1797 
L 1153 819 
Q 1003 572 1003 413 
Q 1003 309 1059 243 
Q 1116 178 1247 153 
L 1247 0 
L 66 0 
L 66 153 
Q 181 188 256 236 
Q 331 284 400 359 
Q 469 434 553 550 
Q 638 666 822 953 
L 1559 2103 
L 678 3553 
Q 553 3753 489 3843 
Q 425 3934 370 3990 
Q 316 4047 272 4070 
Q 228 4094 172 4113 
L 172 4266 
L 1503 4266 
z
" transform="scale(0.015625)"/>
     </defs>
     <use xlink:href="#Cambria-58"/>
    </g>
   </g>
   <g id="text_16">
    <!-- Y -->
    <g transform="translate(39.744 28.1664) scale(0.1 -0.1)">
     <defs>
      <path id="Cambria-59" d="M 1506 1791 
L 644 3394 
Q 488 3684 406 3809 
Q 325 3934 244 4006 
Q 163 4078 56 4113 
L 56 4266 
L 1388 4266 
L 1388 4113 
Q 1094 4078 1094 3859 
Q 1094 3769 1136 3656 
Q 1178 3544 1288 3338 
L 1913 2147 
L 2528 3234 
Q 2653 3456 2704 3598 
Q 2756 3741 2756 3859 
Q 2756 3972 2689 4036 
Q 2622 4100 2491 4113 
L 2491 4266 
L 3675 4266 
L 3675 4113 
Q 3547 4066 3450 3983 
Q 3353 3900 3253 3759 
Q 3153 3619 2959 3284 
L 2091 1803 
L 2091 791 
Q 2091 613 2109 503 
Q 2128 394 2172 328 
Q 2216 263 2287 225 
Q 2359 188 2513 153 
L 2513 0 
L 1084 0 
L 1084 153 
Q 1234 184 1306 220 
Q 1378 256 1422 323 
Q 1466 391 1486 500 
Q 1506 609 1506 791 
L 1506 1791 
z
" transform="scale(0.015625)"/>
     </defs>
     <use xlink:href="#Cambria-59"/>
    </g>
   </g>
   <g id="text_17">
    <!-- (1) -->
    <g style="fill: #808080" transform="translate(189.17675 98.60065) scale(0.16 -0.16)">
     <defs>
      <path id="Cambria-Bold-28" d="M 2478 -1359 
Q 1888 -1359 1514 -1200 
Q 1141 -1041 931 -717 
Q 722 -394 626 128 
Q 531 650 531 1550 
Q 531 2456 626 2982 
Q 722 3509 933 3836 
Q 1144 4163 1520 4323 
Q 1897 4484 2478 4484 
L 2478 4141 
Q 2278 4141 2128 4100 
Q 1978 4059 1866 3947 
Q 1731 3813 1653 3566 
Q 1559 3281 1515 2795 
Q 1472 2309 1472 1575 
Q 1472 897 1513 428 
Q 1553 -75 1647 -381 
Q 1725 -634 1841 -775 
Q 1938 -891 2075 -950 
Q 2228 -1016 2478 -1016 
L 2478 -1359 
z
" transform="scale(0.015625)"/>
      <path id="Cambria-Bold-31" d="M 2506 872 
Q 2506 691 2526 598 
Q 2547 506 2598 448 
Q 2650 391 2747 358 
Q 2844 325 2991 308 
Q 3138 291 3378 284 
L 3378 0 
L 681 0 
L 681 284 
Q 1028 300 1176 326 
Q 1325 353 1403 406 
Q 1481 459 1517 556 
Q 1553 653 1553 872 
L 1553 3131 
Q 1553 3259 1504 3315 
Q 1456 3372 1372 3372 
Q 1294 3372 1151 3300 
Q 1009 3228 684 3006 
L 494 3338 
L 2125 4316 
L 2525 4316 
Q 2506 4016 2506 3484 
L 2506 872 
z
" transform="scale(0.015625)"/>
      <path id="Cambria-Bold-29" d="M 134 4484 
Q 716 4484 1089 4328 
Q 1463 4172 1675 3851 
Q 1888 3531 1984 3007 
Q 2081 2484 2081 1575 
Q 2081 669 1986 142 
Q 1891 -384 1680 -711 
Q 1469 -1038 1092 -1198 
Q 716 -1359 134 -1359 
L 134 -1016 
Q 334 -1016 484 -975 
Q 634 -934 747 -822 
Q 881 -688 959 -441 
Q 1053 -156 1097 330 
Q 1141 816 1141 1550 
Q 1141 2228 1100 2697 
Q 1059 3200 966 3506 
Q 888 3759 772 3900 
Q 675 4016 538 4075 
Q 384 4141 134 4141 
L 134 4484 
z
" transform="scale(0.015625)"/>
     </defs>
     <use xlink:href="#Cambria-Bold-28"/>
     <use xlink:href="#Cambria-Bold-31" x="40.820312"/>
     <use xlink:href="#Cambria-Bold-29" x="100.048828"/>
    </g>
   </g>
   <g id="text_18">
    <!-- (2) -->
    <g style="fill: #808080" transform="translate(189.17675 178.43425) scale(0.16 -0.16)">
     <defs>
      <path id="Cambria-Bold-32" d="M 2356 766 
Q 2559 766 2659 795 
Q 2759 825 2817 898 
Q 2875 972 2913 1119 
L 3272 1119 
L 3200 0 
L 338 0 
L 338 206 
Q 469 506 717 859 
Q 966 1213 1322 1631 
Q 1659 2028 1836 2284 
Q 2013 2541 2100 2769 
Q 2188 2997 2188 3241 
Q 2188 3584 2034 3779 
Q 1881 3975 1616 3975 
Q 1366 3975 1202 3798 
Q 1038 3622 963 3241 
L 400 3241 
L 400 3978 
Q 781 4131 997 4192 
Q 1213 4253 1423 4284 
Q 1634 4316 1881 4316 
Q 2341 4316 2631 4192 
Q 2922 4069 3051 3858 
Q 3181 3647 3181 3366 
Q 3181 3119 3089 2906 
Q 2997 2694 2770 2422 
Q 2544 2150 2006 1644 
Q 1766 1409 1556 1170 
Q 1347 931 1247 797 
L 1247 766 
L 2356 766 
z
" transform="scale(0.015625)"/>
     </defs>
     <use xlink:href="#Cambria-Bold-28"/>
     <use xlink:href="#Cambria-Bold-32" x="40.820312"/>
     <use xlink:href="#Cambria-Bold-29" x="100.048828"/>
    </g>
   </g>
  </g>
 </g>
 <defs>
  <clipPath id="pafda8a3f17">
   <rect x="57.6" y="41.472" width="357.12" height="266.112"/>
  </clipPath>
 </defs>
</svg>
