<?xml version="1.0" encoding="utf-8" standalone="no"?>
<!DOCTYPE svg PUBLIC "-//W3C//DTD SVG 1.1//EN"
  "http://www.w3.org/Graphics/SVG/1.1/DTD/svg11.dtd">
<svg xmlns:xlink="http://www.w3.org/1999/xlink" width="460.8pt" height="345.6pt" viewBox="0 0 460.8 345.6" xmlns="http://www.w3.org/2000/svg" version="1.1">
 <metadata>
  <rdf:RDF xmlns:dc="http://purl.org/dc/elements/1.1/" xmlns:cc="http://creativecommons.org/ns#" xmlns:rdf="http://www.w3.org/1999/02/22-rdf-syntax-ns#">
   <cc:Work>
    <dc:type rdf:resource="http://purl.org/dc/dcmitype/StillImage"/>
    <dc:date>2025-02-14T12:29:02.056178</dc:date>
    <dc:format>image/svg+xml</dc:format>
    <dc:creator>
     <cc:Agent>
      <dc:title>Matplotlib v3.7.1, https://matplotlib.org/</dc:title>
     </cc:Agent>
    </dc:creator>
   </cc:Work>
  </rdf:RDF>
 </metadata>
 <defs>
  <style type="text/css">*{stroke-linejoin: round; stroke-linecap: butt}</style>
 </defs>
 <g id="figure_1">
  <g id="patch_1">
   <path d="M 0 345.6 
L 460.8 345.6 
L 460.8 0 
L 0 0 
z
" style="fill: #ffffff"/>
  </g>
  <g id="axes_1">
   <g id="patch_2">
    <path d="M 57.6 307.584 
L 414.72 307.584 
L 414.72 41.472 
L 57.6 41.472 
z
" style="fill: #ffffff"/>
   </g>
   <g id="GridlinesCollection_1">
    <path clip-path="url(#p0bbe6f3afa)" style="fill: none; stroke: #b0b0b0; stroke-width: 0.8"/>
    <path d="M 57.6 307.584 
L 57.6 41.472 
" clip-path="url(#p0bbe6f3afa)" style="fill: none; stroke: #b0b0b0; stroke-width: 0.8"/>
    <path d="M 236.16 307.584 
L 236.16 41.472 
" clip-path="url(#p0bbe6f3afa)" style="fill: none; stroke: #b0b0b0; stroke-width: 0.8"/>
    <path d="M 414.72 307.584 
L 414.72 41.472 
" clip-path="url(#p0bbe6f3afa)" style="fill: none; stroke: #b0b0b0; stroke-width: 0.8"/>
    <path clip-path="url(#p0bbe6f3afa)" style="fill: none; stroke: #b0b0b0; stroke-width: 0.8"/>
    <path clip-path="url(#p0bbe6f3afa)" style="fill: none; stroke: #b0b0b0; stroke-width: 0.8"/>
    <path clip-path="url(#p0bbe6f3afa)" style="fill: none; stroke: #b0b0b0; stroke-width: 0.8"/>
    <path clip-path="url(#p0bbe6f3afa)" style="fill: none; stroke: #b0b0b0; stroke-width: 0.8"/>
    <path d="M 3.848084 307.584 
L 3.848084 41.472 
" clip-path="url(#p0bbe6f3afa)" style="fill: none; stroke: #b0b0b0; stroke-width: 0.8"/>
    <path d="M 17.986687 307.584 
L 17.986687 41.472 
" clip-path="url(#p0bbe6f3afa)" style="fill: none; stroke: #b0b0b0; stroke-width: 0.8"/>
    <path d="M 29.940706 307.584 
L 29.940706 41.472 
" clip-path="url(#p0bbe6f3afa)" style="fill: none; stroke: #b0b0b0; stroke-width: 0.8"/>
    <path d="M 40.295748 307.584 
L 40.295748 41.472 
" clip-path="url(#p0bbe6f3afa)" style="fill: none; stroke: #b0b0b0; stroke-width: 0.8"/>
    <path d="M 49.429542 307.584 
L 49.429542 41.472 
" clip-path="url(#p0bbe6f3afa)" style="fill: none; stroke: #b0b0b0; stroke-width: 0.8"/>
    <path d="M 111.351916 307.584 
L 111.351916 41.472 
" clip-path="url(#p0bbe6f3afa)" style="fill: none; stroke: #b0b0b0; stroke-width: 0.8"/>
    <path d="M 142.794771 307.584 
L 142.794771 41.472 
" clip-path="url(#p0bbe6f3afa)" style="fill: none; stroke: #b0b0b0; stroke-width: 0.8"/>
    <path d="M 165.103832 307.584 
L 165.103832 41.472 
" clip-path="url(#p0bbe6f3afa)" style="fill: none; stroke: #b0b0b0; stroke-width: 0.8"/>
    <path d="M 182.408084 307.584 
L 182.408084 41.472 
" clip-path="url(#p0bbe6f3afa)" style="fill: none; stroke: #b0b0b0; stroke-width: 0.8"/>
    <path d="M 196.546687 307.584 
L 196.546687 41.472 
" clip-path="url(#p0bbe6f3afa)" style="fill: none; stroke: #b0b0b0; stroke-width: 0.8"/>
    <path d="M 208.500706 307.584 
L 208.500706 41.472 
" clip-path="url(#p0bbe6f3afa)" style="fill: none; stroke: #b0b0b0; stroke-width: 0.8"/>
    <path d="M 218.855748 307.584 
L 218.855748 41.472 
" clip-path="url(#p0bbe6f3afa)" style="fill: none; stroke: #b0b0b0; stroke-width: 0.8"/>
    <path d="M 227.989542 307.584 
L 227.989542 41.472 
" clip-path="url(#p0bbe6f3afa)" style="fill: none; stroke: #b0b0b0; stroke-width: 0.8"/>
    <path d="M 289.911916 307.584 
L 289.911916 41.472 
" clip-path="url(#p0bbe6f3afa)" style="fill: none; stroke: #b0b0b0; stroke-width: 0.8"/>
    <path d="M 321.354771 307.584 
L 321.354771 41.472 
" clip-path="url(#p0bbe6f3afa)" style="fill: none; stroke: #b0b0b0; stroke-width: 0.8"/>
    <path d="M 343.663832 307.584 
L 343.663832 41.472 
" clip-path="url(#p0bbe6f3afa)" style="fill: none; stroke: #b0b0b0; stroke-width: 0.8"/>
    <path d="M 360.968084 307.584 
L 360.968084 41.472 
" clip-path="url(#p0bbe6f3afa)" style="fill: none; stroke: #b0b0b0; stroke-width: 0.8"/>
    <path d="M 375.106687 307.584 
L 375.106687 41.472 
" clip-path="url(#p0bbe6f3afa)" style="fill: none; stroke: #b0b0b0; stroke-width: 0.8"/>
    <path d="M 387.060706 307.584 
L 387.060706 41.472 
" clip-path="url(#p0bbe6f3afa)" style="fill: none; stroke: #b0b0b0; stroke-width: 0.8"/>
    <path d="M 397.415748 307.584 
L 397.415748 41.472 
" clip-path="url(#p0bbe6f3afa)" style="fill: none; stroke: #b0b0b0; stroke-width: 0.8"/>
    <path d="M 406.549542 307.584 
L 406.549542 41.472 
" clip-path="url(#p0bbe6f3afa)" style="fill: none; stroke: #b0b0b0; stroke-width: 0.8"/>
    <path clip-path="url(#p0bbe6f3afa)" style="fill: none; stroke: #b0b0b0; stroke-width: 0.8"/>
    <path clip-path="url(#p0bbe6f3afa)" style="fill: none; stroke: #b0b0b0; stroke-width: 0.8"/>
    <path clip-path="url(#p0bbe6f3afa)" style="fill: none; stroke: #b0b0b0; stroke-width: 0.8"/>
    <path clip-path="url(#p0bbe6f3afa)" style="fill: none; stroke: #b0b0b0; stroke-width: 0.8"/>
    <path clip-path="url(#p0bbe6f3afa)" style="fill: none; stroke: #b0b0b0; stroke-width: 0.8"/>
    <path clip-path="url(#p0bbe6f3afa)" style="fill: none; stroke: #b0b0b0; stroke-width: 0.8"/>
    <path clip-path="url(#p0bbe6f3afa)" style="fill: none; stroke: #b0b0b0; stroke-width: 0.8"/>
    <path clip-path="url(#p0bbe6f3afa)" style="fill: none; stroke: #b0b0b0; stroke-width: 0.8"/>
    <path clip-path="url(#p0bbe6f3afa)" style="fill: none; stroke: #b0b0b0; stroke-width: 0.8"/>
    <path clip-path="url(#p0bbe6f3afa)" style="fill: none; stroke: #b0b0b0; stroke-width: 0.8"/>
    <path clip-path="url(#p0bbe6f3afa)" style="fill: none; stroke: #b0b0b0; stroke-width: 0.8"/>
    <path clip-path="url(#p0bbe6f3afa)" style="fill: none; stroke: #b0b0b0; stroke-width: 0.8"/>
    <path clip-path="url(#p0bbe6f3afa)" style="fill: none; stroke: #b0b0b0; stroke-width: 0.8"/>
    <path clip-path="url(#p0bbe6f3afa)" style="fill: none; stroke: #b0b0b0; stroke-width: 0.8"/>
    <path clip-path="url(#p0bbe6f3afa)" style="fill: none; stroke: #b0b0b0; stroke-width: 0.8"/>
    <path clip-path="url(#p0bbe6f3afa)" style="fill: none; stroke: #b0b0b0; stroke-width: 0.8"/>
    <path d="M 57.6 307.584 
L 414.72 307.584 
" clip-path="url(#p0bbe6f3afa)" style="fill: none; stroke: #b0b0b0; stroke-width: 0.8"/>
    <path d="M 57.6 263.232 
L 414.72 263.232 
" clip-path="url(#p0bbe6f3afa)" style="fill: none; stroke: #b0b0b0; stroke-width: 0.8"/>
    <path d="M 57.6 218.88 
L 414.72 218.88 
" clip-path="url(#p0bbe6f3afa)" style="fill: none; stroke: #b0b0b0; stroke-width: 0.8"/>
    <path d="M 57.6 174.528 
L 414.72 174.528 
" clip-path="url(#p0bbe6f3afa)" style="fill: none; stroke: #b0b0b0; stroke-width: 0.8"/>
    <path d="M 57.6 130.176 
L 414.72 130.176 
" clip-path="url(#p0bbe6f3afa)" style="fill: none; stroke: #b0b0b0; stroke-width: 0.8"/>
    <path d="M 57.6 85.824 
L 414.72 85.824 
" clip-path="url(#p0bbe6f3afa)" style="fill: none; stroke: #b0b0b0; stroke-width: 0.8"/>
    <path d="M 57.6 41.472 
L 414.72 41.472 
" clip-path="url(#p0bbe6f3afa)" style="fill: none; stroke: #b0b0b0; stroke-width: 0.8"/>
   </g>
   <g id="line2d_1">
    <path d="M 142.794771 130.176 
L 236.16 130.176 
L 375.106687 263.233176 
" clip-path="url(#p0bbe6f3afa)" style="fill: none; stroke: #000000; stroke-width: 1.5; stroke-linecap: square"/>
   </g>
   <g id="mpl_toolkits.axisartist.axis_artist_1">
    <defs>
     <path id="m25031059cb" d="M 0 0 
L 0 -3.5 
" style="stroke: #000000; stroke-width: 0.8"/>
    </defs>
    <g>
     <use xlink:href="#m25031059cb" x="57.6" y="307.584" style="fill: none; stroke: #000000; stroke-width: 0.8"/>
    </g>
    <g>
     <use xlink:href="#m25031059cb" x="236.16" y="307.584" style="fill: none; stroke: #000000; stroke-width: 0.8"/>
    </g>
    <g>
     <use xlink:href="#m25031059cb" x="414.72" y="307.584" style="fill: none; stroke: #000000; stroke-width: 0.8"/>
    </g>
    <g id="text_1">
     <!-- 10 -->
     <g transform="translate(52.0625 317.82775) scale(0.1 -0.1)">
      <defs>
       <path id="Cambria-31" d="M 2172 816 
Q 2172 634 2192 542 
Q 2213 450 2264 392 
Q 2316 334 2412 301 
Q 2509 269 2656 251 
Q 2803 234 3044 228 
L 3044 0 
L 734 0 
L 734 228 
Q 1081 244 1229 270 
Q 1378 297 1456 350 
Q 1534 403 1570 500 
Q 1606 597 1606 816 
L 1606 3350 
Q 1606 3475 1562 3533 
Q 1519 3591 1434 3591 
Q 1334 3591 1150 3487 
Q 966 3384 694 3203 
L 556 3444 
L 2019 4316 
L 2191 4316 
Q 2172 4016 2172 3484 
L 2172 816 
z
" transform="scale(0.015625)"/>
       <path id="Cambria-30" d="M 1738 -50 
Q 1063 -50 733 481 
Q 403 1013 403 2094 
Q 403 2669 504 3087 
Q 606 3506 789 3779 
Q 972 4053 1228 4184 
Q 1484 4316 1788 4316 
Q 2472 4316 2806 3787 
Q 3141 3259 3141 2191 
Q 3141 1084 2783 517 
Q 2425 -50 1738 -50 
z
M 1013 2188 
Q 1013 1169 1202 692 
Q 1391 216 1788 216 
Q 2166 216 2348 664 
Q 2531 1113 2531 2053 
Q 2531 2772 2437 3217 
Q 2344 3663 2176 3856 
Q 2009 4050 1772 4050 
Q 1556 4050 1411 3922 
Q 1266 3794 1177 3553 
Q 1088 3313 1050 2967 
Q 1013 2622 1013 2188 
z
" transform="scale(0.015625)"/>
      </defs>
      <use xlink:href="#Cambria-31"/>
      <use xlink:href="#Cambria-30" x="55.371094"/>
     </g>
    </g>
    <g id="text_2">
     <!-- 100 -->
     <g transform="translate(227.85375 317.82775) scale(0.1 -0.1)">
      <use xlink:href="#Cambria-31"/>
      <use xlink:href="#Cambria-30" x="55.371094"/>
      <use xlink:href="#Cambria-30" x="110.742188"/>
     </g>
    </g>
    <g id="text_3">
     <!-- 1.000 -->
     <g transform="translate(402.619219 317.82775) scale(0.1 -0.1)">
      <defs>
       <path id="Cambria-2e" d="M 972 725 
L 972 0 
L 341 0 
L 341 725 
L 972 725 
z
" transform="scale(0.015625)"/>
      </defs>
      <use xlink:href="#Cambria-31"/>
      <use xlink:href="#Cambria-2e" x="55.371094"/>
      <use xlink:href="#Cambria-30" x="75.878906"/>
      <use xlink:href="#Cambria-30" x="131.25"/>
      <use xlink:href="#Cambria-30" x="186.621094"/>
     </g>
    </g>
    <defs>
     <path id="m3021f0e086" d="M 0 0 
L 0 -2 
" style="stroke: #000000; stroke-width: 0.8"/>
    </defs>
    <g>
     <use xlink:href="#m3021f0e086" x="111.351916" y="307.584" style="fill: none; stroke: #000000; stroke-width: 0.8"/>
    </g>
    <g>
     <use xlink:href="#m3021f0e086" x="142.794771" y="307.584" style="fill: none; stroke: #000000; stroke-width: 0.8"/>
    </g>
    <g>
     <use xlink:href="#m3021f0e086" x="165.103832" y="307.584" style="fill: none; stroke: #000000; stroke-width: 0.8"/>
    </g>
    <g>
     <use xlink:href="#m3021f0e086" x="182.408084" y="307.584" style="fill: none; stroke: #000000; stroke-width: 0.8"/>
    </g>
    <g>
     <use xlink:href="#m3021f0e086" x="196.546687" y="307.584" style="fill: none; stroke: #000000; stroke-width: 0.8"/>
    </g>
    <g>
     <use xlink:href="#m3021f0e086" x="208.500706" y="307.584" style="fill: none; stroke: #000000; stroke-width: 0.8"/>
    </g>
    <g>
     <use xlink:href="#m3021f0e086" x="218.855748" y="307.584" style="fill: none; stroke: #000000; stroke-width: 0.8"/>
    </g>
    <g>
     <use xlink:href="#m3021f0e086" x="227.989542" y="307.584" style="fill: none; stroke: #000000; stroke-width: 0.8"/>
    </g>
    <g>
     <use xlink:href="#m3021f0e086" x="289.911916" y="307.584" style="fill: none; stroke: #000000; stroke-width: 0.8"/>
    </g>
    <g>
     <use xlink:href="#m3021f0e086" x="321.354771" y="307.584" style="fill: none; stroke: #000000; stroke-width: 0.8"/>
    </g>
    <g>
     <use xlink:href="#m3021f0e086" x="343.663832" y="307.584" style="fill: none; stroke: #000000; stroke-width: 0.8"/>
    </g>
    <g>
     <use xlink:href="#m3021f0e086" x="360.968084" y="307.584" style="fill: none; stroke: #000000; stroke-width: 0.8"/>
    </g>
    <g>
     <use xlink:href="#m3021f0e086" x="375.106687" y="307.584" style="fill: none; stroke: #000000; stroke-width: 0.8"/>
    </g>
    <g>
     <use xlink:href="#m3021f0e086" x="387.060706" y="307.584" style="fill: none; stroke: #000000; stroke-width: 0.8"/>
    </g>
    <g>
     <use xlink:href="#m3021f0e086" x="397.415748" y="307.584" style="fill: none; stroke: #000000; stroke-width: 0.8"/>
    </g>
    <g>
     <use xlink:href="#m3021f0e086" x="406.549542" y="307.584" style="fill: none; stroke: #000000; stroke-width: 0.8"/>
    </g>
    <g id="patch_3">
     <path d="M 57.6 307.584 
L 414.72 307.584 
L 423.601966 307.584 
" style="fill: none; stroke: #000000; stroke-linecap: round"/>
     <path d="M 419.601966 305.584 
L 423.601966 307.584 
L 419.601966 309.584 
z
" style="stroke: #000000; stroke-linecap: round"/>
    </g>
   </g>
   <g id="mpl_toolkits.axisartist.axis_artist_2">
    <defs>
     <path id="m68ae058dfe" d="M 0 0 
L 3.5 0 
" style="stroke: #000000; stroke-width: 0.8"/>
    </defs>
    <g>
     <use xlink:href="#m68ae058dfe" x="57.6" y="307.584" style="fill: none; stroke: #000000; stroke-width: 0.8"/>
    </g>
    <g>
     <use xlink:href="#m68ae058dfe" x="57.6" y="263.232" style="fill: none; stroke: #000000; stroke-width: 0.8"/>
    </g>
    <g>
     <use xlink:href="#m68ae058dfe" x="57.6" y="218.88" style="fill: none; stroke: #000000; stroke-width: 0.8"/>
    </g>
    <g>
     <use xlink:href="#m68ae058dfe" x="57.6" y="174.528" style="fill: none; stroke: #000000; stroke-width: 0.8"/>
    </g>
    <g>
     <use xlink:href="#m68ae058dfe" x="57.6" y="130.176" style="fill: none; stroke: #000000; stroke-width: 0.8"/>
    </g>
    <g>
     <use xlink:href="#m68ae058dfe" x="57.6" y="85.824" style="fill: none; stroke: #000000; stroke-width: 0.8"/>
    </g>
    <g>
     <use xlink:href="#m68ae058dfe" x="57.6" y="41.472" style="fill: none; stroke: #000000; stroke-width: 0.8"/>
    </g>
    <g id="text_4">
     <!-- 50 -->
     <g transform="translate(43.025 310.02775) scale(0.1 -0.1)">
      <defs>
       <path id="Cambria-35" d="M 469 172 
L 469 834 
L 847 834 
Q 941 516 1130 366 
Q 1319 216 1619 216 
Q 2034 216 2246 466 
Q 2459 716 2459 1213 
Q 2459 1544 2346 1761 
Q 2234 1978 2043 2075 
Q 1853 2172 1600 2172 
Q 1388 2172 1234 2145 
Q 1081 2119 906 2063 
L 656 2209 
L 656 4266 
L 2378 4266 
Q 2484 4266 2531 4283 
Q 2578 4300 2606 4336 
Q 2634 4372 2672 4472 
L 2916 4472 
L 2869 3747 
L 1072 3747 
L 1072 2375 
Q 1234 2444 1425 2478 
Q 1616 2513 1806 2513 
Q 2178 2513 2465 2361 
Q 2753 2209 2909 1929 
Q 3066 1650 3066 1281 
Q 3066 863 2891 563 
Q 2716 263 2384 106 
Q 2053 -50 1600 -50 
Q 1059 -50 469 172 
z
" transform="scale(0.015625)"/>
      </defs>
      <use xlink:href="#Cambria-35"/>
      <use xlink:href="#Cambria-30" x="55.371094"/>
     </g>
    </g>
    <g id="text_5">
     <!-- 55 -->
     <g transform="translate(43.025 265.67575) scale(0.1 -0.1)">
      <use xlink:href="#Cambria-35"/>
      <use xlink:href="#Cambria-35" x="55.371094"/>
     </g>
    </g>
    <g id="text_6">
     <!-- 60 -->
     <g transform="translate(43.025 221.32375) scale(0.1 -0.1)">
      <defs>
       <path id="Cambria-36" d="M 2847 4144 
L 2847 3991 
Q 2366 3991 1994 3784 
Q 1622 3578 1376 3178 
Q 1131 2778 1031 2228 
L 1063 2216 
Q 1325 2403 1579 2490 
Q 1834 2578 2131 2578 
Q 2484 2578 2732 2423 
Q 2981 2269 3106 1989 
Q 3231 1709 3231 1334 
Q 3231 928 3075 617 
Q 2919 306 2592 128 
Q 2266 -50 1788 -50 
Q 1103 -50 754 375 
Q 406 800 406 1628 
Q 406 2184 581 2668 
Q 756 3153 1078 3514 
Q 1400 3875 1825 4083 
Q 2250 4291 2719 4316 
L 2847 4144 
z
M 1916 2250 
Q 1763 2250 1620 2215 
Q 1478 2181 1353 2115 
Q 1228 2050 1109 1950 
Q 1072 1916 1053 1878 
Q 1022 1819 1012 1731 
Q 1003 1644 1003 1438 
Q 1003 841 1203 528 
Q 1403 216 1809 216 
Q 2044 216 2203 297 
Q 2363 378 2461 520 
Q 2559 663 2601 855 
Q 2644 1047 2644 1272 
Q 2644 1734 2453 1992 
Q 2263 2250 1916 2250 
z
" transform="scale(0.015625)"/>
      </defs>
      <use xlink:href="#Cambria-36"/>
      <use xlink:href="#Cambria-30" x="55.371094"/>
     </g>
    </g>
    <g id="text_7">
     <!-- 65 -->
     <g transform="translate(43.025 176.97175) scale(0.1 -0.1)">
      <use xlink:href="#Cambria-36"/>
      <use xlink:href="#Cambria-35" x="55.371094"/>
     </g>
    </g>
    <g id="text_8">
     <!-- 70 -->
     <g transform="translate(43.025 132.61975) scale(0.1 -0.1)">
      <defs>
       <path id="Cambria-37" d="M 3206 4116 
L 1388 -22 
L 934 -22 
L 934 131 
L 2619 3697 
L 2619 3744 
L 1244 3744 
Q 1116 3744 1039 3720 
Q 963 3697 911 3653 
Q 859 3609 825 3537 
Q 791 3466 731 3253 
L 463 3253 
L 525 4266 
L 3206 4266 
L 3206 4116 
z
" transform="scale(0.015625)"/>
      </defs>
      <use xlink:href="#Cambria-37"/>
      <use xlink:href="#Cambria-30" x="55.371094"/>
     </g>
    </g>
    <g id="text_9">
     <!-- 75 -->
     <g transform="translate(43.025 88.26775) scale(0.1 -0.1)">
      <use xlink:href="#Cambria-37"/>
      <use xlink:href="#Cambria-35" x="55.371094"/>
     </g>
    </g>
    <g id="text_10">
     <!-- 80 -->
     <g transform="translate(43.025 43.91575) scale(0.1 -0.1)">
      <defs>
       <path id="Cambria-38" d="M 2475 2253 
L 2481 2213 
Q 2834 2075 3015 1811 
Q 3197 1547 3197 1175 
Q 3197 809 3022 531 
Q 2847 253 2514 101 
Q 2181 -50 1738 -50 
Q 1322 -50 1008 89 
Q 694 228 520 495 
Q 347 763 347 1125 
Q 347 1397 440 1597 
Q 534 1797 686 1926 
Q 838 2056 1069 2163 
L 1063 2203 
Q 391 2494 391 3200 
Q 391 3522 567 3775 
Q 744 4028 1070 4172 
Q 1397 4316 1794 4316 
Q 2244 4316 2550 4189 
Q 2856 4063 3011 3823 
Q 3166 3584 3166 3250 
Q 3166 2906 2997 2657 
Q 2828 2409 2475 2253 
z
M 978 3228 
Q 978 3044 1022 2881 
Q 1066 2719 1162 2600 
Q 1259 2481 1414 2411 
Q 1569 2341 1794 2341 
Q 2053 2341 2229 2442 
Q 2406 2544 2492 2739 
Q 2578 2934 2578 3191 
Q 2578 3472 2476 3667 
Q 2375 3863 2197 3956 
Q 2019 4050 1788 4050 
Q 1394 4050 1186 3836 
Q 978 3622 978 3228 
z
M 944 1178 
Q 944 975 991 798 
Q 1038 622 1139 494 
Q 1241 366 1400 291 
Q 1559 216 1788 216 
Q 2044 216 2226 320 
Q 2409 425 2504 631 
Q 2600 838 2600 1119 
Q 2600 1419 2497 1636 
Q 2394 1853 2206 1967 
Q 2019 2081 1772 2081 
Q 1541 2081 1383 2009 
Q 1225 1938 1126 1816 
Q 1028 1694 986 1530 
Q 944 1366 944 1178 
z
" transform="scale(0.015625)"/>
      </defs>
      <use xlink:href="#Cambria-38"/>
      <use xlink:href="#Cambria-30" x="55.371094"/>
     </g>
    </g>
    <g id="patch_4">
     <path d="M 57.6 307.584 
L 57.6 41.472 
L 57.6 32.590034 
" style="fill: none; stroke: #000000; stroke-linecap: round"/>
     <path d="M 55.6 36.590034 
L 57.6 32.590034 
L 59.6 36.590034 
z
" style="stroke: #000000; stroke-linecap: round"/>
    </g>
   </g>
   <g id="text_11">
    <!-- X -->
    <g transform="translate(432.576 320.8896) scale(0.1 -0.1)">
     <defs>
      <path id="Cambria-58" d="M 1503 4266 
L 1503 4113 
Q 1353 4091 1287 4031 
Q 1222 3972 1222 3869 
Q 1222 3781 1281 3650 
Q 1341 3519 1450 3338 
L 1903 2578 
L 2350 3300 
Q 2450 3463 2500 3559 
Q 2550 3656 2570 3722 
Q 2591 3788 2591 3856 
Q 2591 3953 2534 4020 
Q 2478 4088 2347 4113 
L 2347 4266 
L 3506 4266 
L 3506 4113 
Q 3391 4075 3298 4003 
Q 3206 3931 3101 3793 
Q 2997 3656 2803 3359 
L 2097 2266 
L 2891 959 
Q 3059 681 3132 570 
Q 3206 459 3270 382 
Q 3334 306 3407 250 
Q 3481 194 3591 153 
L 3591 0 
L 2219 0 
L 2219 153 
Q 2363 178 2431 233 
Q 2500 288 2500 397 
Q 2500 484 2454 590 
Q 2409 697 2316 853 
L 1750 1797 
L 1153 819 
Q 1003 572 1003 413 
Q 1003 309 1059 243 
Q 1116 178 1247 153 
L 1247 0 
L 66 0 
L 66 153 
Q 181 188 256 236 
Q 331 284 400 359 
Q 469 434 553 550 
Q 638 666 822 953 
L 1559 2103 
L 678 3553 
Q 553 3753 489 3843 
Q 425 3934 370 3990 
Q 316 4047 272 4070 
Q 228 4094 172 4113 
L 172 4266 
L 1503 4266 
z
" transform="scale(0.015625)"/>
     </defs>
     <use xlink:href="#Cambria-58"/>
    </g>
   </g>
   <g id="text_12">
    <!-- Y -->
    <g transform="translate(39.744 28.1664) scale(0.1 -0.1)">
     <defs>
      <path id="Cambria-59" d="M 1506 1791 
L 644 3394 
Q 488 3684 406 3809 
Q 325 3934 244 4006 
Q 163 4078 56 4113 
L 56 4266 
L 1388 4266 
L 1388 4113 
Q 1094 4078 1094 3859 
Q 1094 3769 1136 3656 
Q 1178 3544 1288 3338 
L 1913 2147 
L 2528 3234 
Q 2653 3456 2704 3598 
Q 2756 3741 2756 3859 
Q 2756 3972 2689 4036 
Q 2622 4100 2491 4113 
L 2491 4266 
L 3675 4266 
L 3675 4113 
Q 3547 4066 3450 3983 
Q 3353 3900 3253 3759 
Q 3153 3619 2959 3284 
L 2091 1803 
L 2091 791 
Q 2091 613 2109 503 
Q 2128 394 2172 328 
Q 2216 263 2287 225 
Q 2359 188 2513 153 
L 2513 0 
L 1084 0 
L 1084 153 
Q 1234 184 1306 220 
Q 1378 256 1422 323 
Q 1466 391 1486 500 
Q 1506 609 1506 791 
L 1506 1791 
z
" transform="scale(0.015625)"/>
     </defs>
     <use xlink:href="#Cambria-59"/>
    </g>
   </g>
   <g id="text_13">
    <!-- (1) -->
    <g style="fill: #808080" transform="translate(332.392582 191.73985) scale(0.16 -0.16)">
     <defs>
      <path id="Cambria-Bold-28" d="M 2478 -1359 
Q 1888 -1359 1514 -1200 
Q 1141 -1041 931 -717 
Q 722 -394 626 128 
Q 531 650 531 1550 
Q 531 2456 626 2982 
Q 722 3509 933 3836 
Q 1144 4163 1520 4323 
Q 1897 4484 2478 4484 
L 2478 4141 
Q 2278 4141 2128 4100 
Q 1978 4059 1866 3947 
Q 1731 3813 1653 3566 
Q 1559 3281 1515 2795 
Q 1472 2309 1472 1575 
Q 1472 897 1513 428 
Q 1553 -75 1647 -381 
Q 1725 -634 1841 -775 
Q 1938 -891 2075 -950 
Q 2228 -1016 2478 -1016 
L 2478 -1359 
z
" transform="scale(0.015625)"/>
      <path id="Cambria-Bold-31" d="M 2506 872 
Q 2506 691 2526 598 
Q 2547 506 2598 448 
Q 2650 391 2747 358 
Q 2844 325 2991 308 
Q 3138 291 3378 284 
L 3378 0 
L 681 0 
L 681 284 
Q 1028 300 1176 326 
Q 1325 353 1403 406 
Q 1481 459 1517 556 
Q 1553 653 1553 872 
L 1553 3131 
Q 1553 3259 1504 3315 
Q 1456 3372 1372 3372 
Q 1294 3372 1151 3300 
Q 1009 3228 684 3006 
L 494 3338 
L 2125 4316 
L 2525 4316 
Q 2506 4016 2506 3484 
L 2506 872 
z
" transform="scale(0.015625)"/>
      <path id="Cambria-Bold-29" d="M 134 4484 
Q 716 4484 1089 4328 
Q 1463 4172 1675 3851 
Q 1888 3531 1984 3007 
Q 2081 2484 2081 1575 
Q 2081 669 1986 142 
Q 1891 -384 1680 -711 
Q 1469 -1038 1092 -1198 
Q 716 -1359 134 -1359 
L 134 -1016 
Q 334 -1016 484 -975 
Q 634 -934 747 -822 
Q 881 -688 959 -441 
Q 1053 -156 1097 330 
Q 1141 816 1141 1550 
Q 1141 2228 1100 2697 
Q 1059 3200 966 3506 
Q 888 3759 772 3900 
Q 675 4016 538 4075 
Q 384 4141 134 4141 
L 134 4484 
z
" transform="scale(0.015625)"/>
     </defs>
     <use xlink:href="#Cambria-Bold-28"/>
     <use xlink:href="#Cambria-Bold-31" x="40.820312"/>
     <use xlink:href="#Cambria-Bold-29" x="100.048828"/>
    </g>
   </g>
   <g id="text_14">
    <!-- (2) -->
    <g style="fill: #808080" transform="translate(278.640666 253.83265) scale(0.16 -0.16)">
     <defs>
      <path id="Cambria-Bold-32" d="M 2356 766 
Q 2559 766 2659 795 
Q 2759 825 2817 898 
Q 2875 972 2913 1119 
L 3272 1119 
L 3200 0 
L 338 0 
L 338 206 
Q 469 506 717 859 
Q 966 1213 1322 1631 
Q 1659 2028 1836 2284 
Q 2013 2541 2100 2769 
Q 2188 2997 2188 3241 
Q 2188 3584 2034 3779 
Q 1881 3975 1616 3975 
Q 1366 3975 1202 3798 
Q 1038 3622 963 3241 
L 400 3241 
L 400 3978 
Q 781 4131 997 4192 
Q 1213 4253 1423 4284 
Q 1634 4316 1881 4316 
Q 2341 4316 2631 4192 
Q 2922 4069 3051 3858 
Q 3181 3647 3181 3366 
Q 3181 3119 3089 2906 
Q 2997 2694 2770 2422 
Q 2544 2150 2006 1644 
Q 1766 1409 1556 1170 
Q 1347 931 1247 797 
L 1247 766 
L 2356 766 
z
" transform="scale(0.015625)"/>
     </defs>
     <use xlink:href="#Cambria-Bold-28"/>
     <use xlink:href="#Cambria-Bold-32" x="40.820312"/>
     <use xlink:href="#Cambria-Bold-29" x="100.048828"/>
    </g>
   </g>
  </g>
 </g>
 <defs>
  <clipPath id="p0bbe6f3afa">
   <rect x="57.6" y="41.472" width="357.12" height="266.112"/>
  </clipPath>
 </defs>
</svg>
