<?xml version="1.0" encoding="UTF-8" standalone="no"?><!DOCTYPE svg PUBLIC "-//W3C//DTD SVG 1.1//EN" "http://www.w3.org/Graphics/SVG/1.1/DTD/svg11.dtd"><svg width="100%" height="100%" viewBox="0 0 150 250" version="1.1" xmlns="http://www.w3.org/2000/svg" xmlns:xlink="http://www.w3.org/1999/xlink" xml:space="preserve" xmlns:serif="http://www.serif.com/" style="fill-rule:evenodd;clip-rule:evenodd;stroke-linecap:round;stroke-linejoin:round;stroke-miterlimit:2;"><g id="Codings"><g id="TEXT" transform="matrix(16,0,0,16,12.2108,27.4126)"></g><text x="-0.172px" y="27.413px" style="font-family:'Cambria';font-size:16px;">1</text><g id="LEADER"><path id="LWPOLYLINE" d="M40.227,33.911c-0.194,0.554 0.098,1.161 0.652,1.355c0.554,0.194 1.16,-0.098 1.354,-0.652c0.195,-0.554 -0.097,-1.161 -0.651,-1.355c-0.555,-0.194 -1.161,0.098 -1.355,0.652l1.003,0.351l-1.003,-0.351Z" style="fill-rule:nonzero;"/><path id="LINE" d="M40.227,33.911l-5.618,-1.967" style="fill:none;stroke:#000;stroke-width:0.71px;"/><path id="LINE1" serif:id="LINE" d="M34.609,31.944l-22.045,-7.72" style="fill:none;stroke:#000;stroke-width:0.71px;"/><path id="LINE2" serif:id="LINE" d="M12.564,24.224l-5.315,-0" style="fill:none;stroke:#000;stroke-width:0.71px;"/></g><g id="TEXT1" serif:id="TEXT" transform="matrix(16,0,0,16,12.2108,78.2289)"></g><text x="-0.172px" y="78.229px" style="font-family:'Cambria';font-size:16px;">4</text><g id="LEADER1" serif:id="LEADER"><path id="LWPOLYLINE1" serif:id="LWPOLYLINE" d="M45.071,66.163c0.154,0.566 0.739,0.9 1.305,0.745c0.567,-0.155 0.9,-0.739 0.746,-1.305c-0.155,-0.567 -0.739,-0.9 -1.306,-0.746c-0.566,0.155 -0.9,0.739 -0.745,1.306l1.025,-0.28l-1.025,0.28Z" style="fill-rule:nonzero;"/><path id="LINE3" serif:id="LINE" d="M45.071,66.163l-5.743,1.568" style="fill:none;stroke:#000;stroke-width:0.71px;"/><path id="LINE4" serif:id="LINE" d="M39.328,67.731l-26.764,7.309" style="fill:none;stroke:#000;stroke-width:0.71px;"/><path id="LINE5" serif:id="LINE" d="M12.564,75.04l-5.315,-0" style="fill:none;stroke:#000;stroke-width:0.71px;"/></g><g id="TEXT2" serif:id="TEXT" transform="matrix(16,0,0,16,150.593,26.3962)"></g><text x="141.733px" y="26.396px" style="font-family:'Cambria';font-size:16px;">2</text><g id="LEADER2" serif:id="LEADER"><path id="LWPOLYLINE2" serif:id="LWPOLYLINE" d="M105.253,33.772c-0.209,-0.548 -0.824,-0.823 -1.372,-0.613c-0.549,0.209 -0.823,0.824 -0.614,1.372c0.21,0.549 0.824,0.823 1.373,0.614c0.548,-0.21 0.823,-0.824 0.613,-1.373l-0.993,0.38l0.993,-0.38Z" style="fill-rule:nonzero;"/><path id="LINE6" serif:id="LINE" d="M105.253,33.772l5.561,-2.125" style="fill:none;stroke:#000;stroke-width:0.71px;"/><path id="LINE7" serif:id="LINE" d="M110.814,31.647l22.081,-8.44" style="fill:none;stroke:#000;stroke-width:0.71px;"/><path id="LINE8" serif:id="LINE" d="M132.895,23.207l5.315,0" style="fill:none;stroke:#000;stroke-width:0.71px;"/></g><g id="TEXT3" serif:id="TEXT" transform="matrix(16,0,0,16,150.593,77.3561)"></g><text x="141.733px" y="77.356px" style="font-family:'Cambria';font-size:16px;">3</text><g id="LEADER3" serif:id="LEADER"><path id="LWPOLYLINE3" serif:id="LWPOLYLINE" d="M100.98,66.475c0.138,-0.571 -0.214,-1.145 -0.784,-1.283c-0.571,-0.137 -1.145,0.214 -1.283,0.785c-0.137,0.57 0.214,1.144 0.785,1.282c0.57,0.138 1.144,-0.214 1.282,-0.784l-1.033,-0.249l1.033,0.249Z" style="fill-rule:nonzero;"/><path id="LINE9" serif:id="LINE" d="M100.98,66.475l5.787,1.395" style="fill:none;stroke:#000;stroke-width:0.71px;"/><path id="LINE10" serif:id="LINE" d="M106.767,67.87l26.128,6.297" style="fill:none;stroke:#000;stroke-width:0.71px;"/><path id="LINE11" serif:id="LINE" d="M132.895,74.167l5.315,0" style="fill:none;stroke:#000;stroke-width:0.71px;"/></g><g id="TEXT4" serif:id="TEXT" transform="matrix(16,0,0,16,27.2545,133.307)"></g><text x="17.286px" y="133.307px" style="font-family:'Cambria';font-size:16px;">A</text><g id="TEXT5" serif:id="TEXT" transform="matrix(16,0,0,16,75.9995,133.222)"></g><text x="66.999px" y="133.222px" style="font-family:'Cambria';font-size:16px;">C</text><g id="TEXT6" serif:id="TEXT" transform="matrix(16,0,0,16,126.554,133.222)"></g><text x="117.351px" y="133.222px" style="font-family:'Cambria';font-size:16px;">E</text><g id="TEXT7" serif:id="TEXT" transform="matrix(16,0,0,16,27.0244,183.658)"></g><text x="17.243px" y="183.658px" style="font-family:'Cambria';font-size:16px;">B</text><g id="TEXT8" serif:id="TEXT" transform="matrix(16,0,0,16,77.3728,183.616)"></g><text x="66.787px" y="183.616px" style="font-family:'Cambria';font-size:16px;">D</text><g id="TEXT9" serif:id="TEXT" transform="matrix(16,0,0,16,126.83,183.318)"></g><text x="118.244px" y="183.318px" style="font-family:'Cambria';font-size:16px;">F</text><g id="TEXT10" serif:id="TEXT" transform="matrix(16,0,0,16,26.7378,233.797)"></g><text x="18.136px" y="233.797px" style="font-family:'Cambria';font-size:16px;">Z</text><path id="LINE12" serif:id="LINE" d="M7.787,173.837l0,-7.341" style="fill:none;stroke:#000;stroke-width:0.71px;"/><path id="LINE13" serif:id="LINE" d="M7.809,123.841l0,-7.341" style="fill:none;stroke:#000;stroke-width:0.71px;"/><path id="LINE14" serif:id="LINE" d="M21.28,243.686l3.333,0" style="fill:none;stroke:#000;stroke-width:0.71px;"/><path id="LINE15" serif:id="LINE" d="M21.28,246.985l-0,-3.299" style="fill:none;stroke:#000;stroke-width:0.71px;"/><path id="LINE16" serif:id="LINE" d="M21.288,196.97l-0,-3.299" style="fill:none;stroke:#000;stroke-width:0.71px;"/><path id="LINE17" serif:id="LINE" d="M21.31,146.974l-0,-3.299" style="fill:none;stroke:#000;stroke-width:0.71px;"/><path id="LINE18" serif:id="LINE" d="M24.613,243.686l0,3.299" style="fill:none;stroke:#000;stroke-width:0.71px;"/><path id="LINE19" serif:id="LINE" d="M24.621,193.671l0,3.299" style="fill:none;stroke:#000;stroke-width:0.71px;"/><path id="LINE20" serif:id="LINE" d="M24.643,143.675l0,3.299" style="fill:none;stroke:#000;stroke-width:0.71px;"/><path id="LINE21" serif:id="LINE" d="M35.622,186.838l0,5.379" style="fill:none;stroke:#000;stroke-width:0.71px;"/><path id="LINE22" serif:id="LINE" d="M38.144,116.5l0,7.341" style="fill:none;stroke:#000;stroke-width:0.71px;"/><path id="LINE23" serif:id="LINE" d="M43.71,38.289l-0,-14.039" style="fill:none;stroke:#000;stroke-width:0.71px;"/><path id="LINE24" serif:id="LINE" d="M48.493,73.451l0,-10.288" style="fill:none;stroke:#000;stroke-width:0.71px;"/><path id="LINE25" serif:id="LINE" d="M60.286,142.209l0,-5.38" style="fill:none;stroke:#000;stroke-width:0.71px;"/><path id="LINE26" serif:id="LINE" d="M60.302,192.17l-0,-5.38" style="fill:none;stroke:#000;stroke-width:0.71px;"/><path id="LINE27" serif:id="LINE" d="M69.54,82.545l0,-6.307" style="fill:none;stroke:#000;stroke-width:0.71px;"/><path id="LINE28" serif:id="LINE" d="M71.287,146.961l-0,-3.298" style="fill:none;stroke:#000;stroke-width:0.71px;"/><path id="LINE29" serif:id="LINE" d="M71.303,196.922l-0,-3.298" style="fill:none;stroke:#000;stroke-width:0.71px;"/><path id="LINE30" serif:id="LINE" d="M21.288,193.671l3.333,0" style="fill:none;stroke:#000;stroke-width:0.71px;"/><path id="LINE31" serif:id="LINE" d="M121.303,193.665l3.334,-0" style="fill:none;stroke:#000;stroke-width:0.71px;"/><path id="LINE32" serif:id="LINE" d="M71.303,193.624l3.333,-0" style="fill:none;stroke:#000;stroke-width:0.71px;"/><path id="LINE33" serif:id="LINE" d="M39.82,186.838l-4.198,-0" style="fill:none;stroke:#000;stroke-width:0.71px;"/><path id="LINE34" serif:id="LINE" d="M139.836,186.831l-4.198,-0" style="fill:none;stroke:#000;stroke-width:0.71px;"/><path id="LINE35" serif:id="LINE" d="M89.835,186.79l-4.198,0" style="fill:none;stroke:#000;stroke-width:0.71px;"/><path id="LINE36" serif:id="LINE" d="M60.302,186.79l-4.198,0" style="fill:none;stroke:#000;stroke-width:0.71px;"/><path id="LINE37" serif:id="LINE" d="M74.62,143.663l0,3.298" style="fill:none;stroke:#000;stroke-width:0.71px;"/><path id="LINE38" serif:id="LINE" d="M74.636,193.624l0,3.298" style="fill:none;stroke:#000;stroke-width:0.71px;"/><path id="LINE39" serif:id="LINE" d="M75.918,76.238l0,6.307" style="fill:none;stroke:#000;stroke-width:0.71px;"/><path id="LINE40" serif:id="LINE" d="M85.637,186.79l-0,5.38" style="fill:none;stroke:#000;stroke-width:0.71px;"/><path id="LINE41" serif:id="LINE" d="M88.121,116.487l0,7.341" style="fill:none;stroke:#000;stroke-width:0.71px;"/><path id="LINE42" serif:id="LINE" d="M96.966,63.163l-0,10.288" style="fill:none;stroke:#000;stroke-width:0.71px;"/><path id="LINE43" serif:id="LINE" d="M4.377,173.837l3.41,-0" style="fill:none;stroke:#000;stroke-width:0.71px;"/><path id="LINE44" serif:id="LINE" d="M138.138,173.83l3.41,-0" style="fill:none;stroke:#000;stroke-width:0.71px;"/><path id="LINE45" serif:id="LINE" d="M101.749,24.25l0,14.039" style="fill:none;stroke:#000;stroke-width:0.71px;"/><path id="LINE46" serif:id="LINE" d="M107.747,123.835l-0,-7.341" style="fill:none;stroke:#000;stroke-width:0.71px;"/><path id="LINE47" serif:id="LINE" d="M110.247,142.216l-0,-5.38" style="fill:none;stroke:#000;stroke-width:0.71px;"/><path id="LINE48" serif:id="LINE" d="M121.248,146.968l-0,-3.298" style="fill:none;stroke:#000;stroke-width:0.71px;"/><path id="LINE49" serif:id="LINE" d="M121.303,196.963l0,-3.298" style="fill:none;stroke:#000;stroke-width:0.71px;"/><path id="LINE50" serif:id="LINE" d="M124.581,143.67l0,3.298" style="fill:none;stroke:#000;stroke-width:0.71px;"/><path id="LINE51" serif:id="LINE" d="M124.637,193.665l-0,3.298" style="fill:none;stroke:#000;stroke-width:0.71px;"/><path id="LINE52" serif:id="LINE" d="M21.31,143.675l3.333,0" style="fill:none;stroke:#000;stroke-width:0.71px;"/><path id="LINE53" serif:id="LINE" d="M121.248,143.67l3.333,-0" style="fill:none;stroke:#000;stroke-width:0.71px;"/><path id="LINE54" serif:id="LINE" d="M71.287,143.663l3.333,-0" style="fill:none;stroke:#000;stroke-width:0.71px;"/><path id="LINE55" serif:id="LINE" d="M110.247,136.836l-4.198,0" style="fill:none;stroke:#000;stroke-width:0.71px;"/><path id="LINE56" serif:id="LINE" d="M60.286,136.829l-4.198,0" style="fill:none;stroke:#000;stroke-width:0.71px;"/><path id="LINE57" serif:id="LINE" d="M135.638,186.831l-0,5.379" style="fill:none;stroke:#000;stroke-width:0.71px;"/><path id="LINE58" serif:id="LINE" d="M138.138,166.489l-0,7.341" style="fill:none;stroke:#000;stroke-width:0.71px;"/><path id="LINE59" serif:id="LINE" d="M4.399,123.841l3.41,-0" style="fill:none;stroke:#000;stroke-width:0.71px;"/><path id="LINE60" serif:id="LINE" d="M38.144,123.841l3.41,-0" style="fill:none;stroke:#000;stroke-width:0.71px;"/><path id="LINE61" serif:id="LINE" d="M104.337,123.835l3.41,0" style="fill:none;stroke:#000;stroke-width:0.71px;"/><path id="LINE62" serif:id="LINE" d="M88.121,123.828l3.41,0" style="fill:none;stroke:#000;stroke-width:0.71px;"/><path id="LINE63" serif:id="LINE" d="M69.54,76.238l6.378,0" style="fill:none;stroke:#000;stroke-width:0.71px;"/><path id="LINE64" serif:id="LINE" d="M104.994,63.163l-8.028,0" style="fill:none;stroke:#000;stroke-width:0.71px;"/><path id="LINE65" serif:id="LINE" d="M48.493,63.163l-8.028,0" style="fill:none;stroke:#000;stroke-width:0.71px;"/><path id="LINE66" serif:id="LINE" d="M37.189,38.289l6.521,0" style="fill:none;stroke:#000;stroke-width:0.71px;"/><path id="LINE67" serif:id="LINE" d="M101.749,38.289l6.52,0" style="fill:none;stroke:#000;stroke-width:0.71px;"/><path id="CIRCLE" d="M72.729,91.545c24.993,0 45.284,-20.291 45.284,-45.283c-0,-24.993 -20.291,-45.284 -45.284,-45.284c-24.992,0 -45.283,20.291 -45.283,45.284c0,24.992 20.291,45.283 45.283,45.283Z" style="fill:none;stroke:#000;stroke-width:0.71px;"/><path id="CIRCLE1" serif:id="CIRCLE" d="M72.729,86.921c22.441,0 40.66,-18.219 40.66,-40.659c-0,-22.441 -18.219,-40.66 -40.66,-40.66c-22.44,0 -40.659,18.219 -40.659,40.66c0,22.44 18.219,40.659 40.659,40.659Z" style="fill:none;stroke:#000;stroke-width:0.71px;"/><path id="CIRCLE2" serif:id="CIRCLE" d="M72.729,82.728c20.127,-0 36.466,-16.34 36.466,-36.466c0,-20.126 -16.339,-36.466 -36.466,-36.466c-20.126,-0 -36.465,16.34 -36.465,36.466c-0,20.126 16.339,36.466 36.465,36.466Z" style="fill:none;stroke:#000;stroke-width:0.71px;"/><path id="ARC" d="M40.465,63.163c2.035,3.885 4.755,7.37 8.028,10.288" style="fill:none;stroke:#000;stroke-width:0.71px;"/><path id="ARC1" serif:id="ARC" d="M43.71,24.25c-3.154,4.159 -5.378,8.947 -6.521,14.039" style="fill:none;stroke:#000;stroke-width:0.71px;"/><path id="ARC2" serif:id="ARC" d="M69.54,82.545c2.122,0.187 4.257,0.187 6.378,0" style="fill:none;stroke:#000;stroke-width:0.71px;"/><path id="ARC3" serif:id="ARC" d="M96.966,73.451c3.273,-2.918 5.993,-6.403 8.028,-10.288" style="fill:none;stroke:#000;stroke-width:0.71px;"/><path id="ARC4" serif:id="ARC" d="M108.269,38.289c-1.142,-5.092 -3.366,-9.88 -6.52,-14.039" style="fill:none;stroke:#000;stroke-width:0.71px;"/><path id="ARC5" serif:id="ARC" d="M48.493,73.144c5.835,5.261 13.222,8.48 21.047,9.172" style="fill:none;stroke:#000;stroke-width:0.71px;"/><path id="ARC6" serif:id="ARC" d="M75.918,82.316c7.826,-0.692 15.213,-3.911 21.048,-9.172" style="fill:none;stroke:#000;stroke-width:0.71px;"/><path id="ARC7" serif:id="ARC" d="M37.424,38.289c-1.902,8.42 -0.731,17.242 3.299,24.874" style="fill:none;stroke:#000;stroke-width:0.71px;"/><path id="ARC8" serif:id="ARC" d="M104.736,63.163c4.03,-7.632 5.201,-16.454 3.299,-24.874" style="fill:none;stroke:#000;stroke-width:0.71px;"/><path id="ARC9" serif:id="ARC" d="M101.749,24.63c-6.831,-9.164 -17.589,-14.563 -29.02,-14.563c-11.43,-0 -22.188,5.399 -29.019,14.563" style="fill:none;stroke:#000;stroke-width:0.71px;"/><path id="CIRCLE3" serif:id="CIRCLE" d="M72.729,59.257c12.277,-0 22.244,-9.967 22.244,-22.243c-0,-12.276 -9.967,-22.243 -22.244,-22.243c-12.276,-0 -22.243,9.967 -22.243,22.243c0,12.276 9.967,22.243 22.243,22.243Z" style="fill:none;stroke:#000;stroke-width:0.71px;"/><path id="CIRCLE4" serif:id="CIRCLE" d="M122.914,149.253c11.729,0 21.252,-9.522 21.252,-21.251c-0,-11.729 -9.523,-21.251 -21.252,-21.251c-11.729,-0 -21.251,9.522 -21.251,21.251c0,11.729 9.522,21.251 21.251,21.251Z" style="fill:none;stroke:#000;stroke-width:0.71px;"/><path id="CIRCLE5" serif:id="CIRCLE" d="M72.954,149.247c11.729,-0 21.251,-9.523 21.251,-21.252c0,-11.729 -9.522,-21.251 -21.251,-21.251c-11.729,-0 -21.252,9.522 -21.252,21.251c0,11.729 9.523,21.252 21.252,21.252Z" style="fill:none;stroke:#000;stroke-width:0.71px;"/><path id="CIRCLE6" serif:id="CIRCLE" d="M22.977,149.259c11.729,-0 21.251,-9.522 21.251,-21.251c-0,-11.729 -9.522,-21.252 -21.251,-21.252c-11.729,0 -21.252,9.523 -21.252,21.252c0,11.729 9.523,21.251 21.252,21.251Z" style="fill:none;stroke:#000;stroke-width:0.71px;"/><path id="CIRCLE7" serif:id="CIRCLE" d="M22.955,199.255c11.729,0 21.251,-9.522 21.251,-21.251c0,-11.729 -9.522,-21.252 -21.251,-21.252c-11.729,0 -21.252,9.523 -21.252,21.252c0,11.729 9.523,21.251 21.252,21.251Z" style="fill:none;stroke:#000;stroke-width:0.71px;"/><path id="CIRCLE8" serif:id="CIRCLE" d="M122.97,199.248c11.729,0 21.251,-9.522 21.251,-21.251c0,-11.729 -9.522,-21.251 -21.251,-21.251c-11.729,-0 -21.251,9.522 -21.251,21.251c-0,11.729 9.522,21.251 21.251,21.251Z" style="fill:none;stroke:#000;stroke-width:0.71px;"/><path id="CIRCLE9" serif:id="CIRCLE" d="M72.969,199.207c11.729,0 21.252,-9.522 21.252,-21.251c-0,-11.729 -9.523,-21.251 -21.252,-21.251c-11.729,-0 -21.251,9.522 -21.251,21.251c0,11.729 9.522,21.251 21.251,21.251Z" style="fill:none;stroke:#000;stroke-width:0.71px;"/><path id="CIRCLE10" serif:id="CIRCLE" d="M22.947,249.27c11.729,0 21.251,-9.522 21.251,-21.251c0,-11.729 -9.522,-21.252 -21.251,-21.252c-11.729,0 -21.252,9.523 -21.252,21.252c0,11.729 9.523,21.251 21.252,21.251Z" style="fill:none;stroke:#000;stroke-width:0.71px;"/><path id="CIRCLE11" serif:id="CIRCLE" d="M122.914,147.064c10.521,-0 19.062,-8.541 19.062,-19.062c0,-10.52 -8.541,-19.062 -19.062,-19.062c-10.52,0 -19.061,8.542 -19.061,19.062c-0,10.521 8.541,19.062 19.061,19.062Z" style="fill:none;stroke:#000;stroke-width:0.71px;"/><path id="CIRCLE12" serif:id="CIRCLE" d="M72.954,147.057c10.52,0 19.062,-8.541 19.062,-19.062c-0,-10.52 -8.542,-19.062 -19.062,-19.062c-10.521,0 -19.062,8.542 -19.062,19.062c-0,10.521 8.541,19.062 19.062,19.062Z" style="fill:none;stroke:#000;stroke-width:0.71px;"/><path id="CIRCLE13" serif:id="CIRCLE" d="M22.977,147.069c10.52,0 19.061,-8.541 19.061,-19.061c0,-10.521 -8.541,-19.062 -19.061,-19.062c-10.521,-0 -19.062,8.541 -19.062,19.062c-0,10.52 8.541,19.061 19.062,19.061Z" style="fill:none;stroke:#000;stroke-width:0.71px;"/><path id="CIRCLE14" serif:id="CIRCLE" d="M22.955,197.066c10.52,-0 19.062,-8.542 19.062,-19.062c-0,-10.521 -8.542,-19.062 -19.062,-19.062c-10.521,-0 -19.062,8.541 -19.062,19.062c-0,10.52 8.541,19.062 19.062,19.062Z" style="fill:none;stroke:#000;stroke-width:0.71px;"/><path id="CIRCLE15" serif:id="CIRCLE" d="M122.97,197.059c10.521,-0 19.062,-8.542 19.062,-19.062c0,-10.521 -8.541,-19.062 -19.062,-19.062c-10.52,0 -19.062,8.541 -19.062,19.062c0,10.52 8.542,19.062 19.062,19.062Z" style="fill:none;stroke:#000;stroke-width:0.71px;"/><path id="CIRCLE16" serif:id="CIRCLE" d="M72.969,197.018c10.521,-0 19.062,-8.541 19.062,-19.062c0,-10.52 -8.541,-19.062 -19.062,-19.062c-10.52,0 -19.061,8.542 -19.061,19.062c-0,10.521 8.541,19.062 19.061,19.062Z" style="fill:none;stroke:#000;stroke-width:0.71px;"/><path id="CIRCLE17" serif:id="CIRCLE" d="M22.947,247.081c10.52,-0 19.062,-8.542 19.062,-19.062c-0,-10.521 -8.542,-19.062 -19.062,-19.062c-10.521,-0 -19.062,8.541 -19.062,19.062c-0,10.52 8.541,19.062 19.062,19.062Z" style="fill:none;stroke:#000;stroke-width:0.71px;"/><path id="ARC10" serif:id="ARC" d="M91.531,123.828c-0.597,-2.663 -1.76,-5.166 -3.41,-7.341" style="fill:none;stroke:#000;stroke-width:0.71px;"/><path id="ARC11" serif:id="ARC" d="M56.088,136.829c1.064,2.032 2.486,3.854 4.198,5.38" style="fill:none;stroke:#000;stroke-width:0.71px;"/><path id="ARC12" serif:id="ARC" d="M71.287,146.961c1.109,0.098 2.224,0.098 3.333,0" style="fill:none;stroke:#000;stroke-width:0.71px;"/><path id="ARC13" serif:id="ARC" d="M21.288,196.97c1.109,0.097 2.224,0.097 3.333,-0" style="fill:none;stroke:#000;stroke-width:0.71px;"/><path id="ARC14" serif:id="ARC" d="M35.622,192.217c1.712,-1.525 3.134,-3.348 4.198,-5.379" style="fill:none;stroke:#000;stroke-width:0.71px;"/><path id="ARC15" serif:id="ARC" d="M7.787,166.496c-1.65,2.174 -2.813,4.678 -3.41,7.341" style="fill:none;stroke:#000;stroke-width:0.71px;"/><path id="ARC16" serif:id="ARC" d="M21.28,246.985c1.109,0.097 2.224,0.097 3.333,-0" style="fill:none;stroke:#000;stroke-width:0.71px;"/><path id="CIRCLE18" serif:id="CIRCLE" d="M85.485,71.295c2.376,0 4.305,-1.929 4.305,-4.305c0,-2.376 -1.929,-4.305 -4.305,-4.305c-2.376,0 -4.305,1.929 -4.305,4.305c0,2.376 1.929,4.305 4.305,4.305Z" style="fill:none;stroke:#000;stroke-width:0.71px;"/><path id="CIRCLE19" serif:id="CIRCLE" d="M59.974,71.295c2.376,0 4.305,-1.929 4.305,-4.305c-0,-2.376 -1.929,-4.305 -4.305,-4.305c-2.376,0 -4.306,1.929 -4.306,4.305c0,2.376 1.93,4.305 4.306,4.305Z" style="fill:none;stroke:#000;stroke-width:0.71px;"/></g></svg>