<?xml version="1.0" encoding="UTF-8" standalone="no"?><!DOCTYPE svg PUBLIC "-//W3C//DTD SVG 1.1//EN" "http://www.w3.org/Graphics/SVG/1.1/DTD/svg11.dtd"><svg width="100%" height="100%" viewBox="0 0 190 249" version="1.1" xmlns="http://www.w3.org/2000/svg" xmlns:xlink="http://www.w3.org/1999/xlink" xml:space="preserve" xmlns:serif="http://www.serif.com/" style="fill-rule:evenodd;clip-rule:evenodd;stroke-linecap:round;stroke-linejoin:round;stroke-miterlimit:2;"><g id="Hole-Pattern" serif:id="Hole Pattern"><g id="ROTATED-DIMENSION" serif:id="ROTATED DIMENSION"><path id="LINE" d="M152.173,134.628l-0,-126.497" style="fill:none;stroke:#000;stroke-width:0.71px;"/><path id="LINE1" serif:id="LINE" d="M76.913,134.628l0,-70.158" style="fill:none;stroke:#000;stroke-width:0.71px;"/><path id="LINE2" serif:id="LINE" d="M76.913,60.218l0,-52.087" style="fill:none;stroke:#000;stroke-width:0.71px;"/><path id="LINE3" serif:id="LINE" d="M152.173,11.32l-37.63,0" style="fill:none;stroke:#000;stroke-width:0.71px;"/><path id="LINE4" serif:id="LINE" d="M76.913,11.32l37.63,0" style="fill:none;stroke:#000;stroke-width:0.71px;"/><path id="SOLID" d="M152.173,11.32l-7.016,-1.063l0,2.126l7.016,-1.063Z" style="stroke:#000;stroke-width:1px;stroke-linecap:butt;"/><path id="SOLID1" serif:id="SOLID" d="M76.913,11.32l7.016,1.063l-0,-2.126l-7.016,1.063Z" style="stroke:#000;stroke-width:1px;stroke-linecap:butt;"/></g><g id="ROTATED-DIMENSION1" serif:id="ROTATED DIMENSION"><path id="LINE5" serif:id="LINE" d="M162.909,185.699l0,62.669" style="fill:none;stroke:#000;stroke-width:0.71px;"/><path id="LINE6" serif:id="LINE" d="M66.177,186.448l-0,33.219" style="fill:none;stroke:#000;stroke-width:0.71px;"/><path id="LINE7" serif:id="LINE" d="M66.177,223.919l-0,24.449" style="fill:none;stroke:#000;stroke-width:0.71px;"/><path id="LINE8" serif:id="LINE" d="M162.909,245.179l-48.366,-0" style="fill:none;stroke:#000;stroke-width:0.71px;"/><path id="LINE9" serif:id="LINE" d="M66.177,245.179l48.366,-0" style="fill:none;stroke:#000;stroke-width:0.71px;"/><path id="SOLID2" serif:id="SOLID" d="M162.909,245.179l-7.016,-1.063l0,2.126l7.016,-1.063Z" style="stroke:#000;stroke-width:1px;stroke-linecap:butt;"/><path id="SOLID3" serif:id="SOLID" d="M66.177,245.179l7.016,1.063l-0,-2.126l-7.016,1.063Z" style="stroke:#000;stroke-width:1px;stroke-linecap:butt;"/></g><g id="ROTATED-DIMENSION2" serif:id="ROTATED DIMENSION"><path id="LINE10" serif:id="LINE" d="M34.747,134.628l-25.44,-0" style="fill:none;stroke:#000;stroke-width:0.71px;"/><path id="LINE11" serif:id="LINE" d="M51.28,171.832l-41.973,0" style="fill:none;stroke:#000;stroke-width:0.71px;"/><path id="LINE12" serif:id="LINE" d="M12.496,134.628l-0,18.602" style="fill:none;stroke:#000;stroke-width:0.71px;"/><path id="LINE13" serif:id="LINE" d="M12.496,171.832l-0,-18.602" style="fill:none;stroke:#000;stroke-width:0.71px;"/><path id="SOLID4" serif:id="SOLID" d="M12.496,134.628l-1.063,7.015l2.126,0l-1.063,-7.015Z" style="stroke:#000;stroke-width:1px;stroke-linecap:butt;"/><path id="SOLID5" serif:id="SOLID" d="M12.496,171.832l1.063,-7.015l-2.126,-0l1.063,7.015Z" style="stroke:#000;stroke-width:1px;stroke-linecap:butt;"/></g><g id="ROTATED-DIMENSION3" serif:id="ROTATED DIMENSION"><path id="LINE14" serif:id="LINE" d="M70.095,134.628l-60.788,-0" style="fill:none;stroke:#000;stroke-width:0.71px;"/><path id="LINE15" serif:id="LINE" d="M98.732,62.344l-89.425,0" style="fill:none;stroke:#000;stroke-width:0.71px;"/><path id="LINE16" serif:id="LINE" d="M12.496,134.628l-0,-36.142" style="fill:none;stroke:#000;stroke-width:0.71px;"/><path id="LINE17" serif:id="LINE" d="M12.496,62.344l-0,36.142" style="fill:none;stroke:#000;stroke-width:0.71px;"/><path id="SOLID6" serif:id="SOLID" d="M12.496,134.628l1.063,-7.016l-2.126,-0l1.063,7.016Z" style="stroke:#000;stroke-width:1px;stroke-linecap:butt;"/><path id="SOLID7" serif:id="SOLID" d="M12.496,62.344l-1.063,7.016l2.126,-0l-1.063,-7.016Z" style="stroke:#000;stroke-width:1px;stroke-linecap:butt;"/></g><g id="ROTATED-DIMENSION4" serif:id="ROTATED DIMENSION"><path id="LINE18" serif:id="LINE" d="M73.193,171.832l-0,53.15" style="fill:none;stroke:#000;stroke-width:0.71px;"/><path id="LINE19" serif:id="LINE" d="M59.161,171.832l0,53.15" style="fill:none;stroke:#000;stroke-width:0.71px;"/><path id="LINE20" serif:id="LINE" d="M73.193,221.793l10.63,-0" style="fill:none;stroke:#000;stroke-width:0.71px;"/><path id="LINE21" serif:id="LINE" d="M83.823,221.793l-17.646,-0" style="fill:none;stroke:#000;stroke-width:0.71px;"/><path id="LINE22" serif:id="LINE" d="M59.161,221.793l-41.956,-0" style="fill:none;stroke:#000;stroke-width:0.71px;"/><path id="LINE23" serif:id="LINE" d="M17.205,221.793l48.972,-0" style="fill:none;stroke:#000;stroke-width:0.71px;"/><path id="SOLID8" serif:id="SOLID" d="M73.193,221.793l7.015,1.063l0,-2.126l-7.015,1.063Z" style="stroke:#000;stroke-width:1px;stroke-linecap:butt;"/><path id="SOLID9" serif:id="SOLID" d="M59.161,221.793l-7.016,-1.063l0,2.126l7.016,-1.063Z" style="stroke:#000;stroke-width:1px;stroke-linecap:butt;"/></g><path id="CIRCLE" d="M114.543,172.257c20.769,0 37.63,-16.861 37.63,-37.629c-0,-20.769 -16.861,-37.63 -37.63,-37.63c-20.768,-0 -37.63,16.861 -37.63,37.63c0,20.768 16.862,37.629 37.63,37.629Z" style="fill:none;stroke:#000;stroke-width:0.71px;"/><path id="CIRCLE1" serif:id="CIRCLE" d="M114.543,69.36c3.872,-0 7.016,-3.144 7.016,-7.016c-0,-3.872 -3.144,-7.016 -7.016,-7.016c-3.872,0 -7.016,3.144 -7.016,7.016c0,3.872 3.144,7.016 7.016,7.016Z" style="fill:none;stroke:#000;stroke-width:0.71px;"/><path id="CIRCLE2" serif:id="CIRCLE" d="M162.909,178.848c3.872,0 7.016,-3.144 7.016,-7.016c-0,-3.872 -3.144,-7.015 -7.016,-7.015c-3.872,-0 -7.016,3.143 -7.016,7.015c0,3.872 3.144,7.016 7.016,7.016Z" style="fill:none;stroke:#000;stroke-width:0.71px;"/><path id="CIRCLE3" serif:id="CIRCLE" d="M66.177,178.848c3.872,0 7.016,-3.144 7.016,-7.016c-0,-3.872 -3.144,-7.015 -7.016,-7.015c-3.872,-0 -7.016,3.143 -7.016,7.015c0,3.872 3.144,7.016 7.016,7.016Z" style="fill:none;stroke:#000;stroke-width:0.71px;"/><g transform="matrix(12,0,0,12,130.911,9.02945)"></g><text x="98.034px" y="9.029px" style="font-family:'Cambria';font-size:12px;">Ø 35.4</text><g transform="matrix(12,0,0,12,51.0998,218.636)"></g><text x="7.137px" y="218.636px" style="font-family:'Cambria';font-size:12px;">3 x Ø 6.6</text><g transform="matrix(12,0,0,12,125.963,243.088)"></g><text x="103.568px" y="243.088px" style="font-family:'Cambria';font-size:12px;">45.5</text><g transform="matrix(6.245e-17,-1,1,6.245e-17,-413.329,243.041)"><g transform="matrix(12,0,0,12,151.004,422.542)"></g><text x="137.715px" y="422.542px" style="font-family:'Cambria';font-size:12px;">34</text></g><g transform="matrix(6.245e-17,-1,1,6.245e-17,-472.688,302.4)"><g transform="matrix(12,0,0,12,160.109,481.901)"></g><text x="137.715px" y="481.901px" style="font-family:'Cambria';font-size:12px;">17.5</text></g><path id="LINE24" serif:id="LINE" d="M40.134,38.958l-0,155.197" style="fill:none;stroke:#000;stroke-width:0.71px;stroke-dasharray:24.7,2.74,5.49,2.74,5.49,2.74;"/><path id="LINE25" serif:id="LINE" d="M40.134,194.155l148.818,0" style="fill:none;stroke:#000;stroke-width:0.71px;stroke-dasharray:24.7,2.74,5.49,2.74,5.49,2.74;"/><path id="LINE26" serif:id="LINE" d="M188.952,194.155l0,-155.197" style="fill:none;stroke:#000;stroke-width:0.71px;stroke-dasharray:24.7,2.74,5.49,2.74,5.49,2.74;"/><path id="LINE27" serif:id="LINE" d="M188.952,38.958l-148.818,0" style="fill:none;stroke:#000;stroke-width:0.71px;stroke-dasharray:24.7,2.74,5.49,2.74,5.49,2.74;"/><path id="LINE28" serif:id="LINE" d="M66.177,171.832l-0,17.646" style="fill:none;stroke:#000;stroke-width:0.71px;stroke-dasharray:20.58,4.12,4.12,4.12;"/><path id="LINE29" serif:id="LINE" d="M66.177,171.832l-0,-17.645" style="fill:none;stroke:#000;stroke-width:0.71px;stroke-dasharray:20.58,4.12,4.12,4.12;"/><path id="LINE30" serif:id="LINE" d="M114.543,62.344l0,17.646" style="fill:none;stroke:#000;stroke-width:0.71px;stroke-dasharray:20.58,4.12,4.12,4.12;"/><path id="LINE31" serif:id="LINE" d="M114.543,134.628l0,48.259" style="fill:none;stroke:#000;stroke-width:0.71px;stroke-dasharray:20.58,4.12,4.12,4.12;"/><path id="LINE32" serif:id="LINE" d="M114.543,134.628l0,-48.26" style="fill:none;stroke:#000;stroke-width:0.71px;stroke-dasharray:20.58,4.12,4.12,4.12;"/><path id="LINE33" serif:id="LINE" d="M114.543,62.344l0,-17.646" style="fill:none;stroke:#000;stroke-width:0.71px;stroke-dasharray:20.58,4.12,4.12,4.12;"/><path id="LINE34" serif:id="LINE" d="M162.909,171.832l0,17.646" style="fill:none;stroke:#000;stroke-width:0.71px;stroke-dasharray:20.58,4.12,4.12,4.12;"/><path id="LINE35" serif:id="LINE" d="M162.909,171.832l0,-17.645" style="fill:none;stroke:#000;stroke-width:0.71px;stroke-dasharray:20.58,4.12,4.12,4.12;"/><path id="LINE36" serif:id="LINE" d="M162.909,171.832l-17.645,0" style="fill:none;stroke:#000;stroke-width:0.71px;stroke-dasharray:20.58,4.12,4.12,4.12;"/><path id="LINE37" serif:id="LINE" d="M66.177,171.832l-17.646,0" style="fill:none;stroke:#000;stroke-width:0.71px;stroke-dasharray:20.58,4.12,4.12,4.12;"/><path id="LINE38" serif:id="LINE" d="M66.177,171.832l17.646,0" style="fill:none;stroke:#000;stroke-width:0.71px;stroke-dasharray:20.58,4.12,4.12,4.12;"/><path id="LINE39" serif:id="LINE" d="M162.909,171.832l17.646,0" style="fill:none;stroke:#000;stroke-width:0.71px;stroke-dasharray:20.58,4.12,4.12,4.12;"/><path id="LINE40" serif:id="LINE" d="M114.543,134.628l-48.26,-0" style="fill:none;stroke:#000;stroke-width:0.71px;stroke-dasharray:20.58,4.12,4.12,4.12;"/><path id="LINE41" serif:id="LINE" d="M114.543,134.628l48.26,-0" style="fill:none;stroke:#000;stroke-width:0.71px;stroke-dasharray:20.58,4.12,4.12,4.12;"/><path id="LINE42" serif:id="LINE" d="M114.543,62.344l-17.646,0" style="fill:none;stroke:#000;stroke-width:0.71px;stroke-dasharray:20.58,4.12,4.12,4.12;"/><path id="LINE43" serif:id="LINE" d="M114.543,62.344l17.646,0" style="fill:none;stroke:#000;stroke-width:0.71px;stroke-dasharray:20.58,4.12,4.12,4.12;"/></g></svg>