<?xml version="1.0" encoding="UTF-8" standalone="no"?><!DOCTYPE svg PUBLIC "-//W3C//DTD SVG 1.1//EN" "http://www.w3.org/Graphics/SVG/1.1/DTD/svg11.dtd"><svg width="100%" height="100%" viewBox="0 0 284 285" version="1.1" xmlns="http://www.w3.org/2000/svg" xmlns:xlink="http://www.w3.org/1999/xlink" xml:space="preserve" xmlns:serif="http://www.serif.com/" style="fill-rule:evenodd;clip-rule:evenodd;stroke-linecap:round;stroke-linejoin:round;stroke-miterlimit:2;"><rect id="HSI-Codings" serif:id="HSI Codings" x="0.012" y="0.9" width="283.465" height="283.465" style="fill:none;"/><g id="Codings"><g id="TEXT" transform="matrix(16,0,0,16,79.0847,44.921)"></g><text x="66.702px" y="44.921px" style="font-family:'Cambria';font-size:16px;">1</text><g id="LEADER"><path id="LWPOLYLINE" d="M107.101,51.419c-0.194,0.555 0.098,1.161 0.652,1.355c0.554,0.194 1.16,-0.098 1.354,-0.652c0.194,-0.554 -0.097,-1.16 -0.651,-1.354c-0.555,-0.194 -1.161,0.097 -1.355,0.651l1.003,0.352l-1.003,-0.352Z" style="fill-rule:nonzero;"/><path id="LINE" d="M107.101,51.419l-5.618,-1.967" style="fill:none;stroke:#000;stroke-width:0.71px;"/><path id="LINE1" serif:id="LINE" d="M101.483,49.452l-22.045,-7.72" style="fill:none;stroke:#000;stroke-width:0.71px;"/><path id="LINE2" serif:id="LINE" d="M79.438,41.732l-5.315,0" style="fill:none;stroke:#000;stroke-width:0.71px;"/></g><g id="TEXT1" serif:id="TEXT" transform="matrix(16,0,0,16,79.0847,95.7373)"></g><text x="66.702px" y="95.737px" style="font-family:'Cambria';font-size:16px;">4</text><g id="LEADER1" serif:id="LEADER"><path id="LWPOLYLINE1" serif:id="LWPOLYLINE" d="M111.945,83.671c0.154,0.566 0.739,0.9 1.305,0.745c0.567,-0.154 0.9,-0.739 0.746,-1.305c-0.155,-0.566 -0.739,-0.9 -1.306,-0.745c-0.566,0.154 -0.9,0.739 -0.745,1.305l1.025,-0.28l-1.025,0.28Z" style="fill-rule:nonzero;"/><path id="LINE3" serif:id="LINE" d="M111.945,83.671l-5.743,1.568" style="fill:none;stroke:#000;stroke-width:0.71px;"/><path id="LINE4" serif:id="LINE" d="M106.202,85.239l-26.764,7.309" style="fill:none;stroke:#000;stroke-width:0.71px;"/><path id="LINE5" serif:id="LINE" d="M79.438,92.548l-5.315,0" style="fill:none;stroke:#000;stroke-width:0.71px;"/></g><g id="TEXT2" serif:id="TEXT" transform="matrix(16,0,0,16,217.467,43.9046)"></g><text x="208.607px" y="43.905px" style="font-family:'Cambria';font-size:16px;">2</text><g id="LEADER2" serif:id="LEADER"><path id="LWPOLYLINE2" serif:id="LWPOLYLINE" d="M172.127,51.281c-0.209,-0.549 -0.824,-0.823 -1.372,-0.614c-0.549,0.21 -0.823,0.824 -0.614,1.373c0.21,0.548 0.824,0.823 1.373,0.613c0.548,-0.209 0.823,-0.824 0.613,-1.372l-0.993,0.379l0.993,-0.379Z" style="fill-rule:nonzero;"/><path id="LINE6" serif:id="LINE" d="M172.127,51.281l5.561,-2.126" style="fill:none;stroke:#000;stroke-width:0.71px;"/><path id="LINE7" serif:id="LINE" d="M177.688,49.155l22.081,-8.439" style="fill:none;stroke:#000;stroke-width:0.71px;"/><path id="LINE8" serif:id="LINE" d="M199.769,40.716l5.315,-0" style="fill:none;stroke:#000;stroke-width:0.71px;"/></g><g id="TEXT3" serif:id="TEXT" transform="matrix(16,0,0,16,217.467,94.8645)"></g><text x="208.607px" y="94.864px" style="font-family:'Cambria';font-size:16px;">3</text><g id="LEADER3" serif:id="LEADER"><path id="LWPOLYLINE3" serif:id="LWPOLYLINE" d="M167.854,83.983c0.138,-0.571 -0.214,-1.145 -0.784,-1.282c-0.571,-0.138 -1.145,0.213 -1.283,0.784c-0.137,0.571 0.214,1.145 0.785,1.282c0.57,0.138 1.144,-0.213 1.282,-0.784l-1.033,-0.249l1.033,0.249Z" style="fill-rule:nonzero;"/><path id="LINE9" serif:id="LINE" d="M167.854,83.983l5.787,1.395" style="fill:none;stroke:#000;stroke-width:0.71px;"/><path id="LINE10" serif:id="LINE" d="M173.641,85.378l26.128,6.298" style="fill:none;stroke:#000;stroke-width:0.71px;"/><path id="LINE11" serif:id="LINE" d="M199.769,91.676l5.315,-0" style="fill:none;stroke:#000;stroke-width:0.71px;"/></g><g id="TEXT4" serif:id="TEXT" transform="matrix(16,0,0,16,94.1284,150.815)"></g><text x="84.16px" y="150.815px" style="font-family:'Cambria';font-size:16px;">A</text><g id="TEXT5" serif:id="TEXT" transform="matrix(16,0,0,16,142.873,150.73)"></g><text x="133.873px" y="150.73px" style="font-family:'Cambria';font-size:16px;">C</text><g id="TEXT6" serif:id="TEXT" transform="matrix(16,0,0,16,193.428,150.73)"></g><text x="184.225px" y="150.73px" style="font-family:'Cambria';font-size:16px;">E</text><g id="TEXT7" serif:id="TEXT" transform="matrix(16,0,0,16,93.8984,201.167)"></g><text x="84.117px" y="201.167px" style="font-family:'Cambria';font-size:16px;">B</text><g id="TEXT8" serif:id="TEXT" transform="matrix(16,0,0,16,144.247,201.124)"></g><text x="133.661px" y="201.124px" style="font-family:'Cambria';font-size:16px;">D</text><g id="TEXT9" serif:id="TEXT" transform="matrix(16,0,0,16,193.704,200.827)"></g><text x="185.118px" y="200.827px" style="font-family:'Cambria';font-size:16px;">F</text><g id="TEXT10" serif:id="TEXT" transform="matrix(16,0,0,16,93.6118,251.306)"></g><text x="85.01px" y="251.306px" style="font-family:'Cambria';font-size:16px;">Z</text><path id="LINE12" serif:id="LINE" d="M74.661,191.345l0,-7.341" style="fill:none;stroke:#000;stroke-width:0.71px;"/><path id="LINE13" serif:id="LINE" d="M74.683,141.349l-0,-7.341" style="fill:none;stroke:#000;stroke-width:0.71px;"/><path id="LINE14" serif:id="LINE" d="M88.154,261.195l3.333,-0" style="fill:none;stroke:#000;stroke-width:0.71px;"/><path id="LINE15" serif:id="LINE" d="M88.154,264.493l-0,-3.298" style="fill:none;stroke:#000;stroke-width:0.71px;"/><path id="LINE16" serif:id="LINE" d="M88.162,214.478l-0,-3.298" style="fill:none;stroke:#000;stroke-width:0.71px;"/><path id="LINE17" serif:id="LINE" d="M88.184,164.482l-0,-3.298" style="fill:none;stroke:#000;stroke-width:0.71px;"/><path id="LINE18" serif:id="LINE" d="M91.487,261.195l0,3.298" style="fill:none;stroke:#000;stroke-width:0.71px;"/><path id="LINE19" serif:id="LINE" d="M91.495,211.18l0,3.298" style="fill:none;stroke:#000;stroke-width:0.71px;"/><path id="LINE20" serif:id="LINE" d="M91.517,161.184l0,3.298" style="fill:none;stroke:#000;stroke-width:0.71px;"/><path id="LINE21" serif:id="LINE" d="M102.496,204.346l0,5.38" style="fill:none;stroke:#000;stroke-width:0.71px;"/><path id="LINE22" serif:id="LINE" d="M105.018,134.008l0,7.341" style="fill:none;stroke:#000;stroke-width:0.71px;"/><path id="LINE23" serif:id="LINE" d="M110.584,55.798l-0,-14.039" style="fill:none;stroke:#000;stroke-width:0.71px;"/><path id="LINE24" serif:id="LINE" d="M115.367,90.96l0,-10.288" style="fill:none;stroke:#000;stroke-width:0.71px;"/><path id="LINE25" serif:id="LINE" d="M127.16,159.717l0,-5.379" style="fill:none;stroke:#000;stroke-width:0.71px;"/><path id="LINE26" serif:id="LINE" d="M127.176,209.678l-0,-5.38" style="fill:none;stroke:#000;stroke-width:0.71px;"/><path id="LINE27" serif:id="LINE" d="M136.414,100.054l0,-6.307" style="fill:none;stroke:#000;stroke-width:0.71px;"/><path id="LINE28" serif:id="LINE" d="M138.161,164.47l-0,-3.299" style="fill:none;stroke:#000;stroke-width:0.71px;"/><path id="LINE29" serif:id="LINE" d="M138.177,214.431l-0,-3.299" style="fill:none;stroke:#000;stroke-width:0.71px;"/><path id="LINE30" serif:id="LINE" d="M88.162,211.18l3.333,-0" style="fill:none;stroke:#000;stroke-width:0.71px;"/><path id="LINE31" serif:id="LINE" d="M188.177,211.173l3.334,-0" style="fill:none;stroke:#000;stroke-width:0.71px;"/><path id="LINE32" serif:id="LINE" d="M138.177,211.132l3.333,0" style="fill:none;stroke:#000;stroke-width:0.71px;"/><path id="LINE33" serif:id="LINE" d="M106.694,204.346l-4.198,0" style="fill:none;stroke:#000;stroke-width:0.71px;"/><path id="LINE34" serif:id="LINE" d="M206.71,204.339l-4.198,0" style="fill:none;stroke:#000;stroke-width:0.71px;"/><path id="LINE35" serif:id="LINE" d="M156.709,204.298l-4.198,0" style="fill:none;stroke:#000;stroke-width:0.71px;"/><path id="LINE36" serif:id="LINE" d="M127.176,204.298l-4.198,0" style="fill:none;stroke:#000;stroke-width:0.71px;"/><path id="LINE37" serif:id="LINE" d="M141.494,161.171l0,3.299" style="fill:none;stroke:#000;stroke-width:0.71px;"/><path id="LINE38" serif:id="LINE" d="M141.51,211.132l0,3.299" style="fill:none;stroke:#000;stroke-width:0.71px;"/><path id="LINE39" serif:id="LINE" d="M142.792,93.747l0,6.307" style="fill:none;stroke:#000;stroke-width:0.71px;"/><path id="LINE40" serif:id="LINE" d="M152.511,204.298l-0,5.38" style="fill:none;stroke:#000;stroke-width:0.71px;"/><path id="LINE41" serif:id="LINE" d="M154.995,133.996l0,7.341" style="fill:none;stroke:#000;stroke-width:0.71px;"/><path id="LINE42" serif:id="LINE" d="M163.84,80.672l-0,10.288" style="fill:none;stroke:#000;stroke-width:0.71px;"/><path id="LINE43" serif:id="LINE" d="M71.251,191.345l3.41,0" style="fill:none;stroke:#000;stroke-width:0.71px;"/><path id="LINE44" serif:id="LINE" d="M205.012,191.338l3.41,0" style="fill:none;stroke:#000;stroke-width:0.71px;"/><path id="LINE45" serif:id="LINE" d="M168.623,41.759l0,14.039" style="fill:none;stroke:#000;stroke-width:0.71px;"/><path id="LINE46" serif:id="LINE" d="M174.621,141.344l-0,-7.341" style="fill:none;stroke:#000;stroke-width:0.71px;"/><path id="LINE47" serif:id="LINE" d="M177.121,159.724l-0,-5.38" style="fill:none;stroke:#000;stroke-width:0.71px;"/><path id="LINE48" serif:id="LINE" d="M188.122,164.477l-0,-3.299" style="fill:none;stroke:#000;stroke-width:0.71px;"/><path id="LINE49" serif:id="LINE" d="M188.177,214.471l0,-3.298" style="fill:none;stroke:#000;stroke-width:0.71px;"/><path id="LINE50" serif:id="LINE" d="M191.455,161.178l0,3.299" style="fill:none;stroke:#000;stroke-width:0.71px;"/><path id="LINE51" serif:id="LINE" d="M191.511,211.173l-0,3.298" style="fill:none;stroke:#000;stroke-width:0.71px;"/><path id="LINE52" serif:id="LINE" d="M88.184,161.184l3.333,-0" style="fill:none;stroke:#000;stroke-width:0.71px;"/><path id="LINE53" serif:id="LINE" d="M188.122,161.178l3.333,0" style="fill:none;stroke:#000;stroke-width:0.71px;"/><path id="LINE54" serif:id="LINE" d="M138.161,161.171l3.333,0" style="fill:none;stroke:#000;stroke-width:0.71px;"/><path id="LINE55" serif:id="LINE" d="M177.121,154.344l-4.198,0" style="fill:none;stroke:#000;stroke-width:0.71px;"/><path id="LINE56" serif:id="LINE" d="M127.16,154.338l-4.198,-0" style="fill:none;stroke:#000;stroke-width:0.71px;"/><path id="LINE57" serif:id="LINE" d="M202.512,204.339l-0,5.38" style="fill:none;stroke:#000;stroke-width:0.71px;"/><path id="LINE58" serif:id="LINE" d="M205.012,183.997l-0,7.341" style="fill:none;stroke:#000;stroke-width:0.71px;"/><path id="LINE59" serif:id="LINE" d="M71.273,141.349l3.41,0" style="fill:none;stroke:#000;stroke-width:0.71px;"/><path id="LINE60" serif:id="LINE" d="M105.018,141.349l3.41,0" style="fill:none;stroke:#000;stroke-width:0.71px;"/><path id="LINE61" serif:id="LINE" d="M171.211,141.344l3.41,-0" style="fill:none;stroke:#000;stroke-width:0.71px;"/><path id="LINE62" serif:id="LINE" d="M154.995,141.337l3.41,-0" style="fill:none;stroke:#000;stroke-width:0.71px;"/><path id="LINE63" serif:id="LINE" d="M136.414,93.747l6.378,-0" style="fill:none;stroke:#000;stroke-width:0.71px;"/><path id="LINE64" serif:id="LINE" d="M171.868,80.672l-8.028,-0" style="fill:none;stroke:#000;stroke-width:0.71px;"/><path id="LINE65" serif:id="LINE" d="M115.367,80.672l-8.028,-0" style="fill:none;stroke:#000;stroke-width:0.71px;"/><path id="LINE66" serif:id="LINE" d="M104.063,55.798l6.521,-0" style="fill:none;stroke:#000;stroke-width:0.71px;"/><path id="LINE67" serif:id="LINE" d="M168.623,55.798l6.52,-0" style="fill:none;stroke:#000;stroke-width:0.71px;"/><path id="CIRCLE" d="M139.603,109.054c24.993,-0 45.284,-20.291 45.284,-45.284c-0,-24.992 -20.291,-45.283 -45.284,-45.283c-24.992,-0 -45.283,20.291 -45.283,45.283c-0,24.993 20.291,45.284 45.283,45.284Z" style="fill:none;stroke:#000;stroke-width:0.71px;"/><path id="CIRCLE1" serif:id="CIRCLE" d="M139.603,104.43c22.441,-0 40.66,-18.219 40.66,-40.66c-0,-22.44 -18.219,-40.659 -40.66,-40.659c-22.44,-0 -40.659,18.219 -40.659,40.659c-0,22.441 18.219,40.66 40.659,40.66Z" style="fill:none;stroke:#000;stroke-width:0.71px;"/><path id="CIRCLE2" serif:id="CIRCLE" d="M139.603,100.236c20.127,0 36.466,-16.34 36.466,-36.466c0,-20.126 -16.339,-36.466 -36.466,-36.466c-20.126,0 -36.466,16.34 -36.466,36.466c0,20.126 16.34,36.466 36.466,36.466Z" style="fill:none;stroke:#000;stroke-width:0.71px;"/><path id="ARC" d="M107.339,80.672c2.035,3.884 4.755,7.37 8.028,10.288" style="fill:none;stroke:#000;stroke-width:0.71px;"/><path id="ARC1" serif:id="ARC" d="M110.584,41.759c-3.154,4.158 -5.378,8.946 -6.521,14.039" style="fill:none;stroke:#000;stroke-width:0.71px;"/><path id="ARC2" serif:id="ARC" d="M136.414,100.054c2.122,0.186 4.257,0.186 6.378,-0" style="fill:none;stroke:#000;stroke-width:0.71px;"/><path id="ARC3" serif:id="ARC" d="M163.84,90.96c3.273,-2.918 5.993,-6.404 8.028,-10.288" style="fill:none;stroke:#000;stroke-width:0.71px;"/><path id="ARC4" serif:id="ARC" d="M175.143,55.798c-1.142,-5.093 -3.366,-9.881 -6.52,-14.039" style="fill:none;stroke:#000;stroke-width:0.71px;"/><path id="ARC5" serif:id="ARC" d="M115.367,90.653c5.835,5.26 13.222,8.479 21.047,9.171" style="fill:none;stroke:#000;stroke-width:0.71px;"/><path id="ARC6" serif:id="ARC" d="M142.792,99.824c7.826,-0.692 15.213,-3.911 21.048,-9.171" style="fill:none;stroke:#000;stroke-width:0.71px;"/><path id="ARC7" serif:id="ARC" d="M104.297,55.798c-1.901,8.419 -0.73,17.241 3.3,24.874" style="fill:none;stroke:#000;stroke-width:0.71px;"/><path id="ARC8" serif:id="ARC" d="M171.61,80.672c4.03,-7.633 5.201,-16.455 3.299,-24.874" style="fill:none;stroke:#000;stroke-width:0.71px;"/><path id="ARC9" serif:id="ARC" d="M168.623,42.139c-6.831,-9.165 -17.589,-14.564 -29.02,-14.564c-11.43,0 -22.188,5.399 -29.019,14.564" style="fill:none;stroke:#000;stroke-width:0.71px;"/><path id="CIRCLE3" serif:id="CIRCLE" d="M139.603,76.765c12.277,0 22.244,-9.966 22.244,-22.243c-0,-12.276 -9.967,-22.243 -22.244,-22.243c-12.276,0 -22.243,9.967 -22.243,22.243c0,12.277 9.967,22.243 22.243,22.243Z" style="fill:none;stroke:#000;stroke-width:0.71px;"/><path id="CIRCLE4" serif:id="CIRCLE" d="M189.788,166.762c11.729,-0 21.252,-9.523 21.252,-21.251c-0,-11.729 -9.523,-21.252 -21.252,-21.252c-11.729,0 -21.251,9.523 -21.251,21.252c0,11.728 9.522,21.251 21.251,21.251Z" style="fill:none;stroke:#000;stroke-width:0.71px;"/><path id="CIRCLE5" serif:id="CIRCLE" d="M139.828,166.755c11.729,0 21.251,-9.522 21.251,-21.251c-0,-11.729 -9.522,-21.252 -21.251,-21.252c-11.729,0 -21.252,9.523 -21.252,21.252c0,11.729 9.523,21.251 21.252,21.251Z" style="fill:none;stroke:#000;stroke-width:0.71px;"/><path id="CIRCLE6" serif:id="CIRCLE" d="M89.851,166.767c11.729,0 21.251,-9.522 21.251,-21.251c-0,-11.729 -9.522,-21.251 -21.251,-21.251c-11.729,-0 -21.252,9.522 -21.252,21.251c0,11.729 9.523,21.251 21.252,21.251Z" style="fill:none;stroke:#000;stroke-width:0.71px;"/><path id="CIRCLE7" serif:id="CIRCLE" d="M89.829,216.763c11.729,0 21.251,-9.522 21.251,-21.251c-0,-11.729 -9.522,-21.251 -21.251,-21.251c-11.729,-0 -21.252,9.522 -21.252,21.251c0,11.729 9.523,21.251 21.252,21.251Z" style="fill:none;stroke:#000;stroke-width:0.71px;"/><path id="CIRCLE8" serif:id="CIRCLE" d="M189.844,216.757c11.729,-0 21.251,-9.523 21.251,-21.252c0,-11.729 -9.522,-21.251 -21.251,-21.251c-11.729,-0 -21.251,9.522 -21.251,21.251c-0,11.729 9.522,21.252 21.251,21.252Z" style="fill:none;stroke:#000;stroke-width:0.71px;"/><path id="CIRCLE9" serif:id="CIRCLE" d="M139.843,216.716c11.729,-0 21.252,-9.523 21.252,-21.251c-0,-11.729 -9.523,-21.252 -21.252,-21.252c-11.729,0 -21.251,9.523 -21.251,21.252c0,11.728 9.522,21.251 21.251,21.251Z" style="fill:none;stroke:#000;stroke-width:0.71px;"/><path id="CIRCLE10" serif:id="CIRCLE" d="M89.821,266.779c11.729,-0 21.251,-9.523 21.251,-21.252c0,-11.729 -9.522,-21.251 -21.251,-21.251c-11.729,-0 -21.252,9.522 -21.252,21.251c0,11.729 9.523,21.252 21.252,21.252Z" style="fill:none;stroke:#000;stroke-width:0.71px;"/><path id="CIRCLE11" serif:id="CIRCLE" d="M189.788,164.572c10.521,0 19.062,-8.541 19.062,-19.061c0,-10.521 -8.541,-19.062 -19.062,-19.062c-10.52,-0 -19.062,8.541 -19.062,19.062c0,10.52 8.542,19.061 19.062,19.061Z" style="fill:none;stroke:#000;stroke-width:0.71px;"/><path id="CIRCLE12" serif:id="CIRCLE" d="M139.828,164.566c10.52,-0 19.061,-8.542 19.061,-19.062c0,-10.521 -8.541,-19.062 -19.061,-19.062c-10.521,-0 -19.062,8.541 -19.062,19.062c-0,10.52 8.541,19.062 19.062,19.062Z" style="fill:none;stroke:#000;stroke-width:0.71px;"/><path id="CIRCLE13" serif:id="CIRCLE" d="M89.851,164.578c10.52,-0 19.061,-8.541 19.061,-19.062c0,-10.521 -8.541,-19.062 -19.061,-19.062c-10.521,0 -19.062,8.541 -19.062,19.062c-0,10.521 8.541,19.062 19.062,19.062Z" style="fill:none;stroke:#000;stroke-width:0.71px;"/><path id="CIRCLE14" serif:id="CIRCLE" d="M89.829,214.574c10.52,-0 19.062,-8.541 19.062,-19.062c-0,-10.52 -8.542,-19.062 -19.062,-19.062c-10.521,0 -19.062,8.542 -19.062,19.062c-0,10.521 8.541,19.062 19.062,19.062Z" style="fill:none;stroke:#000;stroke-width:0.71px;"/><path id="CIRCLE15" serif:id="CIRCLE" d="M189.844,214.567c10.521,0 19.062,-8.541 19.062,-19.062c-0,-10.52 -8.541,-19.062 -19.062,-19.062c-10.52,0 -19.062,8.542 -19.062,19.062c0,10.521 8.542,19.062 19.062,19.062Z" style="fill:none;stroke:#000;stroke-width:0.71px;"/><path id="CIRCLE16" serif:id="CIRCLE" d="M139.843,214.526c10.521,0 19.062,-8.541 19.062,-19.061c0,-10.521 -8.541,-19.062 -19.062,-19.062c-10.52,-0 -19.061,8.541 -19.061,19.062c-0,10.52 8.541,19.061 19.061,19.061Z" style="fill:none;stroke:#000;stroke-width:0.71px;"/><path id="CIRCLE17" serif:id="CIRCLE" d="M89.821,264.589c10.52,0 19.062,-8.541 19.062,-19.062c-0,-10.52 -8.542,-19.062 -19.062,-19.062c-10.521,0 -19.062,8.542 -19.062,19.062c-0,10.521 8.541,19.062 19.062,19.062Z" style="fill:none;stroke:#000;stroke-width:0.71px;"/><path id="ARC10" serif:id="ARC" d="M158.405,141.337c-0.597,-2.663 -1.76,-5.167 -3.41,-7.341" style="fill:none;stroke:#000;stroke-width:0.71px;"/><path id="ARC11" serif:id="ARC" d="M122.962,154.338c1.064,2.031 2.486,3.853 4.198,5.379" style="fill:none;stroke:#000;stroke-width:0.71px;"/><path id="ARC12" serif:id="ARC" d="M138.161,164.47c1.109,0.097 2.224,0.097 3.333,-0" style="fill:none;stroke:#000;stroke-width:0.71px;"/><path id="ARC13" serif:id="ARC" d="M88.162,214.478c1.109,0.098 2.224,0.098 3.333,0" style="fill:none;stroke:#000;stroke-width:0.71px;"/><path id="ARC14" serif:id="ARC" d="M102.496,209.726c1.712,-1.526 3.134,-3.349 4.198,-5.38" style="fill:none;stroke:#000;stroke-width:0.71px;"/><path id="ARC15" serif:id="ARC" d="M74.661,184.004c-1.65,2.174 -2.813,4.678 -3.41,7.341" style="fill:none;stroke:#000;stroke-width:0.71px;"/><path id="ARC16" serif:id="ARC" d="M88.154,264.493c1.109,0.098 2.224,0.098 3.333,0" style="fill:none;stroke:#000;stroke-width:0.71px;"/><path id="CIRCLE18" serif:id="CIRCLE" d="M152.359,88.804c2.376,-0 4.305,-1.929 4.305,-4.305c0,-2.376 -1.929,-4.306 -4.305,-4.306c-2.376,0 -4.305,1.93 -4.305,4.306c0,2.376 1.929,4.305 4.305,4.305Z" style="fill:none;stroke:#000;stroke-width:0.71px;"/><path id="CIRCLE19" serif:id="CIRCLE" d="M126.848,88.804c2.376,-0 4.305,-1.929 4.305,-4.305c-0,-2.376 -1.929,-4.306 -4.305,-4.306c-2.377,0 -4.306,1.93 -4.306,4.306c0,2.376 1.929,4.305 4.306,4.305Z" style="fill:none;stroke:#000;stroke-width:0.71px;"/></g></svg>