<?xml version="1.0" encoding="UTF-8" standalone="no"?><!DOCTYPE svg PUBLIC "-//W3C//DTD SVG 1.1//EN" "http://www.w3.org/Graphics/SVG/1.1/DTD/svg11.dtd"><svg width="100%" height="100%" viewBox="0 0 242 284" version="1.1" xmlns="http://www.w3.org/2000/svg" xmlns:xlink="http://www.w3.org/1999/xlink" xml:space="preserve" xmlns:serif="http://www.serif.com/" style="fill-rule:evenodd;clip-rule:evenodd;stroke-linecap:round;stroke-linejoin:round;stroke-miterlimit:2;"><rect id="HSI-hole-pattern" serif:id="HSI hole pattern" x="0.807" y="0.09" width="240.945" height="283.465" style="fill:none;"/><g id="Hole-Pattern" serif:id="Hole Pattern"><g id="ROTATED-DIMENSION" serif:id="ROTATED DIMENSION"><path id="LINE" d="M178.562,152.143l0,-126.496" style="fill:none;stroke:#000;stroke-width:0.71px;"/><path id="LINE1" serif:id="LINE" d="M103.302,152.143l0,-70.157" style="fill:none;stroke:#000;stroke-width:0.71px;"/><path id="LINE2" serif:id="LINE" d="M103.302,77.734l0,-52.087" style="fill:none;stroke:#000;stroke-width:0.71px;"/><path id="LINE3" serif:id="LINE" d="M178.562,28.836l-37.63,0" style="fill:none;stroke:#000;stroke-width:0.71px;"/><path id="LINE4" serif:id="LINE" d="M103.302,28.836l37.63,0" style="fill:none;stroke:#000;stroke-width:0.71px;"/><path id="SOLID" d="M178.562,28.836l-7.016,-1.063l0,2.126l7.016,-1.063Z" style="stroke:#000;stroke-width:1px;stroke-linecap:butt;"/><path id="SOLID1" serif:id="SOLID" d="M103.302,28.836l7.016,1.063l0,-2.126l-7.016,1.063Z" style="stroke:#000;stroke-width:1px;stroke-linecap:butt;"/></g><g id="ROTATED-DIMENSION1" serif:id="ROTATED DIMENSION"><path id="LINE5" serif:id="LINE" d="M189.298,203.214l0,62.669" style="fill:none;stroke:#000;stroke-width:0.71px;"/><path id="LINE6" serif:id="LINE" d="M92.566,203.964l0,33.219" style="fill:none;stroke:#000;stroke-width:0.71px;"/><path id="LINE7" serif:id="LINE" d="M92.566,241.434l0,24.449" style="fill:none;stroke:#000;stroke-width:0.71px;"/><path id="LINE8" serif:id="LINE" d="M189.298,262.694l-48.366,0" style="fill:none;stroke:#000;stroke-width:0.71px;"/><path id="LINE9" serif:id="LINE" d="M92.566,262.694l48.366,0" style="fill:none;stroke:#000;stroke-width:0.71px;"/><path id="SOLID2" serif:id="SOLID" d="M189.298,262.694l-7.015,-1.063l-0,2.126l7.015,-1.063Z" style="stroke:#000;stroke-width:1px;stroke-linecap:butt;"/><path id="SOLID3" serif:id="SOLID" d="M92.566,262.694l7.016,1.063l-0,-2.126l-7.016,1.063Z" style="stroke:#000;stroke-width:1px;stroke-linecap:butt;"/></g><g id="ROTATED-DIMENSION2" serif:id="ROTATED DIMENSION"><path id="LINE10" serif:id="LINE" d="M61.136,152.143l-25.44,0" style="fill:none;stroke:#000;stroke-width:0.71px;"/><path id="LINE11" serif:id="LINE" d="M77.669,189.348l-41.973,-0" style="fill:none;stroke:#000;stroke-width:0.71px;"/><path id="LINE12" serif:id="LINE" d="M38.885,152.143l0,18.603" style="fill:none;stroke:#000;stroke-width:0.71px;"/><path id="LINE13" serif:id="LINE" d="M38.885,189.348l0,-18.602" style="fill:none;stroke:#000;stroke-width:0.71px;"/><path id="SOLID4" serif:id="SOLID" d="M38.885,152.143l-1.063,7.016l2.126,-0l-1.063,-7.016Z" style="stroke:#000;stroke-width:1px;stroke-linecap:butt;"/><path id="SOLID5" serif:id="SOLID" d="M38.885,189.348l1.063,-7.016l-2.126,0l1.063,7.016Z" style="stroke:#000;stroke-width:1px;stroke-linecap:butt;"/></g><g id="ROTATED-DIMENSION3" serif:id="ROTATED DIMENSION"><path id="LINE14" serif:id="LINE" d="M96.485,152.143l-60.789,0" style="fill:none;stroke:#000;stroke-width:0.71px;"/><path id="LINE15" serif:id="LINE" d="M125.122,79.86l-89.426,-0" style="fill:none;stroke:#000;stroke-width:0.71px;"/><path id="LINE16" serif:id="LINE" d="M38.885,152.143l0,-36.142" style="fill:none;stroke:#000;stroke-width:0.71px;"/><path id="LINE17" serif:id="LINE" d="M38.885,79.86l0,36.141" style="fill:none;stroke:#000;stroke-width:0.71px;"/><path id="SOLID6" serif:id="SOLID" d="M38.885,152.143l1.063,-7.016l-2.126,0l1.063,7.016Z" style="stroke:#000;stroke-width:1px;stroke-linecap:butt;"/><path id="SOLID7" serif:id="SOLID" d="M38.885,79.86l-1.063,7.015l2.126,0l-1.063,-7.015Z" style="stroke:#000;stroke-width:1px;stroke-linecap:butt;"/></g><g id="ROTATED-DIMENSION4" serif:id="ROTATED DIMENSION"><path id="LINE18" serif:id="LINE" d="M99.582,189.348l-0,53.149" style="fill:none;stroke:#000;stroke-width:0.71px;"/><path id="LINE19" serif:id="LINE" d="M85.55,189.348l0,53.149" style="fill:none;stroke:#000;stroke-width:0.71px;"/><path id="LINE20" serif:id="LINE" d="M99.582,239.309l10.63,-0" style="fill:none;stroke:#000;stroke-width:0.71px;"/><path id="LINE21" serif:id="LINE" d="M110.212,239.309l-17.646,-0" style="fill:none;stroke:#000;stroke-width:0.71px;"/><path id="LINE22" serif:id="LINE" d="M85.55,239.309l-41.956,-0" style="fill:none;stroke:#000;stroke-width:0.71px;"/><path id="LINE23" serif:id="LINE" d="M43.594,239.309l48.972,-0" style="fill:none;stroke:#000;stroke-width:0.71px;"/><path id="SOLID8" serif:id="SOLID" d="M99.582,239.309l7.016,1.063l-0,-2.126l-7.016,1.063Z" style="stroke:#000;stroke-width:1px;stroke-linecap:butt;"/><path id="SOLID9" serif:id="SOLID" d="M85.55,239.309l-7.015,-1.063l-0,2.126l7.015,-1.063Z" style="stroke:#000;stroke-width:1px;stroke-linecap:butt;"/></g><path id="CIRCLE" d="M140.932,189.773c20.769,0 37.63,-16.861 37.63,-37.63c0,-20.768 -16.861,-37.63 -37.63,-37.63c-20.768,0 -37.63,16.862 -37.63,37.63c0,20.769 16.862,37.63 37.63,37.63Z" style="fill:none;stroke:#000;stroke-width:0.71px;"/><path id="CIRCLE1" serif:id="CIRCLE" d="M140.932,86.875c3.872,0 7.016,-3.143 7.016,-7.015c0,-3.872 -3.144,-7.016 -7.016,-7.016c-3.872,-0 -7.015,3.144 -7.015,7.016c-0,3.872 3.143,7.015 7.015,7.015Z" style="fill:none;stroke:#000;stroke-width:0.71px;"/><path id="CIRCLE2" serif:id="CIRCLE" d="M189.298,196.364c3.873,-0 7.016,-3.144 7.016,-7.016c0,-3.872 -3.143,-7.016 -7.016,-7.016c-3.872,0 -7.015,3.144 -7.015,7.016c-0,3.872 3.143,7.016 7.015,7.016Z" style="fill:none;stroke:#000;stroke-width:0.71px;"/><path id="CIRCLE3" serif:id="CIRCLE" d="M92.566,196.364c3.872,-0 7.016,-3.144 7.016,-7.016c-0,-3.872 -3.144,-7.016 -7.016,-7.016c-3.872,0 -7.016,3.144 -7.016,7.016c0,3.872 3.144,7.016 7.016,7.016Z" style="fill:none;stroke:#000;stroke-width:0.71px;"/><g transform="matrix(12,0,0,12,157.3,26.5451)"></g><text x="124.424px" y="26.545px" style="font-family:'Cambria';font-size:12px;">Ø 35.4</text><g transform="matrix(12,0,0,12,77.489,236.152)"></g><text x="33.526px" y="236.152px" style="font-family:'Cambria';font-size:12px;">3 x Ø 6.6</text><g transform="matrix(12,0,0,12,152.352,260.603)"></g><text x="129.958px" y="260.603px" style="font-family:'Cambria';font-size:12px;">45.5</text><g transform="matrix(6.245e-17,-1,1,6.245e-17,-404.455,286.946)"><g transform="matrix(12,0,0,12,177.393,440.057)"></g><text x="164.104px" y="440.057px" style="font-family:'Cambria';font-size:12px;">34</text></g><g transform="matrix(6.245e-17,-1,1,6.245e-17,-463.814,346.305)"><g transform="matrix(12,0,0,12,186.499,499.416)"></g><text x="164.104px" y="499.416px" style="font-family:'Cambria';font-size:12px;">17.5</text></g><path id="LINE24" serif:id="LINE" d="M66.523,56.474l-0,155.197" style="fill:none;stroke:#000;stroke-width:0.71px;stroke-dasharray:24.7,2.74,5.49,2.74,5.49,2.74;"/><path id="LINE25" serif:id="LINE" d="M66.523,211.671l148.819,-0" style="fill:none;stroke:#000;stroke-width:0.71px;stroke-dasharray:24.7,2.74,5.49,2.74,5.49,2.74;"/><path id="LINE26" serif:id="LINE" d="M215.342,211.671l-0,-155.197" style="fill:none;stroke:#000;stroke-width:0.71px;stroke-dasharray:24.7,2.74,5.49,2.74,5.49,2.74;"/><path id="LINE27" serif:id="LINE" d="M215.342,56.474l-148.819,-0" style="fill:none;stroke:#000;stroke-width:0.71px;stroke-dasharray:24.7,2.74,5.49,2.74,5.49,2.74;"/><path id="LINE28" serif:id="LINE" d="M92.566,189.348l0,17.646" style="fill:none;stroke:#000;stroke-width:0.71px;stroke-dasharray:20.58,4.12,4.12,4.12;"/><path id="LINE29" serif:id="LINE" d="M92.566,189.348l0,-17.646" style="fill:none;stroke:#000;stroke-width:0.71px;stroke-dasharray:20.58,4.12,4.12,4.12;"/><path id="LINE30" serif:id="LINE" d="M140.932,79.86l0,17.645" style="fill:none;stroke:#000;stroke-width:0.71px;stroke-dasharray:20.58,4.12,4.12,4.12;"/><path id="LINE31" serif:id="LINE" d="M140.932,152.143l0,48.26" style="fill:none;stroke:#000;stroke-width:0.71px;stroke-dasharray:20.58,4.12,4.12,4.12;"/><path id="LINE32" serif:id="LINE" d="M140.932,152.143l0,-48.26" style="fill:none;stroke:#000;stroke-width:0.71px;stroke-dasharray:20.58,4.12,4.12,4.12;"/><path id="LINE33" serif:id="LINE" d="M140.932,79.86l0,-17.646" style="fill:none;stroke:#000;stroke-width:0.71px;stroke-dasharray:20.58,4.12,4.12,4.12;"/><path id="LINE34" serif:id="LINE" d="M189.298,189.348l0,17.646" style="fill:none;stroke:#000;stroke-width:0.71px;stroke-dasharray:20.58,4.12,4.12,4.12;"/><path id="LINE35" serif:id="LINE" d="M189.298,189.348l0,-17.646" style="fill:none;stroke:#000;stroke-width:0.71px;stroke-dasharray:20.58,4.12,4.12,4.12;"/><path id="LINE36" serif:id="LINE" d="M189.298,189.348l-17.645,-0" style="fill:none;stroke:#000;stroke-width:0.71px;stroke-dasharray:20.58,4.12,4.12,4.12;"/><path id="LINE37" serif:id="LINE" d="M92.566,189.348l-17.645,-0" style="fill:none;stroke:#000;stroke-width:0.71px;stroke-dasharray:20.58,4.12,4.12,4.12;"/><path id="LINE38" serif:id="LINE" d="M92.566,189.348l17.646,-0" style="fill:none;stroke:#000;stroke-width:0.71px;stroke-dasharray:20.58,4.12,4.12,4.12;"/><path id="LINE39" serif:id="LINE" d="M189.298,189.348l17.646,-0" style="fill:none;stroke:#000;stroke-width:0.71px;stroke-dasharray:20.58,4.12,4.12,4.12;"/><path id="LINE40" serif:id="LINE" d="M140.932,152.143l-48.26,0" style="fill:none;stroke:#000;stroke-width:0.71px;stroke-dasharray:20.58,4.12,4.12,4.12;"/><path id="LINE41" serif:id="LINE" d="M140.932,152.143l48.26,0" style="fill:none;stroke:#000;stroke-width:0.71px;stroke-dasharray:20.58,4.12,4.12,4.12;"/><path id="LINE42" serif:id="LINE" d="M140.932,79.86l-17.645,-0" style="fill:none;stroke:#000;stroke-width:0.71px;stroke-dasharray:20.58,4.12,4.12,4.12;"/><path id="LINE43" serif:id="LINE" d="M140.932,79.86l17.646,-0" style="fill:none;stroke:#000;stroke-width:0.71px;stroke-dasharray:20.58,4.12,4.12,4.12;"/></g></svg>